<svg xmlns="http://www.w3.org/2000/svg" width="1050" height="650" viewBox="0 0 1050 650">
<rect width="100%" height="100%" fill="white"/>
<text x="525.0" y="33" text-anchor="middle" font-family="Arial" font-size="20">current_lammps: analytic reservoir temperatures</text>
<line x1="85" y1="580" x2="860" y2="580" stroke="black"/>
<line x1="85" y1="60" x2="85" y2="580" stroke="black"/>
<text x="525.0" y="628" text-anchor="middle" font-family="Arial" font-size="15">time (ps)</text>
<text x="24" y="325.0" transform="rotate(-90 24 325.0)" text-anchor="middle" font-family="Arial" font-size="15">temperature (K)</text>
<line x1="85.00" y1="60" x2="85.00" y2="580" stroke="#ddd"/>
<text x="85.00" y="602" text-anchor="middle" font-family="Arial" font-size="12">0</text>
<line x1="85" y1="580.00" x2="860" y2="580.00" stroke="#ddd"/>
<text x="75" y="584.00" text-anchor="end" font-family="Arial" font-size="12">62.8</text>
<line x1="278.75" y1="60" x2="278.75" y2="580" stroke="#ddd"/>
<text x="278.75" y="602" text-anchor="middle" font-family="Arial" font-size="12">450</text>
<line x1="85" y1="450.00" x2="860" y2="450.00" stroke="#ddd"/>
<text x="75" y="454.00" text-anchor="end" font-family="Arial" font-size="12">92.6</text>
<line x1="472.50" y1="60" x2="472.50" y2="580" stroke="#ddd"/>
<text x="472.50" y="602" text-anchor="middle" font-family="Arial" font-size="12">900</text>
<line x1="85" y1="320.00" x2="860" y2="320.00" stroke="#ddd"/>
<text x="75" y="324.00" text-anchor="end" font-family="Arial" font-size="12">122.3</text>
<line x1="666.25" y1="60" x2="666.25" y2="580" stroke="#ddd"/>
<text x="666.25" y="602" text-anchor="middle" font-family="Arial" font-size="12">1350</text>
<line x1="85" y1="190.00" x2="860" y2="190.00" stroke="#ddd"/>
<text x="75" y="194.00" text-anchor="end" font-family="Arial" font-size="12">152.0</text>
<line x1="860.00" y1="60" x2="860.00" y2="580" stroke="#ddd"/>
<text x="860.00" y="602" text-anchor="middle" font-family="Arial" font-size="12">1800</text>
<line x1="85" y1="60.00" x2="860" y2="60.00" stroke="#ddd"/>
<text x="75" y="64.00" text-anchor="end" font-family="Arial" font-size="12">181.7</text>
<polyline points="85.00,95.86 85.43,99.39 85.86,102.88 86.29,106.33 86.72,109.75 87.15,113.13 87.58,116.47 88.01,119.78 88.44,123.05 88.88,126.29 89.31,129.50 89.74,132.67 90.17,135.81 90.60,138.92 91.03,141.99 91.46,145.03 91.89,148.04 92.32,151.02 92.75,153.97 93.18,156.89 93.61,159.77 94.04,162.63 94.47,165.46 94.90,168.26 95.33,171.03 95.76,173.78 96.19,176.49 96.62,179.18 97.06,181.85 97.49,184.48 97.92,187.09 98.35,189.67 98.78,192.23 99.21,194.76 99.64,197.27 100.07,199.75 100.50,202.21 100.93,204.64 101.36,207.05 101.79,209.44 102.22,211.80 102.65,214.14 103.08,216.46 103.51,218.76 103.94,221.03 104.38,223.28 104.81,225.51 105.24,227.72 105.67,229.91 106.10,232.08 106.53,234.22 106.96,236.35 107.39,238.46 107.82,240.54 108.25,242.61 108.68,244.66 109.11,246.69 109.54,248.70 109.97,250.69 110.40,252.67 110.83,254.63 111.26,256.56 111.69,258.49 112.12,260.39 112.56,262.28 112.99,264.15 113.42,266.00 113.85,267.84 114.28,269.66 114.71,271.46 115.14,273.25 115.57,275.02 116.00,276.78 116.43,278.52 116.86,280.25 117.29,281.96 117.72,283.66 118.15,285.34 118.58,287.01 119.01,288.67 119.44,290.31 119.88,291.93 120.31,293.55 120.74,295.15 121.17,296.73 121.60,298.31 122.03,299.87 122.46,301.41 122.89,302.95 123.32,304.47 123.75,305.98 124.18,307.48 124.61,308.96 125.04,310.44 125.47,311.90 125.90,313.35 126.33,314.79 126.76,316.22 127.19,317.63 127.62,319.04 128.06,320.43 128.49,321.82 128.92,323.19 129.35,324.55 129.78,325.91 130.21,327.25 130.64,328.58 131.07,329.90 131.50,331.21 131.93,332.51 132.36,333.81 132.79,335.09 133.22,336.36 133.65,337.63 134.08,338.88 134.51,340.13 134.94,341.36 135.38,342.59 135.81,343.81 136.24,345.02 136.67,346.22 137.10,347.42 137.53,348.60 137.96,349.78 138.39,350.95 138.82,352.11 139.25,353.26 139.68,354.40 140.11,355.54 140.54,356.67 140.97,357.79 141.40,358.90 141.83,360.01 142.26,361.11 142.69,362.20 143.12,363.29 143.56,364.36 143.99,365.43 144.42,366.50 144.85,367.55 145.28,368.60 145.71,369.65 146.14,370.68 146.57,371.71 147.00,372.74 147.43,373.75 147.86,374.76 148.29,375.77 148.72,376.77 149.15,377.76 149.58,378.74 150.01,379.72 150.44,380.70 150.88,381.66 151.31,382.63 151.74,383.58 152.17,384.53 152.60,385.48 153.03,386.42 153.46,387.35 153.89,388.28 154.32,389.20 154.75,390.12 155.18,391.03 155.61,391.94 156.04,392.84 156.47,393.74 156.90,394.63 157.33,395.51 157.76,396.40 158.19,397.27 158.62,398.14 159.06,399.01 159.49,399.87 159.92,400.73 160.35,401.58 160.78,402.43 161.21,403.28 161.64,404.11 162.07,404.95 162.50,405.78 162.93,406.60 163.36,407.43 163.79,408.24 164.22,409.06 164.65,409.86 165.08,410.67 165.51,411.47 165.94,412.26 166.38,413.05 166.81,413.84 167.24,414.63 167.67,415.41 168.10,416.18 168.53,416.95 168.96,417.72 169.39,418.48 169.82,419.24 170.25,420.00 170.68,420.75 171.11,421.50 171.54,422.25 171.97,422.99 172.40,423.73 172.83,424.46 173.26,425.19 173.69,425.92 174.12,426.64 174.56,427.36 174.99,428.08 175.42,428.79 175.85,429.50 176.28,430.21 176.71,430.91 177.14,431.61 177.57,432.31 178.00,433.00 178.43,433.69 178.86,434.38 179.29,435.06 179.72,435.74 180.15,436.42 180.58,437.09 181.01,437.76 181.44,438.43 181.88,439.10 182.31,439.76 182.74,440.42 183.17,441.07 183.60,441.73 184.03,442.38 184.46,443.02 184.89,443.67 185.32,444.31 185.75,444.95 186.18,445.58 186.61,446.21 187.04,446.84 187.47,447.47 187.90,448.09 188.33,448.71 188.76,449.33 189.19,449.95 189.62,450.56 190.06,451.17 190.49,451.78 190.92,452.38 191.35,452.99 191.78,453.58 192.21,454.18 192.64,454.78 193.07,455.37 193.50,455.96 193.93,456.54 194.36,457.13 194.79,457.71 195.22,458.29 195.65,458.86 196.08,459.43 196.51,460.01 196.94,460.57 197.38,461.14 197.81,461.70 198.24,462.26 198.67,462.82 199.10,463.38 199.53,463.93 199.96,464.48 200.39,465.03 200.82,465.58 201.25,466.12 201.68,466.66 202.11,467.20 202.54,467.74 202.97,468.27 203.40,468.81 203.83,469.34 204.26,469.86 204.69,470.39 205.12,470.91 205.56,471.43 205.99,471.95 206.42,472.47 206.85,472.98 207.28,473.49 207.71,474.00 208.14,474.51 208.57,475.01 209.00,475.51 209.43,476.01 209.86,476.51 210.29,477.00 210.72,477.50 211.15,477.99 211.58,478.48 212.01,478.96 212.44,479.45 212.88,479.93 213.31,480.41 213.74,480.89 214.17,481.36 214.60,481.84 215.03,482.31 215.46,482.78 215.89,483.24 216.32,483.71 216.75,484.17 217.18,484.63 217.61,485.09 218.04,485.55 218.47,486.00 218.90,486.45 219.33,486.90 219.76,487.35 220.19,487.79 220.62,488.24 221.06,488.68 221.49,489.12 221.92,489.56 222.35,489.99 222.78,490.42 223.21,490.85 223.64,491.28 224.07,491.71 224.50,492.13 224.93,492.56 225.36,492.98 225.79,493.39 226.22,493.81 226.65,494.22 227.08,494.64 227.51,495.05 227.94,495.45 228.38,495.86 228.81,496.26 229.24,496.67 229.67,497.07 230.10,497.46 230.53,497.86 230.96,498.25 231.39,498.64 231.82,499.03 232.25,499.42 232.68,499.81 233.11,500.19 233.54,500.57 233.97,500.95 234.40,501.33 234.83,501.70 235.26,502.08 235.69,502.45 236.12,502.82 236.56,503.18 236.99,503.55 237.42,503.91 237.85,504.27 238.28,504.63 238.71,504.99 239.14,505.35 239.57,505.70 240.00,506.05 240.43,506.40 240.86,506.75 241.29,507.09 241.72,507.43 242.15,507.78 242.58,508.11 243.01,508.45 243.44,508.79 243.88,509.12 244.31,509.45 244.74,509.78 245.17,510.11 245.60,510.43 246.03,510.76 246.46,511.08 246.89,511.40 247.32,511.72 247.75,512.03 248.18,512.34 248.61,512.66 249.04,512.97 249.47,513.27 249.90,513.58 250.33,513.88 250.76,514.18 251.19,514.48 251.62,514.78 252.06,515.08 252.49,515.37 252.92,515.66 253.35,515.95 253.78,516.24 254.21,516.53 254.64,516.81 255.07,517.09 255.50,517.37 255.93,517.65 256.36,517.93 256.79,518.20 257.22,518.47 257.65,518.74 258.08,519.01 258.51,519.28 258.94,519.54 259.38,519.80 259.81,520.06 260.24,520.32 260.67,520.58 261.10,520.83 261.53,521.09 261.96,521.34 262.39,521.59 262.82,521.83 263.25,522.08 263.68,522.32 264.11,522.56 264.54,522.80 264.97,523.04 265.40,523.28 265.83,523.51 266.26,523.74 266.69,523.97 267.12,524.20 267.56,524.42 267.99,524.65 268.42,524.87 268.85,525.09 269.28,525.31 269.71,525.52 270.14,525.74 270.57,525.95 271.00,526.16 271.43,526.37 271.86,526.57 272.29,526.78 272.72,526.98 273.15,527.18 273.58,527.38 274.01,527.58 274.44,527.77 274.88,527.97 275.31,528.16 275.74,528.35 276.17,528.53 276.60,528.72 277.03,528.90 277.46,529.09 277.89,529.27 278.32,529.44 278.75,529.62 279.18,529.79 279.61,529.97 280.04,530.14 280.47,530.31 280.90,530.47 281.33,530.64 281.76,530.80 282.19,530.96 282.62,531.12 283.06,531.28 283.49,531.43 283.92,531.59 284.35,531.74 284.78,531.89 285.21,532.04 285.64,532.18 286.07,532.33 286.50,532.47 286.93,532.61 287.36,532.75 287.79,532.88 288.22,533.02 288.65,533.15 289.08,533.28 289.51,533.41 289.94,533.54 290.38,533.67 290.81,533.79 291.24,533.91 291.67,534.03 292.10,534.15 292.53,534.27 292.96,534.38 293.39,534.49 293.82,534.61 294.25,534.71 294.68,534.82 295.11,534.93 295.54,535.03 295.97,535.13 296.40,535.23 296.83,535.33 297.26,535.43 297.69,535.52 298.12,535.62 298.56,535.71 298.99,535.80 299.42,535.88 299.85,535.97 300.28,536.05 300.71,536.14 301.14,536.22 301.57,536.29 302.00,536.37 302.43,536.45 302.86,536.52 303.29,536.59 303.72,536.66 304.15,536.73 304.58,536.79 305.01,536.86 305.44,536.92 305.88,536.98 306.31,537.04 306.74,537.10 307.17,537.15 307.60,537.21 308.03,537.26 308.46,537.31 308.89,537.36 309.32,537.41 309.75,537.45 310.18,537.50 310.61,537.54 311.04,537.58 311.47,537.62 311.90,537.65 312.33,537.69 312.76,537.72 313.19,537.75 313.62,537.78 314.06,537.81 314.49,537.84 314.92,537.86 315.35,537.89 315.78,537.91 316.21,537.93 316.64,537.94 317.07,537.96 317.50,537.98 317.93,537.99 318.36,538.00 318.79,538.01 319.22,538.02 319.65,538.02 320.08,538.03 320.51,538.03 320.94,538.03 321.38,538.03 321.81,538.03 322.24,538.03 322.67,538.02 323.10,538.02 323.53,538.01 323.96,538.00 324.39,537.99 324.82,537.97 325.25,537.96 325.68,537.94 326.11,537.93 326.54,537.91 326.97,537.89 327.40,537.86 327.83,537.84 328.26,537.81 328.69,537.79 329.12,537.76 329.56,537.73 329.99,537.69 330.42,537.66 330.85,537.63 331.28,537.59 331.71,537.55 332.14,537.51 332.57,537.47 333.00,537.43 333.43,537.38 333.86,537.34 334.29,537.29 334.72,537.24 335.15,537.19 335.58,537.14 336.01,537.09 336.44,537.03 336.88,536.98 337.31,536.92 337.74,536.86 338.17,536.80 338.60,536.74 339.03,536.67 339.46,536.61 339.89,536.54 340.32,536.47 340.75,536.40 341.18,536.33 341.61,536.26 342.04,536.19 342.47,536.11 342.90,536.04 343.33,535.96 343.76,535.88 344.19,535.80 344.62,535.71 345.06,535.63 345.49,535.55 345.92,535.46 346.35,535.37 346.78,535.28 347.21,535.19 347.64,535.10 348.07,535.01 348.50,534.91 348.93,534.82 349.36,534.72 349.79,534.62 350.22,534.52 350.65,534.42 351.08,534.32 351.51,534.21 351.94,534.11 352.38,534.00 352.81,533.89 353.24,533.79 353.67,533.67 354.10,533.56 354.53,533.45 354.96,533.34 355.39,533.22 355.82,533.10 356.25,532.99 356.68,532.87 357.11,532.75 357.54,532.62 357.97,532.50 358.40,532.38 358.83,532.25 359.26,532.12 359.69,532.00 360.12,531.87 360.56,531.74 360.99,531.61 361.42,531.47 361.85,531.34 362.28,531.20 362.71,531.07 363.14,530.93 363.57,530.79 364.00,530.65 364.43,530.51 364.86,530.37 365.29,530.22 365.72,530.08 366.15,529.93 366.58,529.79 367.01,529.64 367.44,529.49 367.88,529.34 368.31,529.19 368.74,529.04 369.17,528.88 369.60,528.73 370.03,528.57 370.46,528.42 370.89,528.26 371.32,528.10 371.75,527.94 372.18,527.78 372.61,527.62 373.04,527.46 373.47,527.29 373.90,527.13 374.33,526.96 374.76,526.79 375.19,526.63 375.62,526.46 376.06,526.29 376.49,526.12 376.92,525.94 377.35,525.77 377.78,525.60 378.21,525.42 378.64,525.25 379.07,525.07 379.50,524.89 379.93,524.71 380.36,524.53 380.79,524.35 381.22,524.17 381.65,523.99 382.08,523.81 382.51,523.62 382.94,523.44 383.38,523.25 383.81,523.06 384.24,522.88 384.67,522.69 385.10,522.50 385.53,522.31 385.96,522.12 386.39,521.92 386.82,521.73 387.25,521.54 387.68,521.34 388.11,521.15 388.54,520.95 388.97,520.75 389.40,520.55 389.83,520.36 390.26,520.16 390.69,519.96 391.12,519.75 391.56,519.55 391.99,519.35 392.42,519.15 392.85,518.94 393.28,518.74 393.71,518.53 394.14,518.32 394.57,518.12 395.00,517.91 395.43,517.70 395.86,517.49 396.29,517.28 396.72,517.07 397.15,516.86 397.58,516.65 398.01,516.43 398.44,516.22 398.88,516.01 399.31,515.79 399.74,515.57 400.17,515.36 400.60,515.14 401.03,514.92 401.46,514.71 401.89,514.49 402.32,514.27 402.75,514.05 403.18,513.83 403.61,513.61 404.04,513.38 404.47,513.16 404.90,512.94 405.33,512.71 405.76,512.49 406.19,512.27 406.62,512.04 407.06,511.81 407.49,511.59 407.92,511.36 408.35,511.13 408.78,510.91 409.21,510.68 409.64,510.45 410.07,510.22 410.50,509.99 410.93,509.76 411.36,509.53 411.79,509.29 412.22,509.06 412.65,508.83 413.08,508.60 413.51,508.36 413.94,508.13 414.38,507.90 414.81,507.66 415.24,507.43 415.67,507.19 416.10,506.95 416.53,506.72 416.96,506.48 417.39,506.24 417.82,506.01 418.25,505.77 418.68,505.53 419.11,505.29 419.54,505.05 419.97,504.81 420.40,504.57 420.83,504.33 421.26,504.09 421.69,503.85 422.12,503.61 422.56,503.37 422.99,503.12 423.42,502.88 423.85,502.64 424.28,502.40 424.71,502.15 425.14,501.91 425.57,501.67 426.00,501.42 426.43,501.18 426.86,500.93 427.29,500.69 427.72,500.44 428.15,500.20 428.58,499.95 429.01,499.70 429.44,499.46 429.88,499.21 430.31,498.97 430.74,498.72 431.17,498.47 431.60,498.22 432.03,497.98 432.46,497.73 432.89,497.48 433.32,497.23 433.75,496.99 434.18,496.74 434.61,496.49 435.04,496.24 435.47,495.99 435.90,495.74 436.33,495.49 436.76,495.25 437.19,495.00 437.62,494.75 438.06,494.50 438.49,494.25 438.92,494.00 439.35,493.75 439.78,493.50 440.21,493.25 440.64,493.00 441.07,492.75 441.50,492.50 441.93,492.25 442.36,492.00 442.79,491.75 443.22,491.50 443.65,491.25 444.08,491.00 444.51,490.75 444.94,490.50 445.38,490.24 445.81,489.99 446.24,489.74 446.67,489.49 447.10,489.24 447.53,488.99 447.96,488.74 448.39,488.49 448.82,488.24 449.25,487.99 449.68,487.74 450.11,487.49 450.54,487.24 450.97,486.99 451.40,486.74 451.83,486.49 452.26,486.24 452.69,485.99 453.12,485.74 453.56,485.49 453.99,485.24 454.42,484.99 454.85,484.74 455.28,484.49 455.71,484.24 456.14,484.00 456.57,483.75 457.00,483.50 457.43,483.25 457.86,483.00 458.29,482.75 458.72,482.51 459.15,482.26 459.58,482.01 460.01,481.76 460.44,481.51 460.88,481.27 461.31,481.02 461.74,480.77 462.17,480.53 462.60,480.28 463.03,480.03 463.46,479.79 463.89,479.54 464.32,479.30 464.75,479.05 465.18,478.81 465.61,478.56 466.04,478.32 466.47,478.07 466.90,477.83 467.33,477.59 467.76,477.34 468.19,477.10 468.62,476.86 469.06,476.61 469.49,476.37 469.92,476.13 470.35,475.89 470.78,475.65 471.21,475.41 471.64,475.16 472.07,474.92 472.50,474.68 472.93,474.44 473.36,474.21 473.79,473.97 474.22,473.73 474.65,473.49 475.08,473.25 475.51,473.01 475.94,472.78 476.38,472.54 476.81,472.30 477.24,472.07 477.67,471.83 478.10,471.59 478.53,471.36 478.96,471.12 479.39,470.89 479.82,470.66 480.25,470.42 480.68,470.19 481.11,469.96 481.54,469.72 481.97,469.49 482.40,469.26 482.83,469.03 483.26,468.80 483.69,468.57 484.12,468.34 484.56,468.11 484.99,467.88 485.42,467.65 485.85,467.43 486.28,467.20 486.71,466.97 487.14,466.75 487.57,466.52 488.00,466.29 488.43,466.07 488.86,465.85 489.29,465.62 489.72,465.40 490.15,465.18 490.58,464.95 491.01,464.73 491.44,464.51 491.88,464.29 492.31,464.07 492.74,463.85 493.17,463.63 493.60,463.41 494.03,463.19 494.46,462.98 494.89,462.76 495.32,462.54 495.75,462.33 496.18,462.11 496.61,461.90 497.04,461.68 497.47,461.47 497.90,461.25 498.33,461.04 498.76,460.83 499.19,460.62 499.62,460.41 500.06,460.20 500.49,459.99 500.92,459.78 501.35,459.57 501.78,459.36 502.21,459.16 502.64,458.95 503.07,458.74 503.50,458.54 503.93,458.33 504.36,458.13 504.79,457.93 505.22,457.73 505.65,457.52 506.08,457.32 506.51,457.12 506.94,456.92 507.38,456.72 507.81,456.52 508.24,456.32 508.67,456.13 509.10,455.93 509.53,455.73 509.96,455.54 510.39,455.34 510.82,455.15 511.25,454.96 511.68,454.76 512.11,454.57 512.54,454.38 512.97,454.19 513.40,454.00 513.83,453.81 514.26,453.62 514.69,453.43 515.12,453.25 515.56,453.06 515.99,452.88 516.42,452.69 516.85,452.51 517.28,452.32 517.71,452.14 518.14,451.96 518.57,451.78 519.00,451.60 519.43,451.42 519.86,451.24 520.29,451.06 520.72,450.88 521.15,450.70 521.58,450.53 522.01,450.35 522.44,450.18 522.88,450.00 523.31,449.83 523.74,449.66 524.17,449.49 524.60,449.32 525.03,449.15 525.46,448.98 525.89,448.81 526.32,448.64 526.75,448.48 527.18,448.31 527.61,448.14 528.04,447.98 528.47,447.82 528.90,447.65 529.33,447.49 529.76,447.33 530.19,447.17 530.62,447.01 531.06,446.85 531.49,446.69 531.92,446.53 532.35,446.38 532.78,446.22 533.21,446.07 533.64,445.91 534.07,445.76 534.50,445.61 534.93,445.46 535.36,445.30 535.79,445.15 536.22,445.01 536.65,444.86 537.08,444.71 537.51,444.56 537.94,444.42 538.38,444.27 538.81,444.13 539.24,443.98 539.67,443.84 540.10,443.70 540.53,443.56 540.96,443.42 541.39,443.28 541.82,443.14 542.25,443.00 542.68,442.87 543.11,442.73 543.54,442.60 543.97,442.46 544.40,442.33 544.83,442.20 545.26,442.07 545.69,441.94 546.12,441.81 546.56,441.68 546.99,441.55 547.42,441.42 547.85,441.30 548.28,441.17 548.71,441.05 549.14,440.92 549.57,440.80 550.00,440.68 550.43,440.56 550.86,440.44 551.29,440.32 551.72,440.20 552.15,440.08 552.58,439.96 553.01,439.85 553.44,439.73 553.88,439.62 554.31,439.51 554.74,439.39 555.17,439.28 555.60,439.17 556.03,439.06 556.46,438.95 556.89,438.85 557.32,438.74 557.75,438.63 558.18,438.53 558.61,438.42 559.04,438.32 559.47,438.22 559.90,438.12 560.33,438.01 560.76,437.91 561.19,437.82 561.62,437.72 562.06,437.62 562.49,437.52 562.92,437.43 563.35,437.33 563.78,437.24 564.21,437.15 564.64,437.06 565.07,436.97 565.50,436.88 565.93,436.79 566.36,436.70 566.79,436.61 567.22,436.52 567.65,436.44 568.08,436.35 568.51,436.27 568.94,436.19 569.38,436.11 569.81,436.02 570.24,435.94 570.67,435.86 571.10,435.79 571.53,435.71 571.96,435.63 572.39,435.56 572.82,435.48 573.25,435.41 573.68,435.33 574.11,435.26 574.54,435.19 574.97,435.12 575.40,435.05 575.83,434.98 576.26,434.92 576.69,434.85 577.12,434.78 577.56,434.72 577.99,434.65 578.42,434.59 578.85,434.53 579.28,434.47 579.71,434.41 580.14,434.35 580.57,434.29 581.00,434.23 581.43,434.17 581.86,434.12 582.29,434.06 582.72,434.01 583.15,433.96 583.58,433.90 584.01,433.85 584.44,433.80 584.88,433.75 585.31,433.70 585.74,433.65 586.17,433.61 586.60,433.56 587.03,433.52 587.46,433.47 587.89,433.43 588.32,433.39 588.75,433.34 589.18,433.30 589.61,433.26 590.04,433.22 590.47,433.18 590.90,433.15 591.33,433.11 591.76,433.08 592.19,433.04 592.62,433.01 593.06,432.97 593.49,432.94 593.92,432.91 594.35,432.88 594.78,432.85 595.21,432.82 595.64,432.79 596.07,432.77 596.50,432.74 596.93,432.72 597.36,432.69 597.79,432.67 598.22,432.65 598.65,432.62 599.08,432.60 599.51,432.58 599.94,432.56 600.38,432.55 600.81,432.53 601.24,432.51 601.67,432.50 602.10,432.48 602.53,432.47 602.96,432.45 603.39,432.44 603.82,432.43 604.25,432.42 604.68,432.41 605.11,432.40 605.54,432.39 605.97,432.38 606.40,432.38 606.83,432.37 607.26,432.37 607.69,432.36 608.12,432.36 608.56,432.36 608.99,432.36 609.42,432.36 609.85,432.36 610.28,432.36 610.71,432.36 611.14,432.36 611.57,432.36 612.00,432.37 612.43,432.37 612.86,432.38 613.29,432.39 613.72,432.39 614.15,432.40 614.58,432.41 615.01,432.42 615.44,432.43 615.88,432.44 616.31,432.46 616.74,432.47 617.17,432.48 617.60,432.50 618.03,432.51 618.46,432.53 618.89,432.55 619.32,432.56 619.75,432.58 620.18,432.60 620.61,432.62 621.04,432.64 621.47,432.66 621.90,432.69 622.33,432.71 622.76,432.73 623.19,432.76 623.62,432.78 624.06,432.81 624.49,432.84 624.92,432.86 625.35,432.89 625.78,432.92 626.21,432.95 626.64,432.98 627.07,433.02 627.50,433.05 627.93,433.08 628.36,433.11 628.79,433.15 629.22,433.18 629.65,433.22 630.08,433.26 630.51,433.29 630.94,433.33 631.38,433.37 631.81,433.41 632.24,433.45 632.67,433.49 633.10,433.53 633.53,433.58 633.96,433.62 634.39,433.66 634.82,433.71 635.25,433.75 635.68,433.80 636.11,433.85 636.54,433.89 636.97,433.94 637.40,433.99 637.83,434.04 638.26,434.09 638.69,434.14 639.12,434.19 639.56,434.24 639.99,434.30 640.42,434.35 640.85,434.41 641.28,434.46 641.71,434.52 642.14,434.57 642.57,434.63 643.00,434.69 643.43,434.74 643.86,434.80 644.29,434.86 644.72,434.92 645.15,434.98 645.58,435.05 646.01,435.11 646.44,435.17 646.88,435.23 647.31,435.30 647.74,435.36 648.17,435.43 648.60,435.49 649.03,435.56 649.46,435.63 649.89,435.69 650.32,435.76 650.75,435.83 651.18,435.90 651.61,435.97 652.04,436.04 652.47,436.11 652.90,436.19 653.33,436.26 653.76,436.33 654.19,436.40 654.62,436.48 655.06,436.55 655.49,436.63 655.92,436.70 656.35,436.78 656.78,436.86 657.21,436.94 657.64,437.01 658.07,437.09 658.50,437.17 658.93,437.25 659.36,437.33 659.79,437.41 660.22,437.50 660.65,437.58 661.08,437.66 661.51,437.74 661.94,437.83 662.38,437.91 662.81,438.00 663.24,438.08 663.67,438.17 664.10,438.25 664.53,438.34 664.96,438.43 665.39,438.52 665.82,438.61 666.25,438.69 666.68,438.78 667.11,438.87 667.54,438.96 667.97,439.05 668.40,439.15 668.83,439.24 669.26,439.33 669.69,439.42 670.12,439.52 670.56,439.61 670.99,439.71 671.42,439.80 671.85,439.90 672.28,439.99 672.71,440.09 673.14,440.18 673.57,440.28 674.00,440.38 674.43,440.48 674.86,440.57 675.29,440.67 675.72,440.77 676.15,440.87 676.58,440.97 677.01,441.07 677.44,441.17 677.88,441.28 678.31,441.38 678.74,441.48 679.17,441.58 679.60,441.69 680.03,441.79 680.46,441.89 680.89,442.00 681.32,442.10 681.75,442.21 682.18,442.31 682.61,442.42 683.04,442.52 683.47,442.63 683.90,442.74 684.33,442.84 684.76,442.95 685.19,443.06 685.62,443.17 686.06,443.28 686.49,443.39 686.92,443.50 687.35,443.61 687.78,443.72 688.21,443.83 688.64,443.94 689.07,444.05 689.50,444.16 689.93,444.27 690.36,444.39 690.79,444.50 691.22,444.61 691.65,444.72 692.08,444.84 692.51,444.95 692.94,445.07 693.38,445.18 693.81,445.29 694.24,445.41 694.67,445.53 695.10,445.64 695.53,445.76 695.96,445.87 696.39,445.99 696.82,446.11 697.25,446.22 697.68,446.34 698.11,446.46 698.54,446.58 698.97,446.69 699.40,446.81 699.83,446.93 700.26,447.05 700.69,447.17 701.12,447.29 701.56,447.41 701.99,447.53 702.42,447.65 702.85,447.77 703.28,447.89 703.71,448.01 704.14,448.13 704.57,448.25 705.00,448.38 705.43,448.50 705.86,448.62 706.29,448.74 706.72,448.86 707.15,448.99 707.58,449.11 708.01,449.23 708.44,449.36 708.88,449.48 709.31,449.60 709.74,449.73 710.17,449.85 710.60,449.97 711.03,450.10 711.46,450.22 711.89,450.35 712.32,450.47 712.75,450.60 713.18,450.72 713.61,450.85 714.04,450.97 714.47,451.10 714.90,451.22 715.33,451.35 715.76,451.48 716.19,451.60 716.62,451.73 717.06,451.85 717.49,451.98 717.92,452.11 718.35,452.23 718.78,452.36 719.21,452.49 719.64,452.62 720.07,452.74 720.50,452.87 720.93,453.00 721.36,453.13 721.79,453.25 722.22,453.38 722.65,453.51 723.08,453.64 723.51,453.76 723.94,453.89 724.38,454.02 724.81,454.15 725.24,454.28 725.67,454.41 726.10,454.53 726.53,454.66 726.96,454.79 727.39,454.92 727.82,455.05 728.25,455.18 728.68,455.31 729.11,455.43 729.54,455.56 729.97,455.69 730.40,455.82 730.83,455.95 731.26,456.08 731.69,456.21 732.12,456.34 732.56,456.47 732.99,456.60 733.42,456.72 733.85,456.85 734.28,456.98 734.71,457.11 735.14,457.24 735.57,457.37 736.00,457.50 736.43,457.63 736.86,457.76 737.29,457.89 737.72,458.02 738.15,458.14 738.58,458.27 739.01,458.40 739.44,458.53 739.88,458.66 740.31,458.79 740.74,458.92 741.17,459.05 741.60,459.18 742.03,459.30 742.46,459.43 742.89,459.56 743.32,459.69 743.75,459.82 744.18,459.95 744.61,460.08 745.04,460.20 745.47,460.33 745.90,460.46 746.33,460.59 746.76,460.72 747.19,460.85 747.62,460.97 748.06,461.10 748.49,461.23 748.92,461.36 749.35,461.48 749.78,461.61 750.21,461.74 750.64,461.87 751.07,461.99 751.50,462.12 751.93,462.25 752.36,462.37 752.79,462.50 753.22,462.63 753.65,462.75 754.08,462.88 754.51,463.01 754.94,463.13 755.38,463.26 755.81,463.39 756.24,463.51 756.67,463.64 757.10,463.76 757.53,463.89 757.96,464.01 758.39,464.14 758.82,464.26 759.25,464.39 759.68,464.51 760.11,464.64 760.54,464.76 760.97,464.88 761.40,465.01 761.83,465.13 762.26,465.26 762.69,465.38 763.12,465.50 763.56,465.63 763.99,465.75 764.42,465.87 764.85,465.99 765.28,466.12 765.71,466.24 766.14,466.36 766.57,466.48 767.00,466.60 767.43,466.73 767.86,466.85 768.29,466.97 768.72,467.09 769.15,467.21 769.58,467.33 770.01,467.45 770.44,467.57 770.88,467.69 771.31,467.81 771.74,467.93 772.17,468.05 772.60,468.17 773.03,468.28 773.46,468.40 773.89,468.52 774.32,468.64 774.75,468.76 775.18,468.87 775.61,468.99 776.04,469.11 776.47,469.22 776.90,469.34 777.33,469.46 777.76,469.57 778.19,469.69 778.62,469.80 779.06,469.92 779.49,470.03 779.92,470.15 780.35,470.26 780.78,470.38 781.21,470.49 781.64,470.60 782.07,470.72 782.50,470.83 782.93,470.94 783.36,471.06 783.79,471.17 784.22,471.28 784.65,471.39 785.08,471.50 785.51,471.61 785.94,471.72 786.38,471.84 786.81,471.95 787.24,472.06 787.67,472.16 788.10,472.27 788.53,472.38 788.96,472.49 789.39,472.60 789.82,472.71 790.25,472.82 790.68,472.92 791.11,473.03 791.54,473.14 791.97,473.24 792.40,473.35 792.83,473.46 793.26,473.56 793.69,473.67 794.12,473.77 794.56,473.87 794.99,473.98 795.42,474.08 795.85,474.19 796.28,474.29 796.71,474.39 797.14,474.49 797.57,474.60 798.00,474.70 798.43,474.80 798.86,474.90 799.29,475.00 799.72,475.10 800.15,475.20 800.58,475.30 801.01,475.40 801.44,475.50 801.88,475.60 802.31,475.70 802.74,475.80 803.17,475.89 803.60,475.99 804.03,476.09 804.46,476.18 804.89,476.28 805.32,476.37 805.75,476.47 806.18,476.57 806.61,476.66 807.04,476.75 807.47,476.85 807.90,476.94 808.33,477.03 808.76,477.13 809.19,477.22 809.62,477.31 810.06,477.40 810.49,477.49 810.92,477.58 811.35,477.68 811.78,477.77 812.21,477.85 812.64,477.94 813.07,478.03 813.50,478.12 813.93,478.21 814.36,478.30 814.79,478.38 815.22,478.47 815.65,478.56 816.08,478.64 816.51,478.73 816.94,478.81 817.38,478.90 817.81,478.98 818.24,479.07 818.67,479.15 819.10,479.23 819.53,479.32 819.96,479.40 820.39,479.48 820.82,479.56 821.25,479.64 821.68,479.72 822.11,479.81 822.54,479.89 822.97,479.96 823.40,480.04 823.83,480.12 824.26,480.20 824.69,480.28 825.12,480.36 825.56,480.43 825.99,480.51 826.42,480.58 826.85,480.66 827.28,480.74 827.71,480.81 828.14,480.88 828.57,480.96 829.00,481.03 829.43,481.11 829.86,481.18 830.29,481.25 830.72,481.32 831.15,481.39 831.58,481.46 832.01,481.53 832.44,481.60 832.88,481.67 833.31,481.74 833.74,481.81 834.17,481.88 834.60,481.95 835.03,482.02 835.46,482.08 835.89,482.15 836.32,482.21 836.75,482.28 837.18,482.35 837.61,482.41 838.04,482.47 838.47,482.54 838.90,482.60 839.33,482.66 839.76,482.73 840.19,482.79 840.62,482.85 841.06,482.91 841.49,482.97 841.92,483.03 842.35,483.09 842.78,483.15 843.21,483.21 843.64,483.27 844.07,483.33 844.50,483.38 844.93,483.44 845.36,483.50 845.79,483.55 846.22,483.61 846.65,483.66 847.08,483.72 847.51,483.77 847.94,483.83 848.38,483.88 848.81,483.93 849.24,483.99 849.67,484.04 850.10,484.09 850.53,484.14 850.96,484.19 851.39,484.24 851.82,484.29 852.25,484.34 852.68,484.39 853.11,484.44 853.54,484.48 853.97,484.53 854.40,484.58 854.83,484.63 855.26,484.67 855.69,484.72 856.12,484.76 856.56,484.81 856.99,484.85 857.42,484.89 857.85,484.94 858.28,484.98 858.71,485.02 859.14,485.06 859.57,485.11 860.00,485.15" fill="none" stroke="#2ca02c" stroke-width="2.2"/>
<line x1="880" y1="60" x2="915" y2="60" stroke="#2ca02c" stroke-width="3"/>
<text x="922" y="65" font-family="Arial" font-size="13">Tar1 analytic</text>
<polyline points="85.00,227.11 85.43,229.73 85.86,232.31 86.29,234.85 86.72,237.35 87.15,239.82 87.58,242.25 88.01,244.64 88.44,247.00 88.88,249.32 89.31,251.61 89.74,253.86 90.17,256.07 90.60,258.26 91.03,260.41 91.46,262.53 91.89,264.61 92.32,266.67 92.75,268.69 93.18,270.68 93.61,272.64 94.04,274.57 94.47,276.47 94.90,278.34 95.33,280.18 95.76,281.99 96.19,283.78 96.62,285.54 97.06,287.26 97.49,288.97 97.92,290.64 98.35,292.29 98.78,293.91 99.21,295.51 99.64,297.08 100.07,298.62 100.50,300.14 100.93,301.64 101.36,303.11 101.79,304.56 102.22,305.99 102.65,307.39 103.08,308.77 103.51,310.12 103.94,311.46 104.38,312.77 104.81,314.06 105.24,315.33 105.67,316.58 106.10,317.80 106.53,319.01 106.96,320.20 107.39,321.36 107.82,322.51 108.25,323.64 108.68,324.74 109.11,325.83 109.54,326.90 109.97,327.96 110.40,328.99 110.83,330.01 111.26,331.00 111.69,331.99 112.12,332.95 112.56,333.90 112.99,334.83 113.42,335.74 113.85,336.64 114.28,337.52 114.71,338.39 115.14,339.24 115.57,340.07 116.00,340.89 116.43,341.70 116.86,342.49 117.29,343.27 117.72,344.03 118.15,344.78 118.58,345.51 119.01,346.23 119.44,346.94 119.88,347.63 120.31,348.31 120.74,348.98 121.17,349.64 121.60,350.28 122.03,350.91 122.46,351.53 122.89,352.13 123.32,352.73 123.75,353.31 124.18,353.88 124.61,354.44 125.04,354.99 125.47,355.53 125.90,356.06 126.33,356.57 126.76,357.08 127.19,357.57 127.62,358.06 128.06,358.54 128.49,359.00 128.92,359.46 129.35,359.90 129.78,360.34 130.21,360.77 130.64,361.19 131.07,361.60 131.50,362.00 131.93,362.39 132.36,362.77 132.79,363.15 133.22,363.52 133.65,363.88 134.08,364.23 134.51,364.57 134.94,364.91 135.38,365.23 135.81,365.55 136.24,365.87 136.67,366.17 137.10,366.47 137.53,366.76 137.96,367.04 138.39,367.32 138.82,367.59 139.25,367.86 139.68,368.11 140.11,368.37 140.54,368.61 140.97,368.85 141.40,369.08 141.83,369.31 142.26,369.53 142.69,369.75 143.12,369.95 143.56,370.16 143.99,370.36 144.42,370.55 144.85,370.74 145.28,370.92 145.71,371.10 146.14,371.27 146.57,371.44 147.00,371.60 147.43,371.76 147.86,371.91 148.29,372.06 148.72,372.21 149.15,372.35 149.58,372.48 150.01,372.62 150.44,372.74 150.88,372.87 151.31,372.99 151.74,373.10 152.17,373.22 152.60,373.32 153.03,373.43 153.46,373.53 153.89,373.63 154.32,373.72 154.75,373.81 155.18,373.90 155.61,373.98 156.04,374.07 156.47,374.14 156.90,374.22 157.33,374.29 157.76,374.36 158.19,374.43 158.62,374.49 159.06,374.55 159.49,374.61 159.92,374.66 160.35,374.72 160.78,374.77 161.21,374.82 161.64,374.86 162.07,374.91 162.50,374.95 162.93,374.99 163.36,375.02 163.79,375.06 164.22,375.09 164.65,375.12 165.08,375.15 165.51,375.18 165.94,375.21 166.38,375.23 166.81,375.25 167.24,375.27 167.67,375.29 168.10,375.31 168.53,375.32 168.96,375.34 169.39,375.35 169.82,375.36 170.25,375.37 170.68,375.38 171.11,375.39 171.54,375.40 171.97,375.40 172.40,375.41 172.83,375.41 173.26,375.41 173.69,375.42 174.12,375.42 174.56,375.42 174.99,375.41 175.42,375.41 175.85,375.41 176.28,375.41 176.71,375.40 177.14,375.40 177.57,375.39 178.00,375.39 178.43,375.38 178.86,375.37 179.29,375.36 179.72,375.36 180.15,375.35 180.58,375.34 181.01,375.33 181.44,375.32 181.88,375.31 182.31,375.30 182.74,375.29 183.17,375.28 183.60,375.27 184.03,375.26 184.46,375.24 184.89,375.23 185.32,375.22 185.75,375.21 186.18,375.20 186.61,375.19 187.04,375.18 187.47,375.17 187.90,375.16 188.33,375.14 188.76,375.13 189.19,375.12 189.62,375.11 190.06,375.10 190.49,375.09 190.92,375.08 191.35,375.07 191.78,375.06 192.21,375.06 192.64,375.05 193.07,375.04 193.50,375.03 193.93,375.02 194.36,375.02 194.79,375.01 195.22,375.01 195.65,375.00 196.08,375.00 196.51,374.99 196.94,374.99 197.38,374.99 197.81,374.98 198.24,374.98 198.67,374.98 199.10,374.98 199.53,374.98 199.96,374.98 200.39,374.98 200.82,374.98 201.25,374.99 201.68,374.99 202.11,375.00 202.54,375.00 202.97,375.01 203.40,375.01 203.83,375.02 204.26,375.03 204.69,375.04 205.12,375.05 205.56,375.06 205.99,375.07 206.42,375.09 206.85,375.10 207.28,375.11 207.71,375.13 208.14,375.15 208.57,375.17 209.00,375.18 209.43,375.20 209.86,375.22 210.29,375.25 210.72,375.27 211.15,375.29 211.58,375.32 212.01,375.34 212.44,375.37 212.88,375.40 213.31,375.43 213.74,375.46 214.17,375.49 214.60,375.52 215.03,375.55 215.46,375.59 215.89,375.62 216.32,375.66 216.75,375.70 217.18,375.74 217.61,375.78 218.04,375.82 218.47,375.86 218.90,375.91 219.33,375.95 219.76,376.00 220.19,376.05 220.62,376.09 221.06,376.14 221.49,376.20 221.92,376.25 222.35,376.30 222.78,376.36 223.21,376.41 223.64,376.47 224.07,376.53 224.50,376.59 224.93,376.65 225.36,376.71 225.79,376.78 226.22,376.84 226.65,376.91 227.08,376.97 227.51,377.04 227.94,377.11 228.38,377.19 228.81,377.26 229.24,377.33 229.67,377.41 230.10,377.49 230.53,377.56 230.96,377.64 231.39,377.72 231.82,377.81 232.25,377.89 232.68,377.97 233.11,378.06 233.54,378.15 233.97,378.24 234.40,378.33 234.83,378.42 235.26,378.51 235.69,378.61 236.12,378.70 236.56,378.80 236.99,378.90 237.42,379.00 237.85,379.10 238.28,379.20 238.71,379.30 239.14,379.41 239.57,379.51 240.00,379.62 240.43,379.73 240.86,379.84 241.29,379.95 241.72,380.07 242.15,380.18 242.58,380.30 243.01,380.42 243.44,380.53 243.88,380.65 244.31,380.78 244.74,380.90 245.17,381.02 245.60,381.15 246.03,381.28 246.46,381.40 246.89,381.53 247.32,381.66 247.75,381.80 248.18,381.93 248.61,382.07 249.04,382.20 249.47,382.34 249.90,382.48 250.33,382.62 250.76,382.76 251.19,382.90 251.62,383.05 252.06,383.19 252.49,383.34 252.92,383.49 253.35,383.64 253.78,383.79 254.21,383.94 254.64,384.10 255.07,384.25 255.50,384.41 255.93,384.57 256.36,384.73 256.79,384.89 257.22,385.05 257.65,385.21 258.08,385.38 258.51,385.54 258.94,385.71 259.38,385.88 259.81,386.05 260.24,386.22 260.67,386.39 261.10,386.56 261.53,386.74 261.96,386.91 262.39,387.09 262.82,387.27 263.25,387.45 263.68,387.63 264.11,387.81 264.54,388.00 264.97,388.18 265.40,388.37 265.83,388.55 266.26,388.74 266.69,388.93 267.12,389.12 267.56,389.32 267.99,389.51 268.42,389.70 268.85,389.90 269.28,390.10 269.71,390.29 270.14,390.49 270.57,390.69 271.00,390.90 271.43,391.10 271.86,391.30 272.29,391.51 272.72,391.72 273.15,391.92 273.58,392.13 274.01,392.34 274.44,392.55 274.88,392.77 275.31,392.98 275.74,393.19 276.17,393.41 276.60,393.63 277.03,393.85 277.46,394.06 277.89,394.29 278.32,394.51 278.75,394.73 279.18,394.95 279.61,395.18 280.04,395.40 280.47,395.63 280.90,395.86 281.33,396.09 281.76,396.32 282.19,396.55 282.62,396.78 283.06,397.01 283.49,397.25 283.92,397.48 284.35,397.72 284.78,397.96 285.21,398.19 285.64,398.43 286.07,398.67 286.50,398.92 286.93,399.16 287.36,399.40 287.79,399.65 288.22,399.89 288.65,400.14 289.08,400.38 289.51,400.63 289.94,400.88 290.38,401.13 290.81,401.38 291.24,401.63 291.67,401.89 292.10,402.14 292.53,402.40 292.96,402.65 293.39,402.91 293.82,403.16 294.25,403.42 294.68,403.68 295.11,403.94 295.54,404.20 295.97,404.46 296.40,404.73 296.83,404.99 297.26,405.25 297.69,405.52 298.12,405.79 298.56,406.05 298.99,406.32 299.42,406.59 299.85,406.86 300.28,407.13 300.71,407.40 301.14,407.67 301.57,407.94 302.00,408.21 302.43,408.49 302.86,408.76 303.29,409.04 303.72,409.31 304.15,409.59 304.58,409.87 305.01,410.15 305.44,410.43 305.88,410.71 306.31,410.99 306.74,411.27 307.17,411.55 307.60,411.83 308.03,412.11 308.46,412.40 308.89,412.68 309.32,412.97 309.75,413.25 310.18,413.54 310.61,413.83 311.04,414.11 311.47,414.40 311.90,414.69 312.33,414.98 312.76,415.27 313.19,415.56 313.62,415.85 314.06,416.14 314.49,416.44 314.92,416.73 315.35,417.02 315.78,417.32 316.21,417.61 316.64,417.90 317.07,418.20 317.50,418.50 317.93,418.79 318.36,419.09 318.79,419.39 319.22,419.68 319.65,419.98 320.08,420.28 320.51,420.58 320.94,420.88 321.38,421.18 321.81,421.48 322.24,421.78 322.67,422.09 323.10,422.39 323.53,422.69 323.96,422.99 324.39,423.30 324.82,423.60 325.25,423.90 325.68,424.21 326.11,424.51 326.54,424.82 326.97,425.12 327.40,425.43 327.83,425.74 328.26,426.04 328.69,426.35 329.12,426.66 329.56,426.96 329.99,427.27 330.42,427.58 330.85,427.89 331.28,428.20 331.71,428.50 332.14,428.81 332.57,429.12 333.00,429.43 333.43,429.74 333.86,430.05 334.29,430.36 334.72,430.67 335.15,430.98 335.58,431.30 336.01,431.61 336.44,431.92 336.88,432.23 337.31,432.54 337.74,432.85 338.17,433.17 338.60,433.48 339.03,433.79 339.46,434.10 339.89,434.42 340.32,434.73 340.75,435.04 341.18,435.36 341.61,435.67 342.04,435.98 342.47,436.30 342.90,436.61 343.33,436.92 343.76,437.24 344.19,437.55 344.62,437.86 345.06,438.18 345.49,438.49 345.92,438.81 346.35,439.12 346.78,439.43 347.21,439.75 347.64,440.06 348.07,440.38 348.50,440.69 348.93,441.01 349.36,441.32 349.79,441.63 350.22,441.95 350.65,442.26 351.08,442.58 351.51,442.89 351.94,443.20 352.38,443.52 352.81,443.83 353.24,444.14 353.67,444.46 354.10,444.77 354.53,445.08 354.96,445.40 355.39,445.71 355.82,446.02 356.25,446.34 356.68,446.65 357.11,446.96 357.54,447.28 357.97,447.59 358.40,447.90 358.83,448.21 359.26,448.52 359.69,448.84 360.12,449.15 360.56,449.46 360.99,449.77 361.42,450.08 361.85,450.39 362.28,450.70 362.71,451.01 363.14,451.32 363.57,451.63 364.00,451.94 364.43,452.25 364.86,452.56 365.29,452.87 365.72,453.18 366.15,453.49 366.58,453.79 367.01,454.10 367.44,454.41 367.88,454.72 368.31,455.02 368.74,455.33 369.17,455.64 369.60,455.94 370.03,456.25 370.46,456.55 370.89,456.86 371.32,457.16 371.75,457.47 372.18,457.77 372.61,458.07 373.04,458.38 373.47,458.68 373.90,458.98 374.33,459.28 374.76,459.58 375.19,459.89 375.62,460.19 376.06,460.49 376.49,460.79 376.92,461.09 377.35,461.39 377.78,461.68 378.21,461.98 378.64,462.28 379.07,462.58 379.50,462.87 379.93,463.17 380.36,463.47 380.79,463.76 381.22,464.06 381.65,464.35 382.08,464.64 382.51,464.94 382.94,465.23 383.38,465.52 383.81,465.81 384.24,466.11 384.67,466.40 385.10,466.69 385.53,466.98 385.96,467.27 386.39,467.55 386.82,467.84 387.25,468.13 387.68,468.42 388.11,468.70 388.54,468.99 388.97,469.27 389.40,469.56 389.83,469.84 390.26,470.13 390.69,470.41 391.12,470.69 391.56,470.97 391.99,471.25 392.42,471.53 392.85,471.81 393.28,472.09 393.71,472.37 394.14,472.65 394.57,472.93 395.00,473.20 395.43,473.48 395.86,473.75 396.29,474.03 396.72,474.30 397.15,474.58 397.58,474.85 398.01,475.12 398.44,475.39 398.88,475.66 399.31,475.93 399.74,476.20 400.17,476.47 400.60,476.74 401.03,477.00 401.46,477.27 401.89,477.53 402.32,477.80 402.75,478.06 403.18,478.33 403.61,478.59 404.04,478.85 404.47,479.11 404.90,479.37 405.33,479.63 405.76,479.89 406.19,480.15 406.62,480.40 407.06,480.66 407.49,480.92 407.92,481.17 408.35,481.42 408.78,481.68 409.21,481.93 409.64,482.18 410.07,482.43 410.50,482.68 410.93,482.93 411.36,483.18 411.79,483.43 412.22,483.67 412.65,483.92 413.08,484.16 413.51,484.41 413.94,484.65 414.38,484.89 414.81,485.13 415.24,485.37 415.67,485.61 416.10,485.85 416.53,486.09 416.96,486.33 417.39,486.56 417.82,486.80 418.25,487.03 418.68,487.27 419.11,487.50 419.54,487.73 419.97,487.96 420.40,488.19 420.83,488.42 421.26,488.65 421.69,488.88 422.12,489.10 422.56,489.33 422.99,489.55 423.42,489.78 423.85,490.00 424.28,490.22 424.71,490.44 425.14,490.66 425.57,490.88 426.00,491.10 426.43,491.31 426.86,491.53 427.29,491.75 427.72,491.96 428.15,492.17 428.58,492.38 429.01,492.60 429.44,492.81 429.88,493.02 430.31,493.22 430.74,493.43 431.17,493.64 431.60,493.84 432.03,494.05 432.46,494.25 432.89,494.45 433.32,494.65 433.75,494.85 434.18,495.05 434.61,495.25 435.04,495.45 435.47,495.65 435.90,495.84 436.33,496.04 436.76,496.23 437.19,496.42 437.62,496.61 438.06,496.80 438.49,496.99 438.92,497.18 439.35,497.37 439.78,497.55 440.21,497.74 440.64,497.92 441.07,498.11 441.50,498.29 441.93,498.47 442.36,498.65 442.79,498.83 443.22,499.01 443.65,499.18 444.08,499.36 444.51,499.53 444.94,499.71 445.38,499.88 445.81,500.05 446.24,500.22 446.67,500.39 447.10,500.56 447.53,500.73 447.96,500.89 448.39,501.06 448.82,501.22 449.25,501.38 449.68,501.55 450.11,501.71 450.54,501.87 450.97,502.03 451.40,502.18 451.83,502.34 452.26,502.49 452.69,502.65 453.12,502.80 453.56,502.95 453.99,503.11 454.42,503.26 454.85,503.40 455.28,503.55 455.71,503.70 456.14,503.84 456.57,503.99 457.00,504.13 457.43,504.27 457.86,504.42 458.29,504.56 458.72,504.69 459.15,504.83 459.58,504.97 460.01,505.11 460.44,505.24 460.88,505.37 461.31,505.51 461.74,505.64 462.17,505.77 462.60,505.90 463.03,506.02 463.46,506.15 463.89,506.28 464.32,506.40 464.75,506.52 465.18,506.65 465.61,506.77 466.04,506.89 466.47,507.01 466.90,507.13 467.33,507.24 467.76,507.36 468.19,507.47 468.62,507.59 469.06,507.70 469.49,507.81 469.92,507.92 470.35,508.03 470.78,508.14 471.21,508.24 471.64,508.35 472.07,508.45 472.50,508.56 472.93,508.66 473.36,508.76 473.79,508.86 474.22,508.96 474.65,509.06 475.08,509.15 475.51,509.25 475.94,509.34 476.38,509.44 476.81,509.53 477.24,509.62 477.67,509.71 478.10,509.80 478.53,509.89 478.96,509.97 479.39,510.06 479.82,510.14 480.25,510.23 480.68,510.31 481.11,510.39 481.54,510.47 481.97,510.55 482.40,510.63 482.83,510.70 483.26,510.78 483.69,510.85 484.12,510.92 484.56,511.00 484.99,511.07 485.42,511.14 485.85,511.21 486.28,511.27 486.71,511.34 487.14,511.41 487.57,511.47 488.00,511.53 488.43,511.60 488.86,511.66 489.29,511.72 489.72,511.77 490.15,511.83 490.58,511.89 491.01,511.94 491.44,512.00 491.88,512.05 492.31,512.10 492.74,512.15 493.17,512.20 493.60,512.25 494.03,512.30 494.46,512.35 494.89,512.39 495.32,512.44 495.75,512.48 496.18,512.52 496.61,512.56 497.04,512.60 497.47,512.64 497.90,512.68 498.33,512.72 498.76,512.75 499.19,512.79 499.62,512.82 500.06,512.85 500.49,512.89 500.92,512.92 501.35,512.95 501.78,512.97 502.21,513.00 502.64,513.03 503.07,513.05 503.50,513.08 503.93,513.10 504.36,513.12 504.79,513.14 505.22,513.16 505.65,513.18 506.08,513.20 506.51,513.21 506.94,513.23 507.38,513.24 507.81,513.26 508.24,513.27 508.67,513.28 509.10,513.29 509.53,513.30 509.96,513.31 510.39,513.31 510.82,513.32 511.25,513.33 511.68,513.33 512.11,513.33 512.54,513.33 512.97,513.34 513.40,513.34 513.83,513.33 514.26,513.33 514.69,513.33 515.12,513.32 515.56,513.32 515.99,513.31 516.42,513.31 516.85,513.30 517.28,513.29 517.71,513.28 518.14,513.27 518.57,513.25 519.00,513.24 519.43,513.23 519.86,513.21 520.29,513.19 520.72,513.18 521.15,513.16 521.58,513.14 522.01,513.12 522.44,513.10 522.88,513.08 523.31,513.05 523.74,513.03 524.17,513.00 524.60,512.98 525.03,512.95 525.46,512.92 525.89,512.89 526.32,512.86 526.75,512.83 527.18,512.80 527.61,512.77 528.04,512.73 528.47,512.70 528.90,512.66 529.33,512.63 529.76,512.59 530.19,512.55 530.62,512.51 531.06,512.47 531.49,512.43 531.92,512.39 532.35,512.34 532.78,512.30 533.21,512.26 533.64,512.21 534.07,512.16 534.50,512.12 534.93,512.07 535.36,512.02 535.79,511.97 536.22,511.92 536.65,511.86 537.08,511.81 537.51,511.76 537.94,511.70 538.38,511.65 538.81,511.59 539.24,511.53 539.67,511.47 540.10,511.42 540.53,511.36 540.96,511.29 541.39,511.23 541.82,511.17 542.25,511.11 542.68,511.04 543.11,510.98 543.54,510.91 543.97,510.84 544.40,510.78 544.83,510.71 545.26,510.64 545.69,510.57 546.12,510.50 546.56,510.43 546.99,510.35 547.42,510.28 547.85,510.21 548.28,510.13 548.71,510.06 549.14,509.98 549.57,509.90 550.00,509.82 550.43,509.74 550.86,509.66 551.29,509.58 551.72,509.50 552.15,509.42 552.58,509.34 553.01,509.25 553.44,509.17 553.88,509.08 554.31,509.00 554.74,508.91 555.17,508.82 555.60,508.74 556.03,508.65 556.46,508.56 556.89,508.47 557.32,508.37 557.75,508.28 558.18,508.19 558.61,508.10 559.04,508.00 559.47,507.91 559.90,507.81 560.33,507.72 560.76,507.62 561.19,507.52 561.62,507.42 562.06,507.32 562.49,507.22 562.92,507.12 563.35,507.02 563.78,506.92 564.21,506.82 564.64,506.72 565.07,506.61 565.50,506.51 565.93,506.40 566.36,506.30 566.79,506.19 567.22,506.08 567.65,505.97 568.08,505.87 568.51,505.76 568.94,505.65 569.38,505.54 569.81,505.43 570.24,505.31 570.67,505.20 571.10,505.09 571.53,504.98 571.96,504.86 572.39,504.75 572.82,504.63 573.25,504.52 573.68,504.40 574.11,504.28 574.54,504.17 574.97,504.05 575.40,503.93 575.83,503.81 576.26,503.69 576.69,503.57 577.12,503.45 577.56,503.33 577.99,503.20 578.42,503.08 578.85,502.96 579.28,502.83 579.71,502.71 580.14,502.58 580.57,502.46 581.00,502.33 581.43,502.21 581.86,502.08 582.29,501.95 582.72,501.82 583.15,501.70 583.58,501.57 584.01,501.44 584.44,501.31 584.88,501.18 585.31,501.04 585.74,500.91 586.17,500.78 586.60,500.65 587.03,500.52 587.46,500.38 587.89,500.25 588.32,500.11 588.75,499.98 589.18,499.84 589.61,499.71 590.04,499.57 590.47,499.44 590.90,499.30 591.33,499.16 591.76,499.02 592.19,498.88 592.62,498.75 593.06,498.61 593.49,498.47 593.92,498.33 594.35,498.19 594.78,498.05 595.21,497.90 595.64,497.76 596.07,497.62 596.50,497.48 596.93,497.34 597.36,497.19 597.79,497.05 598.22,496.90 598.65,496.76 599.08,496.62 599.51,496.47 599.94,496.33 600.38,496.18 600.81,496.03 601.24,495.89 601.67,495.74 602.10,495.59 602.53,495.45 602.96,495.30 603.39,495.15 603.82,495.00 604.25,494.85 604.68,494.70 605.11,494.55 605.54,494.41 605.97,494.26 606.40,494.11 606.83,493.95 607.26,493.80 607.69,493.65 608.12,493.50 608.56,493.35 608.99,493.20 609.42,493.05 609.85,492.89 610.28,492.74 610.71,492.59 611.14,492.43 611.57,492.28 612.00,492.13 612.43,491.97 612.86,491.82 613.29,491.67 613.72,491.51 614.15,491.36 614.58,491.20 615.01,491.05 615.44,490.89 615.88,490.73 616.31,490.58 616.74,490.42 617.17,490.27 617.60,490.11 618.03,489.95 618.46,489.80 618.89,489.64 619.32,489.48 619.75,489.32 620.18,489.17 620.61,489.01 621.04,488.85 621.47,488.69 621.90,488.54 622.33,488.38 622.76,488.22 623.19,488.06 623.62,487.90 624.06,487.74 624.49,487.58 624.92,487.42 625.35,487.27 625.78,487.11 626.21,486.95 626.64,486.79 627.07,486.63 627.50,486.47 627.93,486.31 628.36,486.15 628.79,485.99 629.22,485.83 629.65,485.67 630.08,485.51 630.51,485.35 630.94,485.19 631.38,485.03 631.81,484.87 632.24,484.70 632.67,484.54 633.10,484.38 633.53,484.22 633.96,484.06 634.39,483.90 634.82,483.74 635.25,483.58 635.68,483.42 636.11,483.26 636.54,483.10 636.97,482.94 637.40,482.77 637.83,482.61 638.26,482.45 638.69,482.29 639.12,482.13 639.56,481.97 639.99,481.81 640.42,481.65 640.85,481.49 641.28,481.33 641.71,481.16 642.14,481.00 642.57,480.84 643.00,480.68 643.43,480.52 643.86,480.36 644.29,480.20 644.72,480.04 645.15,479.88 645.58,479.72 646.01,479.56 646.44,479.40 646.88,479.24 647.31,479.08 647.74,478.91 648.17,478.75 648.60,478.59 649.03,478.43 649.46,478.27 649.89,478.11 650.32,477.95 650.75,477.80 651.18,477.64 651.61,477.48 652.04,477.32 652.47,477.16 652.90,477.00 653.33,476.84 653.76,476.68 654.19,476.52 654.62,476.36 655.06,476.20 655.49,476.05 655.92,475.89 656.35,475.73 656.78,475.57 657.21,475.41 657.64,475.26 658.07,475.10 658.50,474.94 658.93,474.78 659.36,474.63 659.79,474.47 660.22,474.31 660.65,474.16 661.08,474.00 661.51,473.84 661.94,473.69 662.38,473.53 662.81,473.38 663.24,473.22 663.67,473.07 664.10,472.91 664.53,472.76 664.96,472.60 665.39,472.45 665.82,472.29 666.25,472.14 666.68,471.99 667.11,471.83 667.54,471.68 667.97,471.53 668.40,471.37 668.83,471.22 669.26,471.07 669.69,470.92 670.12,470.76 670.56,470.61 670.99,470.46 671.42,470.31 671.85,470.16 672.28,470.01 672.71,469.86 673.14,469.71 673.57,469.56 674.00,469.41 674.43,469.26 674.86,469.11 675.29,468.96 675.72,468.81 676.15,468.66 676.58,468.52 677.01,468.37 677.44,468.22 677.88,468.07 678.31,467.93 678.74,467.78 679.17,467.64 679.60,467.49 680.03,467.34 680.46,467.20 680.89,467.05 681.32,466.91 681.75,466.77 682.18,466.62 682.61,466.48 683.04,466.33 683.47,466.19 683.90,466.05 684.33,465.91 684.76,465.76 685.19,465.62 685.62,465.48 686.06,465.34 686.49,465.20 686.92,465.06 687.35,464.92 687.78,464.78 688.21,464.64 688.64,464.50 689.07,464.36 689.50,464.23 689.93,464.09 690.36,463.95 690.79,463.81 691.22,463.68 691.65,463.54 692.08,463.41 692.51,463.27 692.94,463.13 693.38,463.00 693.81,462.87 694.24,462.73 694.67,462.60 695.10,462.46 695.53,462.33 695.96,462.20 696.39,462.07 696.82,461.94 697.25,461.81 697.68,461.67 698.11,461.54 698.54,461.41 698.97,461.28 699.40,461.16 699.83,461.03 700.26,460.90 700.69,460.77 701.12,460.64 701.56,460.52 701.99,460.39 702.42,460.26 702.85,460.14 703.28,460.01 703.71,459.89 704.14,459.76 704.57,459.64 705.00,459.52 705.43,459.39 705.86,459.27 706.29,459.15 706.72,459.03 707.15,458.91 707.58,458.79 708.01,458.67 708.44,458.55 708.88,458.43 709.31,458.31 709.74,458.19 710.17,458.07 710.60,457.95 711.03,457.84 711.46,457.72 711.89,457.60 712.32,457.49 712.75,457.37 713.18,457.26 713.61,457.14 714.04,457.03 714.47,456.92 714.90,456.80 715.33,456.69 715.76,456.58 716.19,456.47 716.62,456.36 717.06,456.25 717.49,456.14 717.92,456.03 718.35,455.92 718.78,455.81 719.21,455.70 719.64,455.60 720.07,455.49 720.50,455.38 720.93,455.28 721.36,455.17 721.79,455.07 722.22,454.96 722.65,454.86 723.08,454.76 723.51,454.65 723.94,454.55 724.38,454.45 724.81,454.35 725.24,454.25 725.67,454.15 726.10,454.05 726.53,453.95 726.96,453.85 727.39,453.75 727.82,453.66 728.25,453.56 728.68,453.46 729.11,453.37 729.54,453.27 729.97,453.18 730.40,453.08 730.83,452.99 731.26,452.89 731.69,452.80 732.12,452.71 732.56,452.62 732.99,452.53 733.42,452.44 733.85,452.35 734.28,452.26 734.71,452.17 735.14,452.08 735.57,451.99 736.00,451.90 736.43,451.82 736.86,451.73 737.29,451.65 737.72,451.56 738.15,451.48 738.58,451.39 739.01,451.31 739.44,451.23 739.88,451.14 740.31,451.06 740.74,450.98 741.17,450.90 741.60,450.82 742.03,450.74 742.46,450.66 742.89,450.58 743.32,450.51 743.75,450.43 744.18,450.35 744.61,450.27 745.04,450.20 745.47,450.12 745.90,450.05 746.33,449.98 746.76,449.90 747.19,449.83 747.62,449.76 748.06,449.69 748.49,449.61 748.92,449.54 749.35,449.47 749.78,449.41 750.21,449.34 750.64,449.27 751.07,449.20 751.50,449.13 751.93,449.07 752.36,449.00 752.79,448.94 753.22,448.87 753.65,448.81 754.08,448.74 754.51,448.68 754.94,448.62 755.38,448.56 755.81,448.49 756.24,448.43 756.67,448.37 757.10,448.31 757.53,448.25 757.96,448.20 758.39,448.14 758.82,448.08 759.25,448.02 759.68,447.97 760.11,447.91 760.54,447.86 760.97,447.80 761.40,447.75 761.83,447.70 762.26,447.64 762.69,447.59 763.12,447.54 763.56,447.49 763.99,447.44 764.42,447.39 764.85,447.34 765.28,447.29 765.71,447.24 766.14,447.19 766.57,447.15 767.00,447.10 767.43,447.05 767.86,447.01 768.29,446.96 768.72,446.92 769.15,446.88 769.58,446.83 770.01,446.79 770.44,446.75 770.88,446.71 771.31,446.67 771.74,446.63 772.17,446.59 772.60,446.55 773.03,446.51 773.46,446.47 773.89,446.44 774.32,446.40 774.75,446.36 775.18,446.33 775.61,446.29 776.04,446.26 776.47,446.23 776.90,446.19 777.33,446.16 777.76,446.13 778.19,446.10 778.62,446.07 779.06,446.04 779.49,446.01 779.92,445.98 780.35,445.95 780.78,445.92 781.21,445.89 781.64,445.87 782.07,445.84 782.50,445.81 782.93,445.79 783.36,445.76 783.79,445.74 784.22,445.72 784.65,445.69 785.08,445.67 785.51,445.65 785.94,445.63 786.38,445.61 786.81,445.59 787.24,445.57 787.67,445.55 788.10,445.53 788.53,445.51 788.96,445.49 789.39,445.48 789.82,445.46 790.25,445.45 790.68,445.43 791.11,445.42 791.54,445.40 791.97,445.39 792.40,445.38 792.83,445.36 793.26,445.35 793.69,445.34 794.12,445.33 794.56,445.32 794.99,445.31 795.42,445.30 795.85,445.29 796.28,445.28 796.71,445.28 797.14,445.27 797.57,445.26 798.00,445.26 798.43,445.25 798.86,445.25 799.29,445.24 799.72,445.24 800.15,445.24 800.58,445.23 801.01,445.23 801.44,445.23 801.88,445.23 802.31,445.23 802.74,445.23 803.17,445.23 803.60,445.23 804.03,445.23 804.46,445.23 804.89,445.24 805.32,445.24 805.75,445.24 806.18,445.25 806.61,445.25 807.04,445.26 807.47,445.26 807.90,445.27 808.33,445.28 808.76,445.28 809.19,445.29 809.62,445.30 810.06,445.31 810.49,445.32 810.92,445.33 811.35,445.34 811.78,445.35 812.21,445.36 812.64,445.37 813.07,445.39 813.50,445.40 813.93,445.41 814.36,445.43 814.79,445.44 815.22,445.46 815.65,445.47 816.08,445.49 816.51,445.50 816.94,445.52 817.38,445.54 817.81,445.55 818.24,445.57 818.67,445.59 819.10,445.61 819.53,445.63 819.96,445.65 820.39,445.67 820.82,445.69 821.25,445.71 821.68,445.74 822.11,445.76 822.54,445.78 822.97,445.81 823.40,445.83 823.83,445.85 824.26,445.88 824.69,445.91 825.12,445.93 825.56,445.96 825.99,445.98 826.42,446.01 826.85,446.04 827.28,446.07 827.71,446.10 828.14,446.13 828.57,446.15 829.00,446.18 829.43,446.22 829.86,446.25 830.29,446.28 830.72,446.31 831.15,446.34 831.58,446.37 832.01,446.41 832.44,446.44 832.88,446.47 833.31,446.51 833.74,446.54 834.17,446.58 834.60,446.61 835.03,446.65 835.46,446.69 835.89,446.72 836.32,446.76 836.75,446.80 837.18,446.84 837.61,446.88 838.04,446.92 838.47,446.96 838.90,446.99 839.33,447.04 839.76,447.08 840.19,447.12 840.62,447.16 841.06,447.20 841.49,447.24 841.92,447.29 842.35,447.33 842.78,447.37 843.21,447.42 843.64,447.46 844.07,447.50 844.50,447.55 844.93,447.60 845.36,447.64 845.79,447.69 846.22,447.73 846.65,447.78 847.08,447.83 847.51,447.88 847.94,447.92 848.38,447.97 848.81,448.02 849.24,448.07 849.67,448.12 850.10,448.17 850.53,448.22 850.96,448.27 851.39,448.32 851.82,448.37 852.25,448.42 852.68,448.48 853.11,448.53 853.54,448.58 853.97,448.64 854.40,448.69 854.83,448.74 855.26,448.80 855.69,448.85 856.12,448.91 856.56,448.96 856.99,449.02 857.42,449.07 857.85,449.13 858.28,449.19 858.71,449.24 859.14,449.30 859.57,449.36 860.00,449.41" fill="none" stroke="#1f77b4" stroke-width="2.2"/>
<line x1="880" y1="85" x2="915" y2="85" stroke="#1f77b4" stroke-width="3"/>
<text x="922" y="90" font-family="Arial" font-size="13">Tar2 analytic</text>
<polyline points="85.00,305.86 85.43,309.32 85.86,312.74 86.29,316.12 86.72,319.45 87.15,322.74 87.58,326.00 88.01,329.21 88.44,332.38 88.88,335.52 89.31,338.61 89.74,341.67 90.17,344.69 90.60,347.67 91.03,350.62 91.46,353.53 91.89,356.40 92.32,359.24 92.75,362.04 93.18,364.81 93.61,367.55 94.04,370.25 94.47,372.91 94.90,375.55 95.33,378.15 95.76,380.71 96.19,383.25 96.62,385.75 97.06,388.23 97.49,390.67 97.92,393.08 98.35,395.46 98.78,397.81 99.21,400.13 99.64,402.42 100.07,404.69 100.50,406.92 100.93,409.13 101.36,411.30 101.79,413.45 102.22,415.58 102.65,417.67 103.08,419.74 103.51,421.78 103.94,423.80 104.38,425.79 104.81,427.75 105.24,429.69 105.67,431.61 106.10,433.50 106.53,435.36 106.96,437.21 107.39,439.02 107.82,440.82 108.25,442.59 108.68,444.33 109.11,446.06 109.54,447.76 109.97,449.44 110.40,451.10 110.83,452.73 111.26,454.34 111.69,455.94 112.12,457.51 112.56,459.06 112.99,460.59 113.42,462.10 113.85,463.58 114.28,465.05 114.71,466.50 115.14,467.93 115.57,469.34 116.00,470.73 116.43,472.10 116.86,473.46 117.29,474.79 117.72,476.11 118.15,477.41 118.58,478.69 119.01,479.95 119.44,481.19 119.88,482.42 120.31,483.63 120.74,484.82 121.17,486.00 121.60,487.16 122.03,488.30 122.46,489.43 122.89,490.54 123.32,491.63 123.75,492.71 124.18,493.78 124.61,494.82 125.04,495.86 125.47,496.87 125.90,497.88 126.33,498.86 126.76,499.84 127.19,500.80 127.62,501.74 128.06,502.67 128.49,503.59 128.92,504.49 129.35,505.38 129.78,506.25 130.21,507.11 130.64,507.96 131.07,508.80 131.50,509.62 131.93,510.43 132.36,511.23 132.79,512.01 133.22,512.78 133.65,513.54 134.08,514.29 134.51,515.02 134.94,515.74 135.38,516.45 135.81,517.15 136.24,517.84 136.67,518.52 137.10,519.18 137.53,519.84 137.96,520.48 138.39,521.11 138.82,521.73 139.25,522.34 139.68,522.94 140.11,523.53 140.54,524.10 140.97,524.67 141.40,525.23 141.83,525.77 142.26,526.31 142.69,526.84 143.12,527.36 143.56,527.86 143.99,528.36 144.42,528.85 144.85,529.33 145.28,529.80 145.71,530.26 146.14,530.71 146.57,531.15 147.00,531.58 147.43,532.01 147.86,532.42 148.29,532.83 148.72,533.23 149.15,533.62 149.58,534.00 150.01,534.37 150.44,534.73 150.88,535.09 151.31,535.44 151.74,535.78 152.17,536.11 152.60,536.43 153.03,536.75 153.46,537.06 153.89,537.36 154.32,537.65 154.75,537.94 155.18,538.22 155.61,538.49 156.04,538.75 156.47,539.01 156.90,539.26 157.33,539.50 157.76,539.74 158.19,539.97 158.62,540.19 159.06,540.40 159.49,540.61 159.92,540.81 160.35,541.01 160.78,541.19 161.21,541.38 161.64,541.55 162.07,541.72 162.50,541.88 162.93,542.04 163.36,542.19 163.79,542.34 164.22,542.47 164.65,542.61 165.08,542.73 165.51,542.85 165.94,542.97 166.38,543.08 166.81,543.18 167.24,543.28 167.67,543.37 168.10,543.46 168.53,543.54 168.96,543.62 169.39,543.69 169.82,543.75 170.25,543.81 170.68,543.87 171.11,543.92 171.54,543.96 171.97,544.00 172.40,544.03 172.83,544.06 173.26,544.09 173.69,544.11 174.12,544.12 174.56,544.13 174.99,544.14 175.42,544.14 175.85,544.13 176.28,544.13 176.71,544.11 177.14,544.09 177.57,544.07 178.00,544.05 178.43,544.02 178.86,543.98 179.29,543.94 179.72,543.90 180.15,543.85 180.58,543.80 181.01,543.74 181.44,543.68 181.88,543.62 182.31,543.55 182.74,543.48 183.17,543.40 183.60,543.32 184.03,543.24 184.46,543.15 184.89,543.06 185.32,542.96 185.75,542.86 186.18,542.76 186.61,542.66 187.04,542.55 187.47,542.43 187.90,542.32 188.33,542.20 188.76,542.07 189.19,541.95 189.62,541.82 190.06,541.68 190.49,541.54 190.92,541.40 191.35,541.26 191.78,541.11 192.21,540.96 192.64,540.81 193.07,540.65 193.50,540.50 193.93,540.33 194.36,540.17 194.79,540.00 195.22,539.83 195.65,539.65 196.08,539.48 196.51,539.30 196.94,539.11 197.38,538.93 197.81,538.74 198.24,538.55 198.67,538.36 199.10,538.16 199.53,537.96 199.96,537.76 200.39,537.55 200.82,537.35 201.25,537.14 201.68,536.92 202.11,536.71 202.54,536.49 202.97,536.27 203.40,536.05 203.83,535.83 204.26,535.60 204.69,535.37 205.12,535.14 205.56,534.91 205.99,534.67 206.42,534.43 206.85,534.19 207.28,533.95 207.71,533.70 208.14,533.46 208.57,533.21 209.00,532.96 209.43,532.70 209.86,532.45 210.29,532.19 210.72,531.93 211.15,531.67 211.58,531.41 212.01,531.14 212.44,530.87 212.88,530.60 213.31,530.33 213.74,530.06 214.17,529.79 214.60,529.51 215.03,529.23 215.46,528.95 215.89,528.67 216.32,528.39 216.75,528.10 217.18,527.82 217.61,527.53 218.04,527.24 218.47,526.95 218.90,526.65 219.33,526.36 219.76,526.06 220.19,525.76 220.62,525.46 221.06,525.16 221.49,524.86 221.92,524.56 222.35,524.25 222.78,523.94 223.21,523.64 223.64,523.33 224.07,523.02 224.50,522.70 224.93,522.39 225.36,522.08 225.79,521.76 226.22,521.44 226.65,521.12 227.08,520.80 227.51,520.48 227.94,520.16 228.38,519.84 228.81,519.51 229.24,519.19 229.67,518.86 230.10,518.53 230.53,518.20 230.96,517.87 231.39,517.54 231.82,517.21 232.25,516.87 232.68,516.54 233.11,516.20 233.54,515.87 233.97,515.53 234.40,515.19 234.83,514.85 235.26,514.51 235.69,514.17 236.12,513.83 236.56,513.49 236.99,513.15 237.42,512.80 237.85,512.46 238.28,512.11 238.71,511.76 239.14,511.42 239.57,511.07 240.00,510.72 240.43,510.37 240.86,510.02 241.29,509.67 241.72,509.31 242.15,508.96 242.58,508.61 243.01,508.26 243.44,507.90 243.88,507.55 244.31,507.19 244.74,506.83 245.17,506.48 245.60,506.12 246.03,505.76 246.46,505.40 246.89,505.04 247.32,504.69 247.75,504.33 248.18,503.97 248.61,503.60 249.04,503.24 249.47,502.88 249.90,502.52 250.33,502.16 250.76,501.79 251.19,501.43 251.62,501.07 252.06,500.70 252.49,500.34 252.92,499.97 253.35,499.61 253.78,499.24 254.21,498.88 254.64,498.51 255.07,498.15 255.50,497.78 255.93,497.41 256.36,497.05 256.79,496.68 257.22,496.31 257.65,495.95 258.08,495.58 258.51,495.21 258.94,494.84 259.38,494.48 259.81,494.11 260.24,493.74 260.67,493.37 261.10,493.00 261.53,492.63 261.96,492.27 262.39,491.90 262.82,491.53 263.25,491.16 263.68,490.79 264.11,490.42 264.54,490.05 264.97,489.68 265.40,489.32 265.83,488.95 266.26,488.58 266.69,488.21 267.12,487.84 267.56,487.47 267.99,487.11 268.42,486.74 268.85,486.37 269.28,486.00 269.71,485.63 270.14,485.27 270.57,484.90 271.00,484.53 271.43,484.16 271.86,483.80 272.29,483.43 272.72,483.06 273.15,482.70 273.58,482.33 274.01,481.96 274.44,481.60 274.88,481.23 275.31,480.87 275.74,480.50 276.17,480.14 276.60,479.77 277.03,479.41 277.46,479.05 277.89,478.68 278.32,478.32 278.75,477.96 279.18,477.60 279.61,477.23 280.04,476.87 280.47,476.51 280.90,476.15 281.33,475.79 281.76,475.43 282.19,475.07 282.62,474.71 283.06,474.35 283.49,473.99 283.92,473.64 284.35,473.28 284.78,472.92 285.21,472.56 285.64,472.21 286.07,471.85 286.50,471.50 286.93,471.14 287.36,470.79 287.79,470.44 288.22,470.08 288.65,469.73 289.08,469.38 289.51,469.03 289.94,468.68 290.38,468.33 290.81,467.98 291.24,467.63 291.67,467.28 292.10,466.93 292.53,466.59 292.96,466.24 293.39,465.89 293.82,465.55 294.25,465.20 294.68,464.86 295.11,464.52 295.54,464.17 295.97,463.83 296.40,463.49 296.83,463.15 297.26,462.81 297.69,462.47 298.12,462.13 298.56,461.80 298.99,461.46 299.42,461.12 299.85,460.79 300.28,460.45 300.71,460.12 301.14,459.79 301.57,459.45 302.00,459.12 302.43,458.79 302.86,458.46 303.29,458.13 303.72,457.80 304.15,457.48 304.58,457.15 305.01,456.82 305.44,456.50 305.88,456.17 306.31,455.85 306.74,455.53 307.17,455.21 307.60,454.89 308.03,454.57 308.46,454.25 308.89,453.93 309.32,453.61 309.75,453.30 310.18,452.98 310.61,452.67 311.04,452.35 311.47,452.04 311.90,451.73 312.33,451.42 312.76,451.11 313.19,450.80 313.62,450.49 314.06,450.18 314.49,449.88 314.92,449.57 315.35,449.27 315.78,448.97 316.21,448.66 316.64,448.36 317.07,448.06 317.50,447.76 317.93,447.47 318.36,447.17 318.79,446.87 319.22,446.58 319.65,446.28 320.08,445.99 320.51,445.70 320.94,445.41 321.38,445.12 321.81,444.83 322.24,444.54 322.67,444.26 323.10,443.97 323.53,443.69 323.96,443.40 324.39,443.12 324.82,442.84 325.25,442.56 325.68,442.28 326.11,442.00 326.54,441.73 326.97,441.45 327.40,441.18 327.83,440.90 328.26,440.63 328.69,440.36 329.12,440.09 329.56,439.82 329.99,439.55 330.42,439.29 330.85,439.02 331.28,438.76 331.71,438.49 332.14,438.23 332.57,437.97 333.00,437.71 333.43,437.45 333.86,437.20 334.29,436.94 334.72,436.69 335.15,436.43 335.58,436.18 336.01,435.93 336.44,435.68 336.88,435.43 337.31,435.18 337.74,434.94 338.17,434.69 338.60,434.45 339.03,434.21 339.46,433.96 339.89,433.72 340.32,433.48 340.75,433.25 341.18,433.01 341.61,432.78 342.04,432.54 342.47,432.31 342.90,432.08 343.33,431.85 343.76,431.62 344.19,431.39 344.62,431.16 345.06,430.94 345.49,430.72 345.92,430.49 346.35,430.27 346.78,430.05 347.21,429.83 347.64,429.62 348.07,429.40 348.50,429.18 348.93,428.97 349.36,428.76 349.79,428.55 350.22,428.34 350.65,428.13 351.08,427.92 351.51,427.72 351.94,427.51 352.38,427.31 352.81,427.11 353.24,426.91 353.67,426.71 354.10,426.51 354.53,426.31 354.96,426.12 355.39,425.93 355.82,425.73 356.25,425.54 356.68,425.35 357.11,425.16 357.54,424.98 357.97,424.79 358.40,424.61 358.83,424.42 359.26,424.24 359.69,424.06 360.12,423.88 360.56,423.71 360.99,423.53 361.42,423.35 361.85,423.18 362.28,423.01 362.71,422.84 363.14,422.67 363.57,422.50 364.00,422.33 364.43,422.17 364.86,422.00 365.29,421.84 365.72,421.68 366.15,421.52 366.58,421.36 367.01,421.20 367.44,421.05 367.88,420.89 368.31,420.74 368.74,420.59 369.17,420.44 369.60,420.29 370.03,420.14 370.46,420.00 370.89,419.85 371.32,419.71 371.75,419.57 372.18,419.43 372.61,419.29 373.04,419.15 373.47,419.01 373.90,418.88 374.33,418.74 374.76,418.61 375.19,418.48 375.62,418.35 376.06,418.22 376.49,418.10 376.92,417.97 377.35,417.85 377.78,417.72 378.21,417.60 378.64,417.48 379.07,417.37 379.50,417.25 379.93,417.13 380.36,417.02 380.79,416.91 381.22,416.79 381.65,416.68 382.08,416.58 382.51,416.47 382.94,416.36 383.38,416.26 383.81,416.15 384.24,416.05 384.67,415.95 385.10,415.85 385.53,415.76 385.96,415.66 386.39,415.56 386.82,415.47 387.25,415.38 387.68,415.29 388.11,415.20 388.54,415.11 388.97,415.02 389.40,414.94 389.83,414.86 390.26,414.77 390.69,414.69 391.12,414.61 391.56,414.53 391.99,414.46 392.42,414.38 392.85,414.31 393.28,414.24 393.71,414.16 394.14,414.09 394.57,414.03 395.00,413.96 395.43,413.89 395.86,413.83 396.29,413.76 396.72,413.70 397.15,413.64 397.58,413.58 398.01,413.53 398.44,413.47 398.88,413.41 399.31,413.36 399.74,413.31 400.17,413.26 400.60,413.21 401.03,413.16 401.46,413.11 401.89,413.07 402.32,413.02 402.75,412.98 403.18,412.94 403.61,412.90 404.04,412.86 404.47,412.82 404.90,412.79 405.33,412.75 405.76,412.72 406.19,412.69 406.62,412.66 407.06,412.63 407.49,412.60 407.92,412.57 408.35,412.55 408.78,412.52 409.21,412.50 409.64,412.48 410.07,412.46 410.50,412.44 410.93,412.42 411.36,412.40 411.79,412.39 412.22,412.38 412.65,412.36 413.08,412.35 413.51,412.34 413.94,412.33 414.38,412.33 414.81,412.32 415.24,412.32 415.67,412.31 416.10,412.31 416.53,412.31 416.96,412.31 417.39,412.31 417.82,412.31 418.25,412.32 418.68,412.32 419.11,412.33 419.54,412.34 419.97,412.35 420.40,412.36 420.83,412.37 421.26,412.38 421.69,412.40 422.12,412.41 422.56,412.43 422.99,412.45 423.42,412.47 423.85,412.49 424.28,412.51 424.71,412.53 425.14,412.56 425.57,412.58 426.00,412.61 426.43,412.64 426.86,412.67 427.29,412.70 427.72,412.73 428.15,412.76 428.58,412.80 429.01,412.83 429.44,412.87 429.88,412.91 430.31,412.94 430.74,412.98 431.17,413.03 431.60,413.07 432.03,413.11 432.46,413.16 432.89,413.20 433.32,413.25 433.75,413.30 434.18,413.35 434.61,413.40 435.04,413.45 435.47,413.50 435.90,413.55 436.33,413.61 436.76,413.67 437.19,413.72 437.62,413.78 438.06,413.84 438.49,413.90 438.92,413.96 439.35,414.03 439.78,414.09 440.21,414.16 440.64,414.22 441.07,414.29 441.50,414.36 441.93,414.43 442.36,414.50 442.79,414.57 443.22,414.64 443.65,414.72 444.08,414.79 444.51,414.87 444.94,414.95 445.38,415.02 445.81,415.10 446.24,415.18 446.67,415.26 447.10,415.35 447.53,415.43 447.96,415.51 448.39,415.60 448.82,415.69 449.25,415.77 449.68,415.86 450.11,415.95 450.54,416.04 450.97,416.13 451.40,416.23 451.83,416.32 452.26,416.42 452.69,416.51 453.12,416.61 453.56,416.71 453.99,416.80 454.42,416.90 454.85,417.01 455.28,417.11 455.71,417.21 456.14,417.31 456.57,417.42 457.00,417.52 457.43,417.63 457.86,417.74 458.29,417.84 458.72,417.95 459.15,418.06 459.58,418.18 460.01,418.29 460.44,418.40 460.88,418.51 461.31,418.63 461.74,418.74 462.17,418.86 462.60,418.98 463.03,419.10 463.46,419.22 463.89,419.34 464.32,419.46 464.75,419.58 465.18,419.70 465.61,419.83 466.04,419.95 466.47,420.08 466.90,420.20 467.33,420.33 467.76,420.46 468.19,420.59 468.62,420.72 469.06,420.85 469.49,420.98 469.92,421.11 470.35,421.24 470.78,421.38 471.21,421.51 471.64,421.65 472.07,421.78 472.50,421.92 472.93,422.06 473.36,422.19 473.79,422.33 474.22,422.47 474.65,422.61 475.08,422.76 475.51,422.90 475.94,423.04 476.38,423.19 476.81,423.33 477.24,423.48 477.67,423.62 478.10,423.77 478.53,423.92 478.96,424.06 479.39,424.21 479.82,424.36 480.25,424.51 480.68,424.66 481.11,424.82 481.54,424.97 481.97,425.12 482.40,425.28 482.83,425.43 483.26,425.58 483.69,425.74 484.12,425.90 484.56,426.05 484.99,426.21 485.42,426.37 485.85,426.53 486.28,426.69 486.71,426.85 487.14,427.01 487.57,427.17 488.00,427.34 488.43,427.50 488.86,427.66 489.29,427.83 489.72,427.99 490.15,428.16 490.58,428.32 491.01,428.49 491.44,428.66 491.88,428.82 492.31,428.99 492.74,429.16 493.17,429.33 493.60,429.50 494.03,429.67 494.46,429.84 494.89,430.01 495.32,430.18 495.75,430.36 496.18,430.53 496.61,430.70 497.04,430.88 497.47,431.05 497.90,431.23 498.33,431.40 498.76,431.58 499.19,431.76 499.62,431.93 500.06,432.11 500.49,432.29 500.92,432.47 501.35,432.65 501.78,432.83 502.21,433.01 502.64,433.19 503.07,433.37 503.50,433.55 503.93,433.73 504.36,433.91 504.79,434.10 505.22,434.28 505.65,434.46 506.08,434.65 506.51,434.83 506.94,435.02 507.38,435.20 507.81,435.39 508.24,435.57 508.67,435.76 509.10,435.95 509.53,436.13 509.96,436.32 510.39,436.51 510.82,436.70 511.25,436.88 511.68,437.07 512.11,437.26 512.54,437.45 512.97,437.64 513.40,437.83 513.83,438.02 514.26,438.21 514.69,438.40 515.12,438.59 515.56,438.79 515.99,438.98 516.42,439.17 516.85,439.36 517.28,439.56 517.71,439.75 518.14,439.94 518.57,440.14 519.00,440.33 519.43,440.52 519.86,440.72 520.29,440.91 520.72,441.11 521.15,441.30 521.58,441.50 522.01,441.69 522.44,441.89 522.88,442.09 523.31,442.28 523.74,442.48 524.17,442.68 524.60,442.87 525.03,443.07 525.46,443.27 525.89,443.46 526.32,443.66 526.75,443.86 527.18,444.06 527.61,444.26 528.04,444.45 528.47,444.65 528.90,444.85 529.33,445.05 529.76,445.25 530.19,445.45 530.62,445.65 531.06,445.85 531.49,446.05 531.92,446.25 532.35,446.45 532.78,446.64 533.21,446.84 533.64,447.04 534.07,447.24 534.50,447.44 534.93,447.64 535.36,447.85 535.79,448.05 536.22,448.25 536.65,448.45 537.08,448.65 537.51,448.85 537.94,449.05 538.38,449.25 538.81,449.45 539.24,449.65 539.67,449.85 540.10,450.05 540.53,450.25 540.96,450.45 541.39,450.65 541.82,450.86 542.25,451.06 542.68,451.26 543.11,451.46 543.54,451.66 543.97,451.86 544.40,452.06 544.83,452.26 545.26,452.46 545.69,452.66 546.12,452.86 546.56,453.06 546.99,453.27 547.42,453.47 547.85,453.67 548.28,453.87 548.71,454.07 549.14,454.27 549.57,454.47 550.00,454.67 550.43,454.87 550.86,455.07 551.29,455.27 551.72,455.47 552.15,455.67 552.58,455.87 553.01,456.07 553.44,456.27 553.88,456.47 554.31,456.66 554.74,456.86 555.17,457.06 555.60,457.26 556.03,457.46 556.46,457.66 556.89,457.86 557.32,458.06 557.75,458.25 558.18,458.45 558.61,458.65 559.04,458.85 559.47,459.04 559.90,459.24 560.33,459.44 560.76,459.63 561.19,459.83 561.62,460.03 562.06,460.22 562.49,460.42 562.92,460.62 563.35,460.81 563.78,461.01 564.21,461.20 564.64,461.40 565.07,461.59 565.50,461.79 565.93,461.98 566.36,462.18 566.79,462.37 567.22,462.56 567.65,462.76 568.08,462.95 568.51,463.14 568.94,463.33 569.38,463.53 569.81,463.72 570.24,463.91 570.67,464.10 571.10,464.29 571.53,464.48 571.96,464.67 572.39,464.87 572.82,465.06 573.25,465.25 573.68,465.43 574.11,465.62 574.54,465.81 574.97,466.00 575.40,466.19 575.83,466.38 576.26,466.56 576.69,466.75 577.12,466.94 577.56,467.13 577.99,467.31 578.42,467.50 578.85,467.68 579.28,467.87 579.71,468.05 580.14,468.24 580.57,468.42 581.00,468.61 581.43,468.79 581.86,468.97 582.29,469.15 582.72,469.34 583.15,469.52 583.58,469.70 584.01,469.88 584.44,470.06 584.88,470.24 585.31,470.42 585.74,470.60 586.17,470.78 586.60,470.96 587.03,471.14 587.46,471.32 587.89,471.49 588.32,471.67 588.75,471.85 589.18,472.02 589.61,472.20 590.04,472.37 590.47,472.55 590.90,472.72 591.33,472.90 591.76,473.07 592.19,473.24 592.62,473.42 593.06,473.59 593.49,473.76 593.92,473.93 594.35,474.10 594.78,474.27 595.21,474.44 595.64,474.61 596.07,474.78 596.50,474.95 596.93,475.12 597.36,475.29 597.79,475.45 598.22,475.62 598.65,475.79 599.08,475.95 599.51,476.12 599.94,476.28 600.38,476.44 600.81,476.61 601.24,476.77 601.67,476.93 602.10,477.10 602.53,477.26 602.96,477.42 603.39,477.58 603.82,477.74 604.25,477.90 604.68,478.06 605.11,478.22 605.54,478.37 605.97,478.53 606.40,478.69 606.83,478.84 607.26,479.00 607.69,479.15 608.12,479.31 608.56,479.46 608.99,479.62 609.42,479.77 609.85,479.92 610.28,480.07 610.71,480.22 611.14,480.37 611.57,480.52 612.00,480.67 612.43,480.82 612.86,480.97 613.29,481.12 613.72,481.27 614.15,481.41 614.58,481.56 615.01,481.70 615.44,481.85 615.88,481.99 616.31,482.14 616.74,482.28 617.17,482.42 617.60,482.56 618.03,482.70 618.46,482.85 618.89,482.99 619.32,483.12 619.75,483.26 620.18,483.40 620.61,483.54 621.04,483.68 621.47,483.81 621.90,483.95 622.33,484.08 622.76,484.22 623.19,484.35 623.62,484.48 624.06,484.62 624.49,484.75 624.92,484.88 625.35,485.01 625.78,485.14 626.21,485.27 626.64,485.40 627.07,485.53 627.50,485.65 627.93,485.78 628.36,485.91 628.79,486.03 629.22,486.16 629.65,486.28 630.08,486.41 630.51,486.53 630.94,486.65 631.38,486.77 631.81,486.89 632.24,487.01 632.67,487.13 633.10,487.25 633.53,487.37 633.96,487.49 634.39,487.61 634.82,487.72 635.25,487.84 635.68,487.95 636.11,488.07 636.54,488.18 636.97,488.29 637.40,488.40 637.83,488.52 638.26,488.63 638.69,488.74 639.12,488.85 639.56,488.96 639.99,489.06 640.42,489.17 640.85,489.28 641.28,489.38 641.71,489.49 642.14,489.59 642.57,489.70 643.00,489.80 643.43,489.90 643.86,490.01 644.29,490.11 644.72,490.21 645.15,490.31 645.58,490.41 646.01,490.51 646.44,490.60 646.88,490.70 647.31,490.80 647.74,490.89 648.17,490.99 648.60,491.08 649.03,491.18 649.46,491.27 649.89,491.36 650.32,491.45 650.75,491.54 651.18,491.63 651.61,491.72 652.04,491.81 652.47,491.90 652.90,491.99 653.33,492.07 653.76,492.16 654.19,492.24 654.62,492.33 655.06,492.41 655.49,492.49 655.92,492.58 656.35,492.66 656.78,492.74 657.21,492.82 657.64,492.90 658.07,492.98 658.50,493.06 658.93,493.13 659.36,493.21 659.79,493.29 660.22,493.36 660.65,493.43 661.08,493.51 661.51,493.58 661.94,493.65 662.38,493.72 662.81,493.80 663.24,493.87 663.67,493.94 664.10,494.00 664.53,494.07 664.96,494.14 665.39,494.21 665.82,494.27 666.25,494.34 666.68,494.40 667.11,494.46 667.54,494.53 667.97,494.59 668.40,494.65 668.83,494.71 669.26,494.77 669.69,494.83 670.12,494.89 670.56,494.95 670.99,495.00 671.42,495.06 671.85,495.12 672.28,495.17 672.71,495.22 673.14,495.28 673.57,495.33 674.00,495.38 674.43,495.43 674.86,495.49 675.29,495.54 675.72,495.58 676.15,495.63 676.58,495.68 677.01,495.73 677.44,495.77 677.88,495.82 678.31,495.86 678.74,495.91 679.17,495.95 679.60,496.00 680.03,496.04 680.46,496.08 680.89,496.12 681.32,496.16 681.75,496.20 682.18,496.24 682.61,496.27 683.04,496.31 683.47,496.35 683.90,496.38 684.33,496.42 684.76,496.45 685.19,496.49 685.62,496.52 686.06,496.55 686.49,496.58 686.92,496.61 687.35,496.64 687.78,496.67 688.21,496.70 688.64,496.73 689.07,496.76 689.50,496.78 689.93,496.81 690.36,496.83 690.79,496.86 691.22,496.88 691.65,496.90 692.08,496.93 692.51,496.95 692.94,496.97 693.38,496.99 693.81,497.01 694.24,497.03 694.67,497.05 695.10,497.06 695.53,497.08 695.96,497.10 696.39,497.11 696.82,497.13 697.25,497.14 697.68,497.15 698.11,497.17 698.54,497.18 698.97,497.19 699.40,497.20 699.83,497.21 700.26,497.22 700.69,497.23 701.12,497.24 701.56,497.24 701.99,497.25 702.42,497.26 702.85,497.26 703.28,497.27 703.71,497.27 704.14,497.27 704.57,497.28 705.00,497.28 705.43,497.28 705.86,497.28 706.29,497.28 706.72,497.28 707.15,497.28 707.58,497.28 708.01,497.27 708.44,497.27 708.88,497.27 709.31,497.26 709.74,497.26 710.17,497.25 710.60,497.24 711.03,497.24 711.46,497.23 711.89,497.22 712.32,497.21 712.75,497.20 713.18,497.19 713.61,497.18 714.04,497.17 714.47,497.15 714.90,497.14 715.33,497.13 715.76,497.11 716.19,497.10 716.62,497.08 717.06,497.07 717.49,497.05 717.92,497.03 718.35,497.01 718.78,497.00 719.21,496.98 719.64,496.96 720.07,496.94 720.50,496.92 720.93,496.89 721.36,496.87 721.79,496.85 722.22,496.83 722.65,496.80 723.08,496.78 723.51,496.75 723.94,496.73 724.38,496.70 724.81,496.67 725.24,496.64 725.67,496.62 726.10,496.59 726.53,496.56 726.96,496.53 727.39,496.50 727.82,496.47 728.25,496.43 728.68,496.40 729.11,496.37 729.54,496.34 729.97,496.30 730.40,496.27 730.83,496.23 731.26,496.20 731.69,496.16 732.12,496.12 732.56,496.09 732.99,496.05 733.42,496.01 733.85,495.97 734.28,495.93 734.71,495.89 735.14,495.85 735.57,495.81 736.00,495.77 736.43,495.72 736.86,495.68 737.29,495.64 737.72,495.59 738.15,495.55 738.58,495.50 739.01,495.46 739.44,495.41 739.88,495.37 740.31,495.32 740.74,495.27 741.17,495.22 741.60,495.17 742.03,495.12 742.46,495.07 742.89,495.02 743.32,494.97 743.75,494.92 744.18,494.87 744.61,494.82 745.04,494.77 745.47,494.71 745.90,494.66 746.33,494.60 746.76,494.55 747.19,494.49 747.62,494.44 748.06,494.38 748.49,494.33 748.92,494.27 749.35,494.21 749.78,494.15 750.21,494.09 750.64,494.04 751.07,493.98 751.50,493.92 751.93,493.86 752.36,493.79 752.79,493.73 753.22,493.67 753.65,493.61 754.08,493.55 754.51,493.48 754.94,493.42 755.38,493.36 755.81,493.29 756.24,493.23 756.67,493.16 757.10,493.09 757.53,493.03 757.96,492.96 758.39,492.89 758.82,492.83 759.25,492.76 759.68,492.69 760.11,492.62 760.54,492.55 760.97,492.48 761.40,492.41 761.83,492.34 762.26,492.27 762.69,492.20 763.12,492.13 763.56,492.06 763.99,491.98 764.42,491.91 764.85,491.84 765.28,491.76 765.71,491.69 766.14,491.62 766.57,491.54 767.00,491.47 767.43,491.39 767.86,491.31 768.29,491.24 768.72,491.16 769.15,491.08 769.58,491.01 770.01,490.93 770.44,490.85 770.88,490.77 771.31,490.69 771.74,490.61 772.17,490.53 772.60,490.45 773.03,490.37 773.46,490.29 773.89,490.21 774.32,490.13 774.75,490.05 775.18,489.97 775.61,489.88 776.04,489.80 776.47,489.72 776.90,489.64 777.33,489.55 777.76,489.47 778.19,489.38 778.62,489.30 779.06,489.21 779.49,489.13 779.92,489.04 780.35,488.96 780.78,488.87 781.21,488.79 781.64,488.70 782.07,488.61 782.50,488.53 782.93,488.44 783.36,488.35 783.79,488.26 784.22,488.17 784.65,488.08 785.08,488.00 785.51,487.91 785.94,487.82 786.38,487.73 786.81,487.64 787.24,487.55 787.67,487.46 788.10,487.37 788.53,487.28 788.96,487.18 789.39,487.09 789.82,487.00 790.25,486.91 790.68,486.82 791.11,486.72 791.54,486.63 791.97,486.54 792.40,486.44 792.83,486.35 793.26,486.26 793.69,486.16 794.12,486.07 794.56,485.98 794.99,485.88 795.42,485.79 795.85,485.69 796.28,485.60 796.71,485.50 797.14,485.41 797.57,485.31 798.00,485.21 798.43,485.12 798.86,485.02 799.29,484.92 799.72,484.83 800.15,484.73 800.58,484.63 801.01,484.54 801.44,484.44 801.88,484.34 802.31,484.24 802.74,484.15 803.17,484.05 803.60,483.95 804.03,483.85 804.46,483.75 804.89,483.65 805.32,483.55 805.75,483.46 806.18,483.36 806.61,483.26 807.04,483.16 807.47,483.06 807.90,482.96 808.33,482.86 808.76,482.76 809.19,482.66 809.62,482.56 810.06,482.46 810.49,482.36 810.92,482.26 811.35,482.16 811.78,482.05 812.21,481.95 812.64,481.85 813.07,481.75 813.50,481.65 813.93,481.55 814.36,481.45 814.79,481.35 815.22,481.24 815.65,481.14 816.08,481.04 816.51,480.94 816.94,480.84 817.38,480.73 817.81,480.63 818.24,480.53 818.67,480.43 819.10,480.32 819.53,480.22 819.96,480.12 820.39,480.02 820.82,479.91 821.25,479.81 821.68,479.71 822.11,479.60 822.54,479.50 822.97,479.40 823.40,479.30 823.83,479.19 824.26,479.09 824.69,478.99 825.12,478.88 825.56,478.78 825.99,478.68 826.42,478.57 826.85,478.47 827.28,478.37 827.71,478.26 828.14,478.16 828.57,478.06 829.00,477.95 829.43,477.85 829.86,477.75 830.29,477.64 830.72,477.54 831.15,477.44 831.58,477.33 832.01,477.23 832.44,477.12 832.88,477.02 833.31,476.92 833.74,476.81 834.17,476.71 834.60,476.61 835.03,476.50 835.46,476.40 835.89,476.30 836.32,476.19 836.75,476.09 837.18,475.99 837.61,475.88 838.04,475.78 838.47,475.68 838.90,475.57 839.33,475.47 839.76,475.37 840.19,475.26 840.62,475.16 841.06,475.06 841.49,474.96 841.92,474.85 842.35,474.75 842.78,474.65 843.21,474.54 843.64,474.44 844.07,474.34 844.50,474.24 844.93,474.13 845.36,474.03 845.79,473.93 846.22,473.83 846.65,473.73 847.08,473.62 847.51,473.52 847.94,473.42 848.38,473.32 848.81,473.22 849.24,473.11 849.67,473.01 850.10,472.91 850.53,472.81 850.96,472.71 851.39,472.61 851.82,472.51 852.25,472.41 852.68,472.30 853.11,472.20 853.54,472.10 853.97,472.00 854.40,471.90 854.83,471.80 855.26,471.70 855.69,471.60 856.12,471.50 856.56,471.40 856.99,471.30 857.42,471.20 857.85,471.10 858.28,471.00 858.71,470.91 859.14,470.81 859.57,470.71 860.00,470.61" fill="none" stroke="#ff00cc" stroke-width="2.2"/>
<line x1="880" y1="110" x2="915" y2="110" stroke="#ff00cc" stroke-width="3"/>
<text x="922" y="115" font-family="Arial" font-size="13">Tar3 analytic</text>
</svg>