<svg xmlns="http://www.w3.org/2000/svg" width="1050" height="650" viewBox="0 0 1050 650">
<rect width="100%" height="100%" fill="white"/>
<text x="525.0" y="33" text-anchor="middle" font-family="Arial" font-size="20">current_lammps: analytic Cu kinetic temperatures</text>
<line x1="85" y1="580" x2="860" y2="580" stroke="black"/>
<line x1="85" y1="60" x2="85" y2="580" stroke="black"/>
<text x="525.0" y="628" text-anchor="middle" font-family="Arial" font-size="15">time (ps)</text>
<text x="24" y="325.0" transform="rotate(-90 24 325.0)" text-anchor="middle" font-family="Arial" font-size="15">temperature (K)</text>
<line x1="85.00" y1="60" x2="85.00" y2="580" stroke="#ddd"/>
<text x="85.00" y="602" text-anchor="middle" font-family="Arial" font-size="12">0</text>
<line x1="85" y1="580.00" x2="860" y2="580.00" stroke="#ddd"/>
<text x="75" y="584.00" text-anchor="end" font-family="Arial" font-size="12">63.3</text>
<line x1="278.75" y1="60" x2="278.75" y2="580" stroke="#ddd"/>
<text x="278.75" y="602" text-anchor="middle" font-family="Arial" font-size="12">450</text>
<line x1="85" y1="450.00" x2="860" y2="450.00" stroke="#ddd"/>
<text x="75" y="454.00" text-anchor="end" font-family="Arial" font-size="12">93.0</text>
<line x1="472.50" y1="60" x2="472.50" y2="580" stroke="#ddd"/>
<text x="472.50" y="602" text-anchor="middle" font-family="Arial" font-size="12">900</text>
<line x1="85" y1="320.00" x2="860" y2="320.00" stroke="#ddd"/>
<text x="75" y="324.00" text-anchor="end" font-family="Arial" font-size="12">122.6</text>
<line x1="666.25" y1="60" x2="666.25" y2="580" stroke="#ddd"/>
<text x="666.25" y="602" text-anchor="middle" font-family="Arial" font-size="12">1350</text>
<line x1="85" y1="190.00" x2="860" y2="190.00" stroke="#ddd"/>
<text x="75" y="194.00" text-anchor="end" font-family="Arial" font-size="12">152.2</text>
<line x1="860.00" y1="60" x2="860.00" y2="580" stroke="#ddd"/>
<text x="860.00" y="602" text-anchor="middle" font-family="Arial" font-size="12">1800</text>
<line x1="85" y1="60.00" x2="860" y2="60.00" stroke="#ddd"/>
<text x="75" y="64.00" text-anchor="end" font-family="Arial" font-size="12">181.9</text>
<polyline points="85.00,95.86 85.43,99.40 85.86,102.90 86.29,106.37 86.72,109.79 87.15,113.19 87.58,116.54 88.01,119.86 88.44,123.14 88.88,126.39 89.31,129.61 89.74,132.79 90.17,135.94 90.60,139.05 91.03,142.14 91.46,145.19 91.89,148.21 92.32,151.19 92.75,154.15 93.18,157.08 93.61,159.97 94.04,162.84 94.47,165.68 94.90,168.49 95.33,171.27 95.76,174.02 96.19,176.74 96.62,179.44 97.06,182.11 97.49,184.75 97.92,187.36 98.35,189.95 98.78,192.52 99.21,195.05 99.64,197.57 100.07,200.05 100.50,202.52 100.93,204.96 101.36,207.37 101.79,209.76 102.22,212.13 102.65,214.48 103.08,216.80 103.51,219.10 103.94,221.38 104.38,223.64 104.81,225.87 105.24,228.08 105.67,230.28 106.10,232.45 106.53,234.60 106.96,236.73 107.39,238.84 107.82,240.93 108.25,243.00 108.68,245.05 109.11,247.09 109.54,249.10 109.97,251.10 110.40,253.07 110.83,255.03 111.26,256.98 111.69,258.90 112.12,260.81 112.56,262.69 112.99,264.57 113.42,266.42 113.85,268.26 114.28,270.08 114.71,271.89 115.14,273.68 115.57,275.46 116.00,277.21 116.43,278.96 116.86,280.69 117.29,282.40 117.72,284.10 118.15,285.78 118.58,287.45 119.01,289.11 119.44,290.75 119.88,292.38 120.31,293.99 120.74,295.59 121.17,297.18 121.60,298.76 122.03,300.32 122.46,301.86 122.89,303.40 123.32,304.92 123.75,306.43 124.18,307.93 124.61,309.42 125.04,310.89 125.47,312.35 125.90,313.80 126.33,315.24 126.76,316.67 127.19,318.09 127.62,319.49 128.06,320.89 128.49,322.27 128.92,323.64 129.35,325.01 129.78,326.36 130.21,327.70 130.64,329.03 131.07,330.35 131.50,331.66 131.93,332.96 132.36,334.25 132.79,335.54 133.22,336.81 133.65,338.07 134.08,339.33 134.51,340.57 134.94,341.81 135.38,343.03 135.81,344.25 136.24,345.46 136.67,346.66 137.10,347.85 137.53,349.04 137.96,350.21 138.39,351.38 138.82,352.54 139.25,353.69 139.68,354.83 140.11,355.97 140.54,357.10 140.97,358.22 141.40,359.33 141.83,360.43 142.26,361.53 142.69,362.62 143.12,363.70 143.56,364.78 143.99,365.85 144.42,366.91 144.85,367.96 145.28,369.01 145.71,370.05 146.14,371.09 146.57,372.11 147.00,373.14 147.43,374.15 147.86,375.16 148.29,376.16 148.72,377.16 149.15,378.15 149.58,379.13 150.01,380.11 150.44,381.08 150.88,382.04 151.31,383.00 151.74,383.96 152.17,384.91 152.60,385.85 153.03,386.79 153.46,387.72 153.89,388.64 154.32,389.56 154.75,390.48 155.18,391.39 155.61,392.29 156.04,393.19 156.47,394.09 156.90,394.98 157.33,395.86 157.76,396.74 158.19,397.61 158.62,398.48 159.06,399.35 159.49,400.21 159.92,401.06 160.35,401.91 160.78,402.76 161.21,403.60 161.64,404.44 162.07,405.27 162.50,406.10 162.93,406.92 163.36,407.74 163.79,408.55 164.22,409.36 164.65,410.17 165.08,410.97 165.51,411.77 165.94,412.56 166.38,413.35 166.81,414.13 167.24,414.91 167.67,415.69 168.10,416.46 168.53,417.23 168.96,418.00 169.39,418.76 169.82,419.52 170.25,420.27 170.68,421.02 171.11,421.77 171.54,422.51 171.97,423.25 172.40,423.98 172.83,424.71 173.26,425.44 173.69,426.17 174.12,426.89 174.56,427.61 174.99,428.32 175.42,429.03 175.85,429.74 176.28,430.44 176.71,431.14 177.14,431.84 177.57,432.53 178.00,433.22 178.43,433.91 178.86,434.59 179.29,435.28 179.72,435.95 180.15,436.63 180.58,437.30 181.01,437.97 181.44,438.63 181.88,439.30 182.31,439.95 182.74,440.61 183.17,441.26 183.60,441.91 184.03,442.56 184.46,443.20 184.89,443.85 185.32,444.48 185.75,445.12 186.18,445.75 186.61,446.38 187.04,447.01 187.47,447.63 187.90,448.25 188.33,448.87 188.76,449.49 189.19,450.10 189.62,450.71 190.06,451.32 190.49,451.92 190.92,452.53 191.35,453.13 191.78,453.72 192.21,454.32 192.64,454.91 193.07,455.50 193.50,456.08 193.93,456.67 194.36,457.25 194.79,457.83 195.22,458.40 195.65,458.98 196.08,459.55 196.51,460.12 196.94,460.68 197.38,461.25 197.81,461.81 198.24,462.37 198.67,462.92 199.10,463.48 199.53,464.03 199.96,464.58 200.39,465.12 200.82,465.67 201.25,466.21 201.68,466.75 202.11,467.28 202.54,467.82 202.97,468.35 203.40,468.88 203.83,469.41 204.26,469.93 204.69,470.46 205.12,470.98 205.56,471.50 205.99,472.01 206.42,472.53 206.85,473.04 207.28,473.55 207.71,474.05 208.14,474.56 208.57,475.06 209.00,475.56 209.43,476.06 209.86,476.55 210.29,477.05 210.72,477.54 211.15,478.03 211.58,478.51 212.01,479.00 212.44,479.48 212.88,479.96 213.31,480.44 213.74,480.91 214.17,481.39 214.60,481.86 215.03,482.33 215.46,482.80 215.89,483.26 216.32,483.72 216.75,484.18 217.18,484.64 217.61,485.10 218.04,485.55 218.47,486.01 218.90,486.46 219.33,486.90 219.76,487.35 220.19,487.79 220.62,488.23 221.06,488.67 221.49,489.11 221.92,489.55 222.35,489.98 222.78,490.41 223.21,490.84 223.64,491.27 224.07,491.69 224.50,492.12 224.93,492.54 225.36,492.96 225.79,493.37 226.22,493.79 226.65,494.20 227.08,494.61 227.51,495.02 227.94,495.43 228.38,495.83 228.81,496.23 229.24,496.63 229.67,497.03 230.10,497.43 230.53,497.82 230.96,498.21 231.39,498.60 231.82,498.99 232.25,499.38 232.68,499.76 233.11,500.14 233.54,500.53 233.97,500.90 234.40,501.28 234.83,501.65 235.26,502.03 235.69,502.40 236.12,502.76 236.56,503.13 236.99,503.49 237.42,503.86 237.85,504.22 238.28,504.58 238.71,504.93 239.14,505.29 239.57,505.64 240.00,505.99 240.43,506.34 240.86,506.68 241.29,507.03 241.72,507.37 242.15,507.71 242.58,508.05 243.01,508.38 243.44,508.72 243.88,509.05 244.31,509.38 244.74,509.71 245.17,510.04 245.60,510.36 246.03,510.68 246.46,511.00 246.89,511.32 247.32,511.64 247.75,511.96 248.18,512.27 248.61,512.58 249.04,512.89 249.47,513.19 249.90,513.50 250.33,513.80 250.76,514.10 251.19,514.40 251.62,514.70 252.06,515.00 252.49,515.29 252.92,515.58 253.35,515.87 253.78,516.16 254.21,516.44 254.64,516.73 255.07,517.01 255.50,517.29 255.93,517.57 256.36,517.84 256.79,518.12 257.22,518.39 257.65,518.66 258.08,518.93 258.51,519.19 258.94,519.46 259.38,519.72 259.81,519.98 260.24,520.24 260.67,520.49 261.10,520.75 261.53,521.00 261.96,521.25 262.39,521.50 262.82,521.75 263.25,521.99 263.68,522.24 264.11,522.48 264.54,522.72 264.97,522.95 265.40,523.19 265.83,523.42 266.26,523.65 266.69,523.88 267.12,524.11 267.56,524.34 267.99,524.56 268.42,524.78 268.85,525.00 269.28,525.22 269.71,525.44 270.14,525.65 270.57,525.87 271.00,526.08 271.43,526.28 271.86,526.49 272.29,526.70 272.72,526.90 273.15,527.10 273.58,527.30 274.01,527.50 274.44,527.69 274.88,527.89 275.31,528.08 275.74,528.27 276.17,528.46 276.60,528.64 277.03,528.83 277.46,529.01 277.89,529.19 278.32,529.37 278.75,529.54 279.18,529.72 279.61,529.89 280.04,530.06 280.47,530.23 280.90,530.40 281.33,530.57 281.76,530.73 282.19,530.89 282.62,531.05 283.06,531.21 283.49,531.36 283.92,531.52 284.35,531.67 284.78,531.82 285.21,531.97 285.64,532.12 286.07,532.26 286.50,532.41 286.93,532.55 287.36,532.69 287.79,532.82 288.22,532.96 288.65,533.09 289.08,533.23 289.51,533.36 289.94,533.49 290.38,533.61 290.81,533.74 291.24,533.86 291.67,533.98 292.10,534.10 292.53,534.22 292.96,534.33 293.39,534.45 293.82,534.56 294.25,534.67 294.68,534.78 295.11,534.89 295.54,534.99 295.97,535.09 296.40,535.20 296.83,535.29 297.26,535.39 297.69,535.49 298.12,535.58 298.56,535.68 298.99,535.77 299.42,535.85 299.85,535.94 300.28,536.03 300.71,536.11 301.14,536.19 301.57,536.27 302.00,536.35 302.43,536.43 302.86,536.50 303.29,536.57 303.72,536.65 304.15,536.71 304.58,536.78 305.01,536.85 305.44,536.91 305.88,536.98 306.31,537.04 306.74,537.09 307.17,537.15 307.60,537.21 308.03,537.26 308.46,537.31 308.89,537.36 309.32,537.41 309.75,537.46 310.18,537.50 310.61,537.55 311.04,537.59 311.47,537.63 311.90,537.67 312.33,537.70 312.76,537.74 313.19,537.77 313.62,537.80 314.06,537.83 314.49,537.86 314.92,537.89 315.35,537.91 315.78,537.94 316.21,537.96 316.64,537.98 317.07,538.00 317.50,538.01 317.93,538.03 318.36,538.04 318.79,538.05 319.22,538.06 319.65,538.07 320.08,538.08 320.51,538.08 320.94,538.09 321.38,538.09 321.81,538.09 322.24,538.09 322.67,538.09 323.10,538.08 323.53,538.07 323.96,538.07 324.39,538.06 324.82,538.05 325.25,538.03 325.68,538.02 326.11,538.00 326.54,537.99 326.97,537.97 327.40,537.95 327.83,537.92 328.26,537.90 328.69,537.88 329.12,537.85 329.56,537.82 329.99,537.79 330.42,537.76 330.85,537.73 331.28,537.69 331.71,537.66 332.14,537.62 332.57,537.58 333.00,537.54 333.43,537.50 333.86,537.45 334.29,537.41 334.72,537.36 335.15,537.31 335.58,537.27 336.01,537.21 336.44,537.16 336.88,537.11 337.31,537.05 337.74,537.00 338.17,536.94 338.60,536.88 339.03,536.82 339.46,536.75 339.89,536.69 340.32,536.62 340.75,536.56 341.18,536.49 341.61,536.42 342.04,536.35 342.47,536.27 342.90,536.20 343.33,536.12 343.76,536.05 344.19,535.97 344.62,535.89 345.06,535.81 345.49,535.73 345.92,535.64 346.35,535.56 346.78,535.47 347.21,535.38 347.64,535.29 348.07,535.20 348.50,535.11 348.93,535.02 349.36,534.92 349.79,534.83 350.22,534.73 350.65,534.63 351.08,534.53 351.51,534.43 351.94,534.33 352.38,534.22 352.81,534.12 353.24,534.01 353.67,533.90 354.10,533.79 354.53,533.68 354.96,533.57 355.39,533.46 355.82,533.34 356.25,533.23 356.68,533.11 357.11,532.99 357.54,532.88 357.97,532.76 358.40,532.63 358.83,532.51 359.26,532.39 359.69,532.26 360.12,532.13 360.56,532.01 360.99,531.88 361.42,531.75 361.85,531.62 362.28,531.48 362.71,531.35 363.14,531.22 363.57,531.08 364.00,530.94 364.43,530.80 364.86,530.67 365.29,530.52 365.72,530.38 366.15,530.24 366.58,530.10 367.01,529.95 367.44,529.81 367.88,529.66 368.31,529.51 368.74,529.36 369.17,529.21 369.60,529.06 370.03,528.91 370.46,528.75 370.89,528.60 371.32,528.44 371.75,528.28 372.18,528.13 372.61,527.97 373.04,527.81 373.47,527.65 373.90,527.48 374.33,527.32 374.76,527.16 375.19,526.99 375.62,526.82 376.06,526.66 376.49,526.49 376.92,526.32 377.35,526.15 377.78,525.98 378.21,525.81 378.64,525.63 379.07,525.46 379.50,525.28 379.93,525.11 380.36,524.93 380.79,524.75 381.22,524.57 381.65,524.40 382.08,524.21 382.51,524.03 382.94,523.85 383.38,523.67 383.81,523.48 384.24,523.30 384.67,523.11 385.10,522.93 385.53,522.74 385.96,522.55 386.39,522.36 386.82,522.17 387.25,521.98 387.68,521.79 388.11,521.59 388.54,521.40 388.97,521.21 389.40,521.01 389.83,520.82 390.26,520.62 390.69,520.42 391.12,520.22 391.56,520.02 391.99,519.82 392.42,519.62 392.85,519.42 393.28,519.22 393.71,519.02 394.14,518.81 394.57,518.61 395.00,518.40 395.43,518.20 395.86,517.99 396.29,517.78 396.72,517.58 397.15,517.37 397.58,517.16 398.01,516.95 398.44,516.74 398.88,516.52 399.31,516.31 399.74,516.10 400.17,515.89 400.60,515.67 401.03,515.46 401.46,515.24 401.89,515.03 402.32,514.81 402.75,514.59 403.18,514.37 403.61,514.16 404.04,513.94 404.47,513.72 404.90,513.50 405.33,513.28 405.76,513.05 406.19,512.83 406.62,512.61 407.06,512.39 407.49,512.16 407.92,511.94 408.35,511.71 408.78,511.49 409.21,511.26 409.64,511.04 410.07,510.81 410.50,510.58 410.93,510.35 411.36,510.13 411.79,509.90 412.22,509.67 412.65,509.44 413.08,509.21 413.51,508.98 413.94,508.75 414.38,508.51 414.81,508.28 415.24,508.05 415.67,507.82 416.10,507.58 416.53,507.35 416.96,507.12 417.39,506.88 417.82,506.65 418.25,506.41 418.68,506.18 419.11,505.94 419.54,505.70 419.97,505.47 420.40,505.23 420.83,504.99 421.26,504.75 421.69,504.51 422.12,504.28 422.56,504.04 422.99,503.80 423.42,503.56 423.85,503.32 424.28,503.08 424.71,502.84 425.14,502.60 425.57,502.35 426.00,502.11 426.43,501.87 426.86,501.63 427.29,501.39 427.72,501.14 428.15,500.90 428.58,500.66 429.01,500.42 429.44,500.17 429.88,499.93 430.31,499.68 430.74,499.44 431.17,499.20 431.60,498.95 432.03,498.71 432.46,498.46 432.89,498.22 433.32,497.97 433.75,497.73 434.18,497.48 434.61,497.23 435.04,496.99 435.47,496.74 435.90,496.50 436.33,496.25 436.76,496.00 437.19,495.76 437.62,495.51 438.06,495.26 438.49,495.01 438.92,494.77 439.35,494.52 439.78,494.27 440.21,494.02 440.64,493.78 441.07,493.53 441.50,493.28 441.93,493.03 442.36,492.79 442.79,492.54 443.22,492.29 443.65,492.04 444.08,491.79 444.51,491.55 444.94,491.30 445.38,491.05 445.81,490.80 446.24,490.55 446.67,490.31 447.10,490.06 447.53,489.81 447.96,489.56 448.39,489.31 448.82,489.07 449.25,488.82 449.68,488.57 450.11,488.32 450.54,488.07 450.97,487.83 451.40,487.58 451.83,487.33 452.26,487.08 452.69,486.84 453.12,486.59 453.56,486.34 453.99,486.09 454.42,485.85 454.85,485.60 455.28,485.35 455.71,485.11 456.14,484.86 456.57,484.61 457.00,484.37 457.43,484.12 457.86,483.87 458.29,483.63 458.72,483.38 459.15,483.14 459.58,482.89 460.01,482.64 460.44,482.40 460.88,482.15 461.31,481.91 461.74,481.66 462.17,481.42 462.60,481.18 463.03,480.93 463.46,480.69 463.89,480.44 464.32,480.20 464.75,479.96 465.18,479.71 465.61,479.47 466.04,479.23 466.47,478.99 466.90,478.75 467.33,478.50 467.76,478.26 468.19,478.02 468.62,477.78 469.06,477.54 469.49,477.30 469.92,477.06 470.35,476.82 470.78,476.58 471.21,476.34 471.64,476.10 472.07,475.86 472.50,475.62 472.93,475.39 473.36,475.15 473.79,474.91 474.22,474.67 474.65,474.44 475.08,474.20 475.51,473.97 475.94,473.73 476.38,473.50 476.81,473.26 477.24,473.03 477.67,472.79 478.10,472.56 478.53,472.32 478.96,472.09 479.39,471.86 479.82,471.63 480.25,471.40 480.68,471.16 481.11,470.93 481.54,470.70 481.97,470.47 482.40,470.24 482.83,470.01 483.26,469.78 483.69,469.56 484.12,469.33 484.56,469.10 484.99,468.87 485.42,468.65 485.85,468.42 486.28,468.19 486.71,467.97 487.14,467.74 487.57,467.52 488.00,467.30 488.43,467.07 488.86,466.85 489.29,466.63 489.72,466.41 490.15,466.18 490.58,465.96 491.01,465.74 491.44,465.52 491.88,465.30 492.31,465.09 492.74,464.87 493.17,464.65 493.60,464.43 494.03,464.22 494.46,464.00 494.89,463.78 495.32,463.57 495.75,463.35 496.18,463.14 496.61,462.93 497.04,462.71 497.47,462.50 497.90,462.29 498.33,462.08 498.76,461.87 499.19,461.66 499.62,461.45 500.06,461.24 500.49,461.03 500.92,460.82 501.35,460.62 501.78,460.41 502.21,460.20 502.64,460.00 503.07,459.79 503.50,459.59 503.93,459.39 504.36,459.18 504.79,458.98 505.22,458.78 505.65,458.58 506.08,458.38 506.51,458.18 506.94,457.98 507.38,457.78 507.81,457.59 508.24,457.39 508.67,457.19 509.10,457.00 509.53,456.80 509.96,456.61 510.39,456.41 510.82,456.22 511.25,456.03 511.68,455.84 512.11,455.64 512.54,455.45 512.97,455.26 513.40,455.08 513.83,454.89 514.26,454.70 514.69,454.51 515.12,454.33 515.56,454.14 515.99,453.96 516.42,453.77 516.85,453.59 517.28,453.41 517.71,453.23 518.14,453.04 518.57,452.86 519.00,452.68 519.43,452.50 519.86,452.33 520.29,452.15 520.72,451.97 521.15,451.80 521.58,451.62 522.01,451.45 522.44,451.27 522.88,451.10 523.31,450.93 523.74,450.76 524.17,450.58 524.60,450.41 525.03,450.25 525.46,450.08 525.89,449.91 526.32,449.74 526.75,449.58 527.18,449.41 527.61,449.25 528.04,449.08 528.47,448.92 528.90,448.76 529.33,448.59 529.76,448.43 530.19,448.27 530.62,448.11 531.06,447.96 531.49,447.80 531.92,447.64 532.35,447.49 532.78,447.33 533.21,447.18 533.64,447.02 534.07,446.87 534.50,446.72 534.93,446.57 535.36,446.42 535.79,446.27 536.22,446.12 536.65,445.97 537.08,445.82 537.51,445.68 537.94,445.53 538.38,445.39 538.81,445.24 539.24,445.10 539.67,444.96 540.10,444.82 540.53,444.68 540.96,444.54 541.39,444.40 541.82,444.26 542.25,444.12 542.68,443.99 543.11,443.85 543.54,443.72 543.97,443.58 544.40,443.45 544.83,443.32 545.26,443.19 545.69,443.06 546.12,442.93 546.56,442.80 546.99,442.67 547.42,442.54 547.85,442.42 548.28,442.29 548.71,442.17 549.14,442.04 549.57,441.92 550.00,441.80 550.43,441.68 550.86,441.56 551.29,441.44 551.72,441.32 552.15,441.20 552.58,441.09 553.01,440.97 553.44,440.85 553.88,440.74 554.31,440.63 554.74,440.52 555.17,440.40 555.60,440.29 556.03,440.18 556.46,440.07 556.89,439.97 557.32,439.86 557.75,439.75 558.18,439.65 558.61,439.54 559.04,439.44 559.47,439.34 559.90,439.24 560.33,439.14 560.76,439.04 561.19,438.94 561.62,438.84 562.06,438.74 562.49,438.64 562.92,438.55 563.35,438.45 563.78,438.36 564.21,438.27 564.64,438.18 565.07,438.08 565.50,437.99 565.93,437.90 566.36,437.82 566.79,437.73 567.22,437.64 567.65,437.56 568.08,437.47 568.51,437.39 568.94,437.30 569.38,437.22 569.81,437.14 570.24,437.06 570.67,436.98 571.10,436.90 571.53,436.82 571.96,436.75 572.39,436.67 572.82,436.60 573.25,436.52 573.68,436.45 574.11,436.37 574.54,436.30 574.97,436.23 575.40,436.16 575.83,436.09 576.26,436.03 576.69,435.96 577.12,435.89 577.56,435.83 577.99,435.76 578.42,435.70 578.85,435.64 579.28,435.57 579.71,435.51 580.14,435.45 580.57,435.39 581.00,435.34 581.43,435.28 581.86,435.22 582.29,435.17 582.72,435.11 583.15,435.06 583.58,435.00 584.01,434.95 584.44,434.90 584.88,434.85 585.31,434.80 585.74,434.75 586.17,434.71 586.60,434.66 587.03,434.61 587.46,434.57 587.89,434.52 588.32,434.48 588.75,434.44 589.18,434.40 589.61,434.36 590.04,434.32 590.47,434.28 590.90,434.24 591.33,434.20 591.76,434.16 592.19,434.13 592.62,434.09 593.06,434.06 593.49,434.03 593.92,434.00 594.35,433.96 594.78,433.93 595.21,433.91 595.64,433.88 596.07,433.85 596.50,433.82 596.93,433.80 597.36,433.77 597.79,433.75 598.22,433.72 598.65,433.70 599.08,433.68 599.51,433.66 599.94,433.64 600.38,433.62 600.81,433.60 601.24,433.58 601.67,433.57 602.10,433.55 602.53,433.54 602.96,433.52 603.39,433.51 603.82,433.50 604.25,433.48 604.68,433.47 605.11,433.46 605.54,433.45 605.97,433.45 606.40,433.44 606.83,433.43 607.26,433.43 607.69,433.42 608.12,433.42 608.56,433.41 608.99,433.41 609.42,433.41 609.85,433.41 610.28,433.41 610.71,433.41 611.14,433.41 611.57,433.41 612.00,433.42 612.43,433.42 612.86,433.43 613.29,433.43 613.72,433.44 614.15,433.44 614.58,433.45 615.01,433.46 615.44,433.47 615.88,433.48 616.31,433.49 616.74,433.51 617.17,433.52 617.60,433.53 618.03,433.55 618.46,433.56 618.89,433.58 619.32,433.59 619.75,433.61 620.18,433.63 620.61,433.65 621.04,433.67 621.47,433.69 621.90,433.71 622.33,433.73 622.76,433.75 623.19,433.78 623.62,433.80 624.06,433.83 624.49,433.85 624.92,433.88 625.35,433.91 625.78,433.94 626.21,433.96 626.64,433.99 627.07,434.02 627.50,434.06 627.93,434.09 628.36,434.12 628.79,434.15 629.22,434.19 629.65,434.22 630.08,434.26 630.51,434.29 630.94,434.33 631.38,434.37 631.81,434.41 632.24,434.45 632.67,434.49 633.10,434.53 633.53,434.57 633.96,434.61 634.39,434.65 634.82,434.70 635.25,434.74 635.68,434.78 636.11,434.83 636.54,434.88 636.97,434.92 637.40,434.97 637.83,435.02 638.26,435.07 638.69,435.12 639.12,435.17 639.56,435.22 639.99,435.27 640.42,435.32 640.85,435.37 641.28,435.43 641.71,435.48 642.14,435.54 642.57,435.59 643.00,435.65 643.43,435.71 643.86,435.76 644.29,435.82 644.72,435.88 645.15,435.94 645.58,436.00 646.01,436.06 646.44,436.12 646.88,436.18 647.31,436.25 647.74,436.31 648.17,436.37 648.60,436.44 649.03,436.50 649.46,436.57 649.89,436.64 650.32,436.70 650.75,436.77 651.18,436.84 651.61,436.91 652.04,436.98 652.47,437.05 652.90,437.12 653.33,437.19 653.76,437.26 654.19,437.33 654.62,437.40 655.06,437.48 655.49,437.55 655.92,437.63 656.35,437.70 656.78,437.78 657.21,437.85 657.64,437.93 658.07,438.01 658.50,438.09 658.93,438.16 659.36,438.24 659.79,438.32 660.22,438.40 660.65,438.48 661.08,438.57 661.51,438.65 661.94,438.73 662.38,438.81 662.81,438.90 663.24,438.98 663.67,439.06 664.10,439.15 664.53,439.23 664.96,439.32 665.39,439.41 665.82,439.49 666.25,439.58 666.68,439.67 667.11,439.76 667.54,439.85 667.97,439.94 668.40,440.03 668.83,440.12 669.26,440.21 669.69,440.30 670.12,440.39 670.56,440.48 670.99,440.58 671.42,440.67 671.85,440.76 672.28,440.86 672.71,440.95 673.14,441.05 673.57,441.14 674.00,441.24 674.43,441.34 674.86,441.43 675.29,441.53 675.72,441.63 676.15,441.73 676.58,441.82 677.01,441.92 677.44,442.02 677.88,442.12 678.31,442.22 678.74,442.32 679.17,442.43 679.60,442.53 680.03,442.63 680.46,442.73 680.89,442.83 681.32,442.94 681.75,443.04 682.18,443.15 682.61,443.25 683.04,443.35 683.47,443.46 683.90,443.57 684.33,443.67 684.76,443.78 685.19,443.88 685.62,443.99 686.06,444.10 686.49,444.21 686.92,444.31 687.35,444.42 687.78,444.53 688.21,444.64 688.64,444.75 689.07,444.86 689.50,444.97 689.93,445.08 690.36,445.19 690.79,445.30 691.22,445.41 691.65,445.53 692.08,445.64 692.51,445.75 692.94,445.86 693.38,445.98 693.81,446.09 694.24,446.20 694.67,446.32 695.10,446.43 695.53,446.55 695.96,446.66 696.39,446.78 696.82,446.89 697.25,447.01 697.68,447.12 698.11,447.24 698.54,447.36 698.97,447.47 699.40,447.59 699.83,447.71 700.26,447.82 700.69,447.94 701.12,448.06 701.56,448.18 701.99,448.30 702.42,448.41 702.85,448.53 703.28,448.65 703.71,448.77 704.14,448.89 704.57,449.01 705.00,449.13 705.43,449.25 705.86,449.37 706.29,449.49 706.72,449.61 707.15,449.74 707.58,449.86 708.01,449.98 708.44,450.10 708.88,450.22 709.31,450.35 709.74,450.47 710.17,450.59 710.60,450.71 711.03,450.84 711.46,450.96 711.89,451.08 712.32,451.21 712.75,451.33 713.18,451.45 713.61,451.58 714.04,451.70 714.47,451.82 714.90,451.95 715.33,452.07 715.76,452.20 716.19,452.32 716.62,452.45 717.06,452.57 717.49,452.70 717.92,452.82 718.35,452.95 718.78,453.07 719.21,453.20 719.64,453.33 720.07,453.45 720.50,453.58 720.93,453.70 721.36,453.83 721.79,453.96 722.22,454.08 722.65,454.21 723.08,454.34 723.51,454.46 723.94,454.59 724.38,454.72 724.81,454.84 725.24,454.97 725.67,455.10 726.10,455.22 726.53,455.35 726.96,455.48 727.39,455.61 727.82,455.73 728.25,455.86 728.68,455.99 729.11,456.12 729.54,456.24 729.97,456.37 730.40,456.50 730.83,456.63 731.26,456.75 731.69,456.88 732.12,457.01 732.56,457.14 732.99,457.27 733.42,457.39 733.85,457.52 734.28,457.65 734.71,457.78 735.14,457.91 735.57,458.03 736.00,458.16 736.43,458.29 736.86,458.42 737.29,458.54 737.72,458.67 738.15,458.80 738.58,458.93 739.01,459.06 739.44,459.18 739.88,459.31 740.31,459.44 740.74,459.57 741.17,459.69 741.60,459.82 742.03,459.95 742.46,460.08 742.89,460.21 743.32,460.33 743.75,460.46 744.18,460.59 744.61,460.71 745.04,460.84 745.47,460.97 745.90,461.10 746.33,461.22 746.76,461.35 747.19,461.48 747.62,461.60 748.06,461.73 748.49,461.86 748.92,461.98 749.35,462.11 749.78,462.24 750.21,462.36 750.64,462.49 751.07,462.62 751.50,462.74 751.93,462.87 752.36,462.99 752.79,463.12 753.22,463.24 753.65,463.37 754.08,463.50 754.51,463.62 754.94,463.75 755.38,463.87 755.81,464.00 756.24,464.12 756.67,464.24 757.10,464.37 757.53,464.49 757.96,464.62 758.39,464.74 758.82,464.87 759.25,464.99 759.68,465.11 760.11,465.24 760.54,465.36 760.97,465.48 761.40,465.61 761.83,465.73 762.26,465.85 762.69,465.97 763.12,466.10 763.56,466.22 763.99,466.34 764.42,466.46 764.85,466.58 765.28,466.71 765.71,466.83 766.14,466.95 766.57,467.07 767.00,467.19 767.43,467.31 767.86,467.43 768.29,467.55 768.72,467.67 769.15,467.79 769.58,467.91 770.01,468.03 770.44,468.15 770.88,468.27 771.31,468.38 771.74,468.50 772.17,468.62 772.60,468.74 773.03,468.86 773.46,468.97 773.89,469.09 774.32,469.21 774.75,469.33 775.18,469.44 775.61,469.56 776.04,469.67 776.47,469.79 776.90,469.91 777.33,470.02 777.76,470.14 778.19,470.25 778.62,470.37 779.06,470.48 779.49,470.59 779.92,470.71 780.35,470.82 780.78,470.94 781.21,471.05 781.64,471.16 782.07,471.27 782.50,471.39 782.93,471.50 783.36,471.61 783.79,471.72 784.22,471.83 784.65,471.94 785.08,472.05 785.51,472.16 785.94,472.27 786.38,472.38 786.81,472.49 787.24,472.60 787.67,472.71 788.10,472.82 788.53,472.93 788.96,473.04 789.39,473.14 789.82,473.25 790.25,473.36 790.68,473.47 791.11,473.57 791.54,473.68 791.97,473.78 792.40,473.89 792.83,473.99 793.26,474.10 793.69,474.20 794.12,474.31 794.56,474.41 794.99,474.52 795.42,474.62 795.85,474.72 796.28,474.82 796.71,474.93 797.14,475.03 797.57,475.13 798.00,475.23 798.43,475.33 798.86,475.43 799.29,475.53 799.72,475.63 800.15,475.73 800.58,475.83 801.01,475.93 801.44,476.03 801.88,476.13 802.31,476.22 802.74,476.32 803.17,476.42 803.60,476.52 804.03,476.61 804.46,476.71 804.89,476.80 805.32,476.90 805.75,476.99 806.18,477.09 806.61,477.18 807.04,477.28 807.47,477.37 807.90,477.46 808.33,477.55 808.76,477.65 809.19,477.74 809.62,477.83 810.06,477.92 810.49,478.01 810.92,478.10 811.35,478.19 811.78,478.28 812.21,478.37 812.64,478.46 813.07,478.55 813.50,478.64 813.93,478.72 814.36,478.81 814.79,478.90 815.22,478.99 815.65,479.07 816.08,479.16 816.51,479.24 816.94,479.33 817.38,479.41 817.81,479.50 818.24,479.58 818.67,479.66 819.10,479.75 819.53,479.83 819.96,479.91 820.39,479.99 820.82,480.07 821.25,480.15 821.68,480.23 822.11,480.31 822.54,480.39 822.97,480.47 823.40,480.55 823.83,480.63 824.26,480.71 824.69,480.79 825.12,480.86 825.56,480.94 825.99,481.02 826.42,481.09 826.85,481.17 827.28,481.24 827.71,481.32 828.14,481.39 828.57,481.46 829.00,481.54 829.43,481.61 829.86,481.68 830.29,481.76 830.72,481.83 831.15,481.90 831.58,481.97 832.01,482.04 832.44,482.11 832.88,482.18 833.31,482.25 833.74,482.32 834.17,482.38 834.60,482.45 835.03,482.52 835.46,482.59 835.89,482.65 836.32,482.72 836.75,482.78 837.18,482.85 837.61,482.91 838.04,482.98 838.47,483.04 838.90,483.10 839.33,483.17 839.76,483.23 840.19,483.29 840.62,483.35 841.06,483.41 841.49,483.47 841.92,483.53 842.35,483.59 842.78,483.65 843.21,483.71 843.64,483.77 844.07,483.83 844.50,483.89 844.93,483.94 845.36,484.00 845.79,484.06 846.22,484.11 846.65,484.17 847.08,484.22 847.51,484.28 847.94,484.33 848.38,484.38 848.81,484.44 849.24,484.49 849.67,484.54 850.10,484.59 850.53,484.64 850.96,484.69 851.39,484.74 851.82,484.79 852.25,484.84 852.68,484.89 853.11,484.94 853.54,484.99 853.97,485.04 854.40,485.08 854.83,485.13 855.26,485.18 855.69,485.22 856.12,485.27 856.56,485.31 856.99,485.36 857.42,485.40 857.85,485.44 858.28,485.49 858.71,485.53 859.14,485.57 859.57,485.61 860.00,485.65" fill="none" stroke="#2ca02c" stroke-width="2.2"/>
<line x1="880" y1="60" x2="915" y2="60" stroke="#2ca02c" stroke-width="3"/>
<text x="922" y="65" font-family="Arial" font-size="13">Tnp1 analytic</text>
<polyline points="85.00,226.96 85.43,229.60 85.86,232.20 86.29,234.76 86.72,237.28 87.15,239.77 87.58,242.22 88.01,244.63 88.44,247.01 88.88,249.35 89.31,251.66 89.74,253.93 90.17,256.17 90.60,258.37 91.03,260.54 91.46,262.68 91.89,264.78 92.32,266.85 92.75,268.89 93.18,270.90 93.61,272.88 94.04,274.83 94.47,276.75 94.90,278.63 95.33,280.49 95.76,282.32 96.19,284.12 96.62,285.90 97.06,287.64 97.49,289.36 97.92,291.05 98.35,292.71 98.78,294.35 99.21,295.96 99.64,297.55 100.07,299.11 100.50,300.65 100.93,302.16 101.36,303.64 101.79,305.11 102.22,306.55 102.65,307.96 103.08,309.36 103.51,310.73 103.94,312.07 104.38,313.40 104.81,314.70 105.24,315.99 105.67,317.25 106.10,318.49 106.53,319.71 106.96,320.90 107.39,322.08 107.82,323.24 108.25,324.38 108.68,325.50 109.11,326.60 109.54,327.69 109.97,328.75 110.40,329.80 110.83,330.82 111.26,331.83 111.69,332.83 112.12,333.80 112.56,334.76 112.99,335.70 113.42,336.63 113.85,337.54 114.28,338.43 114.71,339.31 115.14,340.17 115.57,341.01 116.00,341.84 116.43,342.66 116.86,343.46 117.29,344.24 117.72,345.02 118.15,345.77 118.58,346.52 119.01,347.25 119.44,347.96 119.88,348.67 120.31,349.36 120.74,350.03 121.17,350.70 121.60,351.35 122.03,351.99 122.46,352.61 122.89,353.23 123.32,353.83 123.75,354.42 124.18,355.00 124.61,355.57 125.04,356.13 125.47,356.67 125.90,357.21 126.33,357.73 126.76,358.25 127.19,358.75 127.62,359.24 128.06,359.73 128.49,360.20 128.92,360.66 129.35,361.12 129.78,361.56 130.21,361.99 130.64,362.42 131.07,362.84 131.50,363.24 131.93,363.64 132.36,364.03 132.79,364.42 133.22,364.79 133.65,365.15 134.08,365.51 134.51,365.86 134.94,366.20 135.38,366.54 135.81,366.86 136.24,367.18 136.67,367.49 137.10,367.79 137.53,368.09 137.96,368.38 138.39,368.66 138.82,368.94 139.25,369.21 139.68,369.47 140.11,369.73 140.54,369.98 140.97,370.22 141.40,370.46 141.83,370.69 142.26,370.92 142.69,371.14 143.12,371.35 143.56,371.56 143.99,371.76 144.42,371.96 144.85,372.15 145.28,372.34 145.71,372.52 146.14,372.70 146.57,372.87 147.00,373.04 147.43,373.20 147.86,373.36 148.29,373.51 148.72,373.66 149.15,373.81 149.58,373.95 150.01,374.08 150.44,374.21 150.88,374.34 151.31,374.46 151.74,374.58 152.17,374.70 152.60,374.81 153.03,374.92 153.46,375.02 153.89,375.12 154.32,375.22 154.75,375.31 155.18,375.40 155.61,375.49 156.04,375.58 156.47,375.66 156.90,375.73 157.33,375.81 157.76,375.88 158.19,375.95 158.62,376.02 159.06,376.08 159.49,376.14 159.92,376.20 160.35,376.25 160.78,376.31 161.21,376.36 161.64,376.41 162.07,376.45 162.50,376.50 162.93,376.54 163.36,376.58 163.79,376.61 164.22,376.65 164.65,376.68 165.08,376.71 165.51,376.74 165.94,376.77 166.38,376.80 166.81,376.82 167.24,376.84 167.67,376.86 168.10,376.88 168.53,376.90 168.96,376.92 169.39,376.93 169.82,376.94 170.25,376.96 170.68,376.97 171.11,376.98 171.54,376.98 171.97,376.99 172.40,377.00 172.83,377.00 173.26,377.00 173.69,377.01 174.12,377.01 174.56,377.01 174.99,377.01 175.42,377.01 175.85,377.01 176.28,377.00 176.71,377.00 177.14,377.00 177.57,376.99 178.00,376.99 178.43,376.98 178.86,376.97 179.29,376.97 179.72,376.96 180.15,376.95 180.58,376.94 181.01,376.93 181.44,376.92 181.88,376.91 182.31,376.90 182.74,376.89 183.17,376.88 183.60,376.87 184.03,376.86 184.46,376.85 184.89,376.84 185.32,376.83 185.75,376.82 186.18,376.81 186.61,376.80 187.04,376.79 187.47,376.77 187.90,376.76 188.33,376.75 188.76,376.74 189.19,376.73 189.62,376.72 190.06,376.71 190.49,376.70 190.92,376.69 191.35,376.68 191.78,376.67 192.21,376.66 192.64,376.65 193.07,376.65 193.50,376.64 193.93,376.63 194.36,376.62 194.79,376.62 195.22,376.61 195.65,376.60 196.08,376.60 196.51,376.59 196.94,376.59 197.38,376.59 197.81,376.58 198.24,376.58 198.67,376.58 199.10,376.58 199.53,376.58 199.96,376.58 200.39,376.58 200.82,376.58 201.25,376.58 201.68,376.58 202.11,376.59 202.54,376.59 202.97,376.60 203.40,376.60 203.83,376.61 204.26,376.62 204.69,376.62 205.12,376.63 205.56,376.64 205.99,376.65 206.42,376.67 206.85,376.68 207.28,376.69 207.71,376.71 208.14,376.72 208.57,376.74 209.00,376.76 209.43,376.77 209.86,376.79 210.29,376.81 210.72,376.83 211.15,376.86 211.58,376.88 212.01,376.90 212.44,376.93 212.88,376.96 213.31,376.98 213.74,377.01 214.17,377.04 214.60,377.07 215.03,377.10 215.46,377.14 215.89,377.17 216.32,377.21 216.75,377.24 217.18,377.28 217.61,377.32 218.04,377.36 218.47,377.40 218.90,377.44 219.33,377.48 219.76,377.53 220.19,377.57 220.62,377.62 221.06,377.67 221.49,377.72 221.92,377.77 222.35,377.82 222.78,377.87 223.21,377.93 223.64,377.98 224.07,378.04 224.50,378.10 224.93,378.16 225.36,378.22 225.79,378.28 226.22,378.34 226.65,378.41 227.08,378.47 227.51,378.54 227.94,378.61 228.38,378.68 228.81,378.75 229.24,378.82 229.67,378.89 230.10,378.97 230.53,379.04 230.96,379.12 231.39,379.20 231.82,379.28 232.25,379.36 232.68,379.44 233.11,379.52 233.54,379.61 233.97,379.70 234.40,379.78 234.83,379.87 235.26,379.96 235.69,380.05 236.12,380.15 236.56,380.24 236.99,380.34 237.42,380.43 237.85,380.53 238.28,380.63 238.71,380.73 239.14,380.84 239.57,380.94 240.00,381.05 240.43,381.15 240.86,381.26 241.29,381.37 241.72,381.48 242.15,381.59 242.58,381.71 243.01,381.82 243.44,381.94 243.88,382.05 244.31,382.17 244.74,382.29 245.17,382.41 245.60,382.54 246.03,382.66 246.46,382.79 246.89,382.91 247.32,383.04 247.75,383.17 248.18,383.30 248.61,383.43 249.04,383.57 249.47,383.70 249.90,383.84 250.33,383.98 250.76,384.11 251.19,384.25 251.62,384.40 252.06,384.54 252.49,384.68 252.92,384.83 253.35,384.98 253.78,385.12 254.21,385.27 254.64,385.42 255.07,385.58 255.50,385.73 255.93,385.88 256.36,386.04 256.79,386.20 257.22,386.36 257.65,386.52 258.08,386.68 258.51,386.84 258.94,387.00 259.38,387.17 259.81,387.33 260.24,387.50 260.67,387.67 261.10,387.84 261.53,388.01 261.96,388.19 262.39,388.36 262.82,388.54 263.25,388.71 263.68,388.89 264.11,389.07 264.54,389.25 264.97,389.43 265.40,389.61 265.83,389.80 266.26,389.98 266.69,390.17 267.12,390.36 267.56,390.55 267.99,390.74 268.42,390.93 268.85,391.12 269.28,391.31 269.71,391.51 270.14,391.71 270.57,391.90 271.00,392.10 271.43,392.30 271.86,392.50 272.29,392.70 272.72,392.91 273.15,393.11 273.58,393.32 274.01,393.52 274.44,393.73 274.88,393.94 275.31,394.15 275.74,394.36 276.17,394.57 276.60,394.79 277.03,395.00 277.46,395.22 277.89,395.44 278.32,395.65 278.75,395.87 279.18,396.09 279.61,396.31 280.04,396.54 280.47,396.76 280.90,396.98 281.33,397.21 281.76,397.44 282.19,397.66 282.62,397.89 283.06,398.12 283.49,398.35 283.92,398.58 284.35,398.82 284.78,399.05 285.21,399.29 285.64,399.52 286.07,399.76 286.50,400.00 286.93,400.24 287.36,400.48 287.79,400.72 288.22,400.96 288.65,401.20 289.08,401.44 289.51,401.69 289.94,401.93 290.38,402.18 290.81,402.43 291.24,402.68 291.67,402.93 292.10,403.18 292.53,403.43 292.96,403.68 293.39,403.93 293.82,404.19 294.25,404.44 294.68,404.70 295.11,404.95 295.54,405.21 295.97,405.47 296.40,405.73 296.83,405.99 297.26,406.25 297.69,406.51 298.12,406.77 298.56,407.04 298.99,407.30 299.42,407.56 299.85,407.83 300.28,408.10 300.71,408.36 301.14,408.63 301.57,408.90 302.00,409.17 302.43,409.44 302.86,409.71 303.29,409.98 303.72,410.26 304.15,410.53 304.58,410.80 305.01,411.08 305.44,411.35 305.88,411.63 306.31,411.91 306.74,412.18 307.17,412.46 307.60,412.74 308.03,413.02 308.46,413.30 308.89,413.58 309.32,413.86 309.75,414.15 310.18,414.43 310.61,414.71 311.04,415.00 311.47,415.28 311.90,415.57 312.33,415.85 312.76,416.14 313.19,416.43 313.62,416.71 314.06,417.00 314.49,417.29 314.92,417.58 315.35,417.87 315.78,418.16 316.21,418.45 316.64,418.74 317.07,419.03 317.50,419.33 317.93,419.62 318.36,419.91 318.79,420.21 319.22,420.50 319.65,420.80 320.08,421.09 320.51,421.39 320.94,421.69 321.38,421.98 321.81,422.28 322.24,422.58 322.67,422.88 323.10,423.17 323.53,423.47 323.96,423.77 324.39,424.07 324.82,424.37 325.25,424.67 325.68,424.97 326.11,425.28 326.54,425.58 326.97,425.88 327.40,426.18 327.83,426.49 328.26,426.79 328.69,427.09 329.12,427.40 329.56,427.70 329.99,428.00 330.42,428.31 330.85,428.61 331.28,428.92 331.71,429.23 332.14,429.53 332.57,429.84 333.00,430.14 333.43,430.45 333.86,430.76 334.29,431.07 334.72,431.37 335.15,431.68 335.58,431.99 336.01,432.30 336.44,432.60 336.88,432.91 337.31,433.22 337.74,433.53 338.17,433.84 338.60,434.15 339.03,434.46 339.46,434.77 339.89,435.08 340.32,435.39 340.75,435.70 341.18,436.01 341.61,436.32 342.04,436.63 342.47,436.94 342.90,437.25 343.33,437.56 343.76,437.87 344.19,438.18 344.62,438.49 345.06,438.80 345.49,439.11 345.92,439.42 346.35,439.74 346.78,440.05 347.21,440.36 347.64,440.67 348.07,440.98 348.50,441.29 348.93,441.60 349.36,441.91 349.79,442.22 350.22,442.54 350.65,442.85 351.08,443.16 351.51,443.47 351.94,443.78 352.38,444.09 352.81,444.40 353.24,444.71 353.67,445.02 354.10,445.33 354.53,445.64 354.96,445.95 355.39,446.26 355.82,446.58 356.25,446.89 356.68,447.20 357.11,447.51 357.54,447.81 357.97,448.12 358.40,448.43 358.83,448.74 359.26,449.05 359.69,449.36 360.12,449.67 360.56,449.98 360.99,450.29 361.42,450.60 361.85,450.90 362.28,451.21 362.71,451.52 363.14,451.83 363.57,452.13 364.00,452.44 364.43,452.75 364.86,453.05 365.29,453.36 365.72,453.67 366.15,453.97 366.58,454.28 367.01,454.58 367.44,454.89 367.88,455.19 368.31,455.50 368.74,455.80 369.17,456.10 369.60,456.41 370.03,456.71 370.46,457.01 370.89,457.32 371.32,457.62 371.75,457.92 372.18,458.22 372.61,458.52 373.04,458.82 373.47,459.12 373.90,459.42 374.33,459.72 374.76,460.02 375.19,460.32 375.62,460.62 376.06,460.92 376.49,461.21 376.92,461.51 377.35,461.81 377.78,462.10 378.21,462.40 378.64,462.69 379.07,462.99 379.50,463.28 379.93,463.58 380.36,463.87 380.79,464.17 381.22,464.46 381.65,464.75 382.08,465.04 382.51,465.33 382.94,465.62 383.38,465.91 383.81,466.20 384.24,466.49 384.67,466.78 385.10,467.07 385.53,467.36 385.96,467.64 386.39,467.93 386.82,468.22 387.25,468.50 387.68,468.79 388.11,469.07 388.54,469.36 388.97,469.64 389.40,469.92 389.83,470.20 390.26,470.48 390.69,470.77 391.12,471.05 391.56,471.33 391.99,471.60 392.42,471.88 392.85,472.16 393.28,472.44 393.71,472.71 394.14,472.99 394.57,473.27 395.00,473.54 395.43,473.81 395.86,474.09 396.29,474.36 396.72,474.63 397.15,474.90 397.58,475.17 398.01,475.44 398.44,475.71 398.88,475.98 399.31,476.25 399.74,476.52 400.17,476.78 400.60,477.05 401.03,477.32 401.46,477.58 401.89,477.84 402.32,478.11 402.75,478.37 403.18,478.63 403.61,478.89 404.04,479.15 404.47,479.41 404.90,479.67 405.33,479.93 405.76,480.18 406.19,480.44 406.62,480.70 407.06,480.95 407.49,481.20 407.92,481.46 408.35,481.71 408.78,481.96 409.21,482.21 409.64,482.46 410.07,482.71 410.50,482.96 410.93,483.21 411.36,483.46 411.79,483.70 412.22,483.95 412.65,484.19 413.08,484.43 413.51,484.68 413.94,484.92 414.38,485.16 414.81,485.40 415.24,485.64 415.67,485.88 416.10,486.12 416.53,486.35 416.96,486.59 417.39,486.82 417.82,487.06 418.25,487.29 418.68,487.52 419.11,487.75 419.54,487.98 419.97,488.21 420.40,488.44 420.83,488.67 421.26,488.90 421.69,489.12 422.12,489.35 422.56,489.57 422.99,489.80 423.42,490.02 423.85,490.24 424.28,490.46 424.71,490.68 425.14,490.90 425.57,491.12 426.00,491.34 426.43,491.55 426.86,491.77 427.29,491.98 427.72,492.19 428.15,492.41 428.58,492.62 429.01,492.83 429.44,493.04 429.88,493.25 430.31,493.45 430.74,493.66 431.17,493.87 431.60,494.07 432.03,494.27 432.46,494.48 432.89,494.68 433.32,494.88 433.75,495.08 434.18,495.28 434.61,495.47 435.04,495.67 435.47,495.87 435.90,496.06 436.33,496.26 436.76,496.45 437.19,496.64 437.62,496.83 438.06,497.02 438.49,497.21 438.92,497.40 439.35,497.58 439.78,497.77 440.21,497.95 440.64,498.14 441.07,498.32 441.50,498.50 441.93,498.68 442.36,498.86 442.79,499.04 443.22,499.22 443.65,499.39 444.08,499.57 444.51,499.74 444.94,499.92 445.38,500.09 445.81,500.26 446.24,500.43 446.67,500.60 447.10,500.77 447.53,500.93 447.96,501.10 448.39,501.26 448.82,501.43 449.25,501.59 449.68,501.75 450.11,501.91 450.54,502.07 450.97,502.23 451.40,502.39 451.83,502.54 452.26,502.70 452.69,502.85 453.12,503.01 453.56,503.16 453.99,503.31 454.42,503.46 454.85,503.61 455.28,503.76 455.71,503.90 456.14,504.05 456.57,504.19 457.00,504.34 457.43,504.48 457.86,504.62 458.29,504.76 458.72,504.90 459.15,505.04 459.58,505.17 460.01,505.31 460.44,505.44 460.88,505.58 461.31,505.71 461.74,505.84 462.17,505.97 462.60,506.10 463.03,506.23 463.46,506.36 463.89,506.48 464.32,506.61 464.75,506.73 465.18,506.85 465.61,506.97 466.04,507.09 466.47,507.21 466.90,507.33 467.33,507.45 467.76,507.56 468.19,507.68 468.62,507.79 469.06,507.91 469.49,508.02 469.92,508.13 470.35,508.24 470.78,508.35 471.21,508.45 471.64,508.56 472.07,508.66 472.50,508.77 472.93,508.87 473.36,508.97 473.79,509.07 474.22,509.17 474.65,509.27 475.08,509.37 475.51,509.46 475.94,509.56 476.38,509.65 476.81,509.74 477.24,509.83 477.67,509.93 478.10,510.01 478.53,510.10 478.96,510.19 479.39,510.28 479.82,510.36 480.25,510.44 480.68,510.53 481.11,510.61 481.54,510.69 481.97,510.77 482.40,510.85 482.83,510.92 483.26,511.00 483.69,511.07 484.12,511.15 484.56,511.22 484.99,511.29 485.42,511.36 485.85,511.43 486.28,511.50 486.71,511.57 487.14,511.63 487.57,511.70 488.00,511.76 488.43,511.83 488.86,511.89 489.29,511.95 489.72,512.01 490.15,512.07 490.58,512.12 491.01,512.18 491.44,512.23 491.88,512.29 492.31,512.34 492.74,512.39 493.17,512.44 493.60,512.49 494.03,512.54 494.46,512.59 494.89,512.64 495.32,512.68 495.75,512.73 496.18,512.77 496.61,512.81 497.04,512.85 497.47,512.89 497.90,512.93 498.33,512.97 498.76,513.01 499.19,513.04 499.62,513.08 500.06,513.11 500.49,513.14 500.92,513.17 501.35,513.20 501.78,513.23 502.21,513.26 502.64,513.29 503.07,513.31 503.50,513.34 503.93,513.36 504.36,513.39 504.79,513.41 505.22,513.43 505.65,513.45 506.08,513.47 506.51,513.48 506.94,513.50 507.38,513.52 507.81,513.53 508.24,513.54 508.67,513.56 509.10,513.57 509.53,513.58 509.96,513.59 510.39,513.60 510.82,513.60 511.25,513.61 511.68,513.61 512.11,513.62 512.54,513.62 512.97,513.62 513.40,513.62 513.83,513.62 514.26,513.62 514.69,513.62 515.12,513.62 515.56,513.61 515.99,513.61 516.42,513.60 516.85,513.60 517.28,513.59 517.71,513.58 518.14,513.57 518.57,513.56 519.00,513.55 519.43,513.53 519.86,513.52 520.29,513.50 520.72,513.49 521.15,513.47 521.58,513.45 522.01,513.43 522.44,513.41 522.88,513.39 523.31,513.37 523.74,513.35 524.17,513.33 524.60,513.30 525.03,513.27 525.46,513.25 525.89,513.22 526.32,513.19 526.75,513.16 527.18,513.13 527.61,513.10 528.04,513.07 528.47,513.04 528.90,513.00 529.33,512.97 529.76,512.93 530.19,512.89 530.62,512.86 531.06,512.82 531.49,512.78 531.92,512.74 532.35,512.69 532.78,512.65 533.21,512.61 533.64,512.56 534.07,512.52 534.50,512.47 534.93,512.43 535.36,512.38 535.79,512.33 536.22,512.28 536.65,512.23 537.08,512.18 537.51,512.13 537.94,512.07 538.38,512.02 538.81,511.96 539.24,511.91 539.67,511.85 540.10,511.79 540.53,511.73 540.96,511.68 541.39,511.61 541.82,511.55 542.25,511.49 542.68,511.43 543.11,511.37 543.54,511.30 543.97,511.24 544.40,511.17 544.83,511.10 545.26,511.04 545.69,510.97 546.12,510.90 546.56,510.83 546.99,510.76 547.42,510.69 547.85,510.61 548.28,510.54 548.71,510.47 549.14,510.39 549.57,510.31 550.00,510.24 550.43,510.16 550.86,510.08 551.29,510.00 551.72,509.92 552.15,509.84 552.58,509.76 553.01,509.68 553.44,509.60 553.88,509.51 554.31,509.43 554.74,509.34 555.17,509.26 555.60,509.17 556.03,509.09 556.46,509.00 556.89,508.91 557.32,508.82 557.75,508.73 558.18,508.64 558.61,508.55 559.04,508.45 559.47,508.36 559.90,508.27 560.33,508.17 560.76,508.08 561.19,507.98 561.62,507.88 562.06,507.79 562.49,507.69 562.92,507.59 563.35,507.49 563.78,507.39 564.21,507.29 564.64,507.19 565.07,507.09 565.50,506.98 565.93,506.88 566.36,506.78 566.79,506.67 567.22,506.57 567.65,506.46 568.08,506.35 568.51,506.25 568.94,506.14 569.38,506.03 569.81,505.92 570.24,505.81 570.67,505.70 571.10,505.59 571.53,505.48 571.96,505.37 572.39,505.25 572.82,505.14 573.25,505.03 573.68,504.91 574.11,504.80 574.54,504.68 574.97,504.56 575.40,504.45 575.83,504.33 576.26,504.21 576.69,504.09 577.12,503.97 577.56,503.85 577.99,503.73 578.42,503.61 578.85,503.49 579.28,503.37 579.71,503.25 580.14,503.12 580.57,503.00 581.00,502.88 581.43,502.75 581.86,502.63 582.29,502.50 582.72,502.37 583.15,502.25 583.58,502.12 584.01,501.99 584.44,501.86 584.88,501.74 585.31,501.61 585.74,501.48 586.17,501.35 586.60,501.22 587.03,501.08 587.46,500.95 587.89,500.82 588.32,500.69 588.75,500.55 589.18,500.42 589.61,500.29 590.04,500.15 590.47,500.02 590.90,499.88 591.33,499.75 591.76,499.61 592.19,499.47 592.62,499.34 593.06,499.20 593.49,499.06 593.92,498.92 594.35,498.79 594.78,498.65 595.21,498.51 595.64,498.37 596.07,498.23 596.50,498.09 596.93,497.95 597.36,497.80 597.79,497.66 598.22,497.52 598.65,497.38 599.08,497.23 599.51,497.09 599.94,496.95 600.38,496.80 600.81,496.66 601.24,496.52 601.67,496.37 602.10,496.22 602.53,496.08 602.96,495.93 603.39,495.79 603.82,495.64 604.25,495.49 604.68,495.35 605.11,495.20 605.54,495.05 605.97,494.90 606.40,494.75 606.83,494.61 607.26,494.46 607.69,494.31 608.12,494.16 608.56,494.01 608.99,493.86 609.42,493.71 609.85,493.56 610.28,493.41 610.71,493.25 611.14,493.10 611.57,492.95 612.00,492.80 612.43,492.65 612.86,492.50 613.29,492.34 613.72,492.19 614.15,492.04 614.58,491.88 615.01,491.73 615.44,491.58 615.88,491.42 616.31,491.27 616.74,491.11 617.17,490.96 617.60,490.80 618.03,490.65 618.46,490.49 618.89,490.34 619.32,490.18 619.75,490.03 620.18,489.87 620.61,489.72 621.04,489.56 621.47,489.40 621.90,489.25 622.33,489.09 622.76,488.93 623.19,488.78 623.62,488.62 624.06,488.46 624.49,488.31 624.92,488.15 625.35,487.99 625.78,487.83 626.21,487.67 626.64,487.52 627.07,487.36 627.50,487.20 627.93,487.04 628.36,486.88 628.79,486.73 629.22,486.57 629.65,486.41 630.08,486.25 630.51,486.09 630.94,485.93 631.38,485.77 631.81,485.61 632.24,485.46 632.67,485.30 633.10,485.14 633.53,484.98 633.96,484.82 634.39,484.66 634.82,484.50 635.25,484.34 635.68,484.18 636.11,484.02 636.54,483.86 636.97,483.70 637.40,483.54 637.83,483.38 638.26,483.22 638.69,483.07 639.12,482.91 639.56,482.75 639.99,482.59 640.42,482.43 640.85,482.27 641.28,482.11 641.71,481.95 642.14,481.79 642.57,481.63 643.00,481.47 643.43,481.31 643.86,481.15 644.29,480.99 644.72,480.83 645.15,480.67 645.58,480.51 646.01,480.36 646.44,480.20 646.88,480.04 647.31,479.88 647.74,479.72 648.17,479.56 648.60,479.40 649.03,479.24 649.46,479.09 649.89,478.93 650.32,478.77 650.75,478.61 651.18,478.45 651.61,478.29 652.04,478.14 652.47,477.98 652.90,477.82 653.33,477.66 653.76,477.50 654.19,477.35 654.62,477.19 655.06,477.03 655.49,476.88 655.92,476.72 656.35,476.56 656.78,476.41 657.21,476.25 657.64,476.09 658.07,475.94 658.50,475.78 658.93,475.62 659.36,475.47 659.79,475.31 660.22,475.16 660.65,475.00 661.08,474.85 661.51,474.69 661.94,474.54 662.38,474.38 662.81,474.23 663.24,474.07 663.67,473.92 664.10,473.77 664.53,473.61 664.96,473.46 665.39,473.31 665.82,473.15 666.25,473.00 666.68,472.85 667.11,472.70 667.54,472.54 667.97,472.39 668.40,472.24 668.83,472.09 669.26,471.94 669.69,471.79 670.12,471.64 670.56,471.49 670.99,471.34 671.42,471.19 671.85,471.04 672.28,470.89 672.71,470.74 673.14,470.59 673.57,470.44 674.00,470.29 674.43,470.14 674.86,469.99 675.29,469.85 675.72,469.70 676.15,469.55 676.58,469.41 677.01,469.26 677.44,469.11 677.88,468.97 678.31,468.82 678.74,468.68 679.17,468.53 679.60,468.39 680.03,468.24 680.46,468.10 680.89,467.95 681.32,467.81 681.75,467.67 682.18,467.52 682.61,467.38 683.04,467.24 683.47,467.10 683.90,466.95 684.33,466.81 684.76,466.67 685.19,466.53 685.62,466.39 686.06,466.25 686.49,466.11 686.92,465.97 687.35,465.83 687.78,465.69 688.21,465.56 688.64,465.42 689.07,465.28 689.50,465.14 689.93,465.01 690.36,464.87 690.79,464.73 691.22,464.60 691.65,464.46 692.08,464.33 692.51,464.19 692.94,464.06 693.38,463.92 693.81,463.79 694.24,463.66 694.67,463.53 695.10,463.39 695.53,463.26 695.96,463.13 696.39,463.00 696.82,462.87 697.25,462.74 697.68,462.61 698.11,462.48 698.54,462.35 698.97,462.22 699.40,462.09 699.83,461.96 700.26,461.84 700.69,461.71 701.12,461.58 701.56,461.46 701.99,461.33 702.42,461.20 702.85,461.08 703.28,460.96 703.71,460.83 704.14,460.71 704.57,460.58 705.00,460.46 705.43,460.34 705.86,460.22 706.29,460.10 706.72,459.97 707.15,459.85 707.58,459.73 708.01,459.61 708.44,459.49 708.88,459.38 709.31,459.26 709.74,459.14 710.17,459.02 710.60,458.91 711.03,458.79 711.46,458.67 711.89,458.56 712.32,458.44 712.75,458.33 713.18,458.21 713.61,458.10 714.04,457.99 714.47,457.87 714.90,457.76 715.33,457.65 715.76,457.54 716.19,457.43 716.62,457.32 717.06,457.21 717.49,457.10 717.92,456.99 718.35,456.88 718.78,456.77 719.21,456.67 719.64,456.56 720.07,456.45 720.50,456.35 720.93,456.24 721.36,456.14 721.79,456.03 722.22,455.93 722.65,455.82 723.08,455.72 723.51,455.62 723.94,455.52 724.38,455.42 724.81,455.32 725.24,455.22 725.67,455.12 726.10,455.02 726.53,454.92 726.96,454.82 727.39,454.72 727.82,454.62 728.25,454.53 728.68,454.43 729.11,454.34 729.54,454.24 729.97,454.15 730.40,454.05 730.83,453.96 731.26,453.87 731.69,453.77 732.12,453.68 732.56,453.59 732.99,453.50 733.42,453.41 733.85,453.32 734.28,453.23 734.71,453.14 735.14,453.05 735.57,452.96 736.00,452.88 736.43,452.79 736.86,452.70 737.29,452.62 737.72,452.53 738.15,452.45 738.58,452.37 739.01,452.28 739.44,452.20 739.88,452.12 740.31,452.04 740.74,451.96 741.17,451.87 741.60,451.79 742.03,451.72 742.46,451.64 742.89,451.56 743.32,451.48 743.75,451.40 744.18,451.33 744.61,451.25 745.04,451.17 745.47,451.10 745.90,451.03 746.33,450.95 746.76,450.88 747.19,450.81 747.62,450.73 748.06,450.66 748.49,450.59 748.92,450.52 749.35,450.45 749.78,450.38 750.21,450.31 750.64,450.24 751.07,450.18 751.50,450.11 751.93,450.04 752.36,449.98 752.79,449.91 753.22,449.85 753.65,449.78 754.08,449.72 754.51,449.65 754.94,449.59 755.38,449.53 755.81,449.47 756.24,449.41 756.67,449.35 757.10,449.29 757.53,449.23 757.96,449.17 758.39,449.11 758.82,449.05 759.25,449.00 759.68,448.94 760.11,448.88 760.54,448.83 760.97,448.77 761.40,448.72 761.83,448.67 762.26,448.61 762.69,448.56 763.12,448.51 763.56,448.46 763.99,448.41 764.42,448.36 764.85,448.31 765.28,448.26 765.71,448.21 766.14,448.16 766.57,448.12 767.00,448.07 767.43,448.02 767.86,447.98 768.29,447.93 768.72,447.89 769.15,447.85 769.58,447.80 770.01,447.76 770.44,447.72 770.88,447.68 771.31,447.64 771.74,447.59 772.17,447.56 772.60,447.52 773.03,447.48 773.46,447.44 773.89,447.40 774.32,447.36 774.75,447.33 775.18,447.29 775.61,447.26 776.04,447.22 776.47,447.19 776.90,447.15 777.33,447.12 777.76,447.09 778.19,447.06 778.62,447.03 779.06,447.00 779.49,446.97 779.92,446.94 780.35,446.91 780.78,446.88 781.21,446.85 781.64,446.82 782.07,446.80 782.50,446.77 782.93,446.74 783.36,446.72 783.79,446.70 784.22,446.67 784.65,446.65 785.08,446.63 785.51,446.60 785.94,446.58 786.38,446.56 786.81,446.54 787.24,446.52 787.67,446.50 788.10,446.48 788.53,446.46 788.96,446.44 789.39,446.43 789.82,446.41 790.25,446.39 790.68,446.38 791.11,446.36 791.54,446.35 791.97,446.34 792.40,446.32 792.83,446.31 793.26,446.30 793.69,446.28 794.12,446.27 794.56,446.26 794.99,446.25 795.42,446.24 795.85,446.23 796.28,446.23 796.71,446.22 797.14,446.21 797.57,446.20 798.00,446.20 798.43,446.19 798.86,446.18 799.29,446.18 799.72,446.18 800.15,446.17 800.58,446.17 801.01,446.17 801.44,446.16 801.88,446.16 802.31,446.16 802.74,446.16 803.17,446.16 803.60,446.16 804.03,446.16 804.46,446.16 804.89,446.17 805.32,446.17 805.75,446.17 806.18,446.17 806.61,446.18 807.04,446.18 807.47,446.19 807.90,446.19 808.33,446.20 808.76,446.21 809.19,446.21 809.62,446.22 810.06,446.23 810.49,446.24 810.92,446.25 811.35,446.26 811.78,446.27 812.21,446.28 812.64,446.29 813.07,446.30 813.50,446.31 813.93,446.33 814.36,446.34 814.79,446.35 815.22,446.37 815.65,446.38 816.08,446.40 816.51,446.41 816.94,446.43 817.38,446.45 817.81,446.46 818.24,446.48 818.67,446.50 819.10,446.52 819.53,446.54 819.96,446.56 820.39,446.58 820.82,446.60 821.25,446.62 821.68,446.64 822.11,446.66 822.54,446.68 822.97,446.70 823.40,446.73 823.83,446.75 824.26,446.78 824.69,446.80 825.12,446.83 825.56,446.85 825.99,446.88 826.42,446.90 826.85,446.93 827.28,446.96 827.71,446.99 828.14,447.01 828.57,447.04 829.00,447.07 829.43,447.10 829.86,447.13 830.29,447.16 830.72,447.19 831.15,447.22 831.58,447.26 832.01,447.29 832.44,447.32 832.88,447.35 833.31,447.39 833.74,447.42 834.17,447.46 834.60,447.49 835.03,447.53 835.46,447.56 835.89,447.60 836.32,447.63 836.75,447.67 837.18,447.71 837.61,447.75 838.04,447.78 838.47,447.82 838.90,447.86 839.33,447.90 839.76,447.94 840.19,447.98 840.62,448.02 841.06,448.06 841.49,448.11 841.92,448.15 842.35,448.19 842.78,448.23 843.21,448.27 843.64,448.32 844.07,448.36 844.50,448.41 844.93,448.45 845.36,448.50 845.79,448.54 846.22,448.59 846.65,448.63 847.08,448.68 847.51,448.73 847.94,448.77 848.38,448.82 848.81,448.87 849.24,448.92 849.67,448.97 850.10,449.01 850.53,449.06 850.96,449.11 851.39,449.16 851.82,449.21 852.25,449.26 852.68,449.32 853.11,449.37 853.54,449.42 853.97,449.47 854.40,449.52 854.83,449.58 855.26,449.63 855.69,449.68 856.12,449.74 856.56,449.79 856.99,449.85 857.42,449.90 857.85,449.96 858.28,450.01 858.71,450.07 859.14,450.12 859.57,450.18 860.00,450.24" fill="none" stroke="#1f77b4" stroke-width="2.2"/>
<line x1="880" y1="85" x2="915" y2="85" stroke="#1f77b4" stroke-width="3"/>
<text x="922" y="90" font-family="Arial" font-size="13">Tnp2 analytic</text>
<polyline points="85.00,303.95 85.43,307.43 85.86,310.87 86.29,314.26 86.72,317.61 87.15,320.92 87.58,324.19 88.01,327.42 88.44,330.61 88.88,333.77 89.31,336.88 89.74,339.95 90.17,342.99 90.60,345.99 91.03,348.95 91.46,351.87 91.89,354.76 92.32,357.62 92.75,360.44 93.18,363.22 93.61,365.97 94.04,368.68 94.47,371.36 94.90,374.01 95.33,376.63 95.76,379.21 96.19,381.76 96.62,384.28 97.06,386.76 97.49,389.22 97.92,391.64 98.35,394.04 98.78,396.40 99.21,398.73 99.64,401.04 100.07,403.31 100.50,405.56 100.93,407.78 101.36,409.97 101.79,412.13 102.22,414.27 102.65,416.38 103.08,418.46 103.51,420.51 103.94,422.54 104.38,424.54 104.81,426.52 105.24,428.47 105.67,430.40 106.10,432.30 106.53,434.18 106.96,436.03 107.39,437.86 107.82,439.66 108.25,441.44 108.68,443.20 109.11,444.94 109.54,446.65 109.97,448.34 110.40,450.01 110.83,451.65 111.26,453.28 111.69,454.88 112.12,456.46 112.56,458.02 112.99,459.56 113.42,461.08 113.85,462.58 114.28,464.06 114.71,465.51 115.14,466.95 115.57,468.37 116.00,469.77 116.43,471.15 116.86,472.52 117.29,473.86 117.72,475.19 118.15,476.49 118.58,477.78 119.01,479.05 119.44,480.31 119.88,481.54 120.31,482.76 120.74,483.96 121.17,485.15 121.60,486.32 122.03,487.47 122.46,488.61 122.89,489.72 123.32,490.83 123.75,491.92 124.18,492.99 124.61,494.04 125.04,495.08 125.47,496.11 125.90,497.12 126.33,498.12 126.76,499.10 127.19,500.07 127.62,501.02 128.06,501.96 128.49,502.88 128.92,503.79 129.35,504.69 129.78,505.57 130.21,506.44 130.64,507.30 131.07,508.14 131.50,508.97 131.93,509.79 132.36,510.59 132.79,511.38 133.22,512.16 133.65,512.93 134.08,513.68 134.51,514.42 134.94,515.15 135.38,515.87 135.81,516.58 136.24,517.27 136.67,517.96 137.10,518.63 137.53,519.29 137.96,519.94 138.39,520.58 138.82,521.20 139.25,521.82 139.68,522.43 140.11,523.02 140.54,523.61 140.97,524.18 141.40,524.74 141.83,525.30 142.26,525.84 142.69,526.38 143.12,526.90 143.56,527.41 143.99,527.92 144.42,528.41 144.85,528.90 145.28,529.37 145.71,529.84 146.14,530.30 146.57,530.75 147.00,531.19 147.43,531.62 147.86,532.04 148.29,532.45 148.72,532.86 149.15,533.25 149.58,533.64 150.01,534.02 150.44,534.39 150.88,534.75 151.31,535.11 151.74,535.45 152.17,535.79 152.60,536.12 153.03,536.44 153.46,536.76 153.89,537.07 154.32,537.37 154.75,537.66 155.18,537.94 155.61,538.22 156.04,538.49 156.47,538.75 156.90,539.01 157.33,539.26 157.76,539.50 158.19,539.73 158.62,539.96 159.06,540.18 159.49,540.40 159.92,540.60 160.35,540.80 160.78,541.00 161.21,541.19 161.64,541.37 162.07,541.54 162.50,541.71 162.93,541.87 163.36,542.03 163.79,542.18 164.22,542.32 164.65,542.46 165.08,542.60 165.51,542.72 165.94,542.84 166.38,542.96 166.81,543.07 167.24,543.17 167.67,543.27 168.10,543.36 168.53,543.45 168.96,543.53 169.39,543.61 169.82,543.68 170.25,543.74 170.68,543.80 171.11,543.86 171.54,543.91 171.97,543.95 172.40,543.99 172.83,544.03 173.26,544.06 173.69,544.08 174.12,544.10 174.56,544.12 174.99,544.13 175.42,544.14 175.85,544.14 176.28,544.13 176.71,544.13 177.14,544.12 177.57,544.10 178.00,544.08 178.43,544.05 178.86,544.02 179.29,543.99 179.72,543.95 180.15,543.91 180.58,543.86 181.01,543.81 181.44,543.76 181.88,543.70 182.31,543.64 182.74,543.57 183.17,543.50 183.60,543.42 184.03,543.34 184.46,543.26 184.89,543.18 185.32,543.09 185.75,542.99 186.18,542.90 186.61,542.80 187.04,542.69 187.47,542.58 187.90,542.47 188.33,542.36 188.76,542.24 189.19,542.12 189.62,541.99 190.06,541.86 190.49,541.73 190.92,541.60 191.35,541.46 191.78,541.32 192.21,541.17 192.64,541.02 193.07,540.87 193.50,540.72 193.93,540.56 194.36,540.40 194.79,540.24 195.22,540.07 195.65,539.90 196.08,539.73 196.51,539.56 196.94,539.38 197.38,539.20 197.81,539.01 198.24,538.83 198.67,538.64 199.10,538.45 199.53,538.25 199.96,538.06 200.39,537.86 200.82,537.66 201.25,537.45 201.68,537.24 202.11,537.03 202.54,536.82 202.97,536.61 203.40,536.39 203.83,536.17 204.26,535.95 204.69,535.73 205.12,535.50 205.56,535.27 205.99,535.04 206.42,534.81 206.85,534.57 207.28,534.33 207.71,534.09 208.14,533.85 208.57,533.61 209.00,533.36 209.43,533.11 209.86,532.86 210.29,532.61 210.72,532.35 211.15,532.10 211.58,531.84 212.01,531.58 212.44,531.32 212.88,531.05 213.31,530.79 213.74,530.52 214.17,530.25 214.60,529.98 215.03,529.70 215.46,529.43 215.89,529.15 216.32,528.87 216.75,528.59 217.18,528.31 217.61,528.03 218.04,527.74 218.47,527.45 218.90,527.17 219.33,526.88 219.76,526.58 220.19,526.29 220.62,526.00 221.06,525.70 221.49,525.40 221.92,525.10 222.35,524.80 222.78,524.50 223.21,524.20 223.64,523.89 224.07,523.58 224.50,523.28 224.93,522.97 225.36,522.66 225.79,522.35 226.22,522.03 226.65,521.72 227.08,521.40 227.51,521.09 227.94,520.77 228.38,520.45 228.81,520.13 229.24,519.81 229.67,519.49 230.10,519.16 230.53,518.84 230.96,518.51 231.39,518.18 231.82,517.86 232.25,517.53 232.68,517.20 233.11,516.87 233.54,516.53 233.97,516.20 234.40,515.87 234.83,515.53 235.26,515.20 235.69,514.86 236.12,514.52 236.56,514.18 236.99,513.85 237.42,513.51 237.85,513.16 238.28,512.82 238.71,512.48 239.14,512.14 239.57,511.79 240.00,511.45 240.43,511.10 240.86,510.76 241.29,510.41 241.72,510.06 242.15,509.71 242.58,509.36 243.01,509.01 243.44,508.66 243.88,508.31 244.31,507.96 244.74,507.61 245.17,507.26 245.60,506.90 246.03,506.55 246.46,506.20 246.89,505.84 247.32,505.48 247.75,505.13 248.18,504.77 248.61,504.42 249.04,504.06 249.47,503.70 249.90,503.34 250.33,502.98 250.76,502.62 251.19,502.27 251.62,501.91 252.06,501.55 252.49,501.19 252.92,500.82 253.35,500.46 253.78,500.10 254.21,499.74 254.64,499.38 255.07,499.02 255.50,498.65 255.93,498.29 256.36,497.93 256.79,497.56 257.22,497.20 257.65,496.84 258.08,496.47 258.51,496.11 258.94,495.75 259.38,495.38 259.81,495.02 260.24,494.65 260.67,494.29 261.10,493.92 261.53,493.56 261.96,493.19 262.39,492.83 262.82,492.46 263.25,492.10 263.68,491.73 264.11,491.37 264.54,491.00 264.97,490.64 265.40,490.27 265.83,489.91 266.26,489.54 266.69,489.18 267.12,488.81 267.56,488.45 267.99,488.08 268.42,487.72 268.85,487.35 269.28,486.99 269.71,486.62 270.14,486.26 270.57,485.89 271.00,485.53 271.43,485.17 271.86,484.80 272.29,484.44 272.72,484.08 273.15,483.71 273.58,483.35 274.01,482.99 274.44,482.62 274.88,482.26 275.31,481.90 275.74,481.54 276.17,481.18 276.60,480.82 277.03,480.45 277.46,480.09 277.89,479.73 278.32,479.37 278.75,479.01 279.18,478.65 279.61,478.30 280.04,477.94 280.47,477.58 280.90,477.22 281.33,476.86 281.76,476.51 282.19,476.15 282.62,475.79 283.06,475.44 283.49,475.08 283.92,474.73 284.35,474.37 284.78,474.02 285.21,473.66 285.64,473.31 286.07,472.96 286.50,472.61 286.93,472.25 287.36,471.90 287.79,471.55 288.22,471.20 288.65,470.85 289.08,470.50 289.51,470.15 289.94,469.81 290.38,469.46 290.81,469.11 291.24,468.77 291.67,468.42 292.10,468.07 292.53,467.73 292.96,467.39 293.39,467.04 293.82,466.70 294.25,466.36 294.68,466.02 295.11,465.68 295.54,465.34 295.97,465.00 296.40,464.66 296.83,464.32 297.26,463.98 297.69,463.65 298.12,463.31 298.56,462.97 298.99,462.64 299.42,462.31 299.85,461.97 300.28,461.64 300.71,461.31 301.14,460.98 301.57,460.65 302.00,460.32 302.43,459.99 302.86,459.66 303.29,459.34 303.72,459.01 304.15,458.68 304.58,458.36 305.01,458.04 305.44,457.71 305.88,457.39 306.31,457.07 306.74,456.75 307.17,456.43 307.60,456.11 308.03,455.79 308.46,455.48 308.89,455.16 309.32,454.84 309.75,454.53 310.18,454.22 310.61,453.90 311.04,453.59 311.47,453.28 311.90,452.97 312.33,452.66 312.76,452.35 313.19,452.05 313.62,451.74 314.06,451.44 314.49,451.13 314.92,450.83 315.35,450.53 315.78,450.22 316.21,449.92 316.64,449.63 317.07,449.33 317.50,449.03 317.93,448.73 318.36,448.44 318.79,448.14 319.22,447.85 319.65,447.56 320.08,447.27 320.51,446.98 320.94,446.69 321.38,446.40 321.81,446.11 322.24,445.82 322.67,445.54 323.10,445.26 323.53,444.97 323.96,444.69 324.39,444.41 324.82,444.13 325.25,443.85 325.68,443.57 326.11,443.30 326.54,443.02 326.97,442.75 327.40,442.47 327.83,442.20 328.26,441.93 328.69,441.66 329.12,441.39 329.56,441.13 329.99,440.86 330.42,440.59 330.85,440.33 331.28,440.07 331.71,439.80 332.14,439.54 332.57,439.28 333.00,439.03 333.43,438.77 333.86,438.51 334.29,438.26 334.72,438.00 335.15,437.75 335.58,437.50 336.01,437.25 336.44,437.00 336.88,436.75 337.31,436.51 337.74,436.26 338.17,436.02 338.60,435.77 339.03,435.53 339.46,435.29 339.89,435.05 340.32,434.81 340.75,434.58 341.18,434.34 341.61,434.11 342.04,433.87 342.47,433.64 342.90,433.41 343.33,433.18 343.76,432.95 344.19,432.73 344.62,432.50 345.06,432.27 345.49,432.05 345.92,431.83 346.35,431.61 346.78,431.39 347.21,431.17 347.64,430.95 348.07,430.74 348.50,430.52 348.93,430.31 349.36,430.10 349.79,429.89 350.22,429.68 350.65,429.47 351.08,429.27 351.51,429.06 351.94,428.86 352.38,428.65 352.81,428.45 353.24,428.25 353.67,428.05 354.10,427.86 354.53,427.66 354.96,427.47 355.39,427.27 355.82,427.08 356.25,426.89 356.68,426.70 357.11,426.51 357.54,426.32 357.97,426.14 358.40,425.95 358.83,425.77 359.26,425.59 359.69,425.41 360.12,425.23 360.56,425.05 360.99,424.88 361.42,424.70 361.85,424.53 362.28,424.36 362.71,424.19 363.14,424.02 363.57,423.85 364.00,423.68 364.43,423.52 364.86,423.35 365.29,423.19 365.72,423.03 366.15,422.87 366.58,422.71 367.01,422.55 367.44,422.40 367.88,422.24 368.31,422.09 368.74,421.94 369.17,421.79 369.60,421.64 370.03,421.49 370.46,421.34 370.89,421.20 371.32,421.05 371.75,420.91 372.18,420.77 372.61,420.63 373.04,420.49 373.47,420.36 373.90,420.22 374.33,420.09 374.76,419.95 375.19,419.82 375.62,419.69 376.06,419.56 376.49,419.44 376.92,419.31 377.35,419.19 377.78,419.06 378.21,418.94 378.64,418.82 379.07,418.70 379.50,418.58 379.93,418.47 380.36,418.35 380.79,418.24 381.22,418.13 381.65,418.02 382.08,417.91 382.51,417.80 382.94,417.69 383.38,417.59 383.81,417.48 384.24,417.38 384.67,417.28 385.10,417.18 385.53,417.08 385.96,416.99 386.39,416.89 386.82,416.80 387.25,416.70 387.68,416.61 388.11,416.52 388.54,416.43 388.97,416.35 389.40,416.26 389.83,416.17 390.26,416.09 390.69,416.01 391.12,415.93 391.56,415.85 391.99,415.77 392.42,415.70 392.85,415.62 393.28,415.55 393.71,415.47 394.14,415.40 394.57,415.33 395.00,415.27 395.43,415.20 395.86,415.13 396.29,415.07 396.72,415.01 397.15,414.94 397.58,414.88 398.01,414.83 398.44,414.77 398.88,414.71 399.31,414.66 399.74,414.60 400.17,414.55 400.60,414.50 401.03,414.45 401.46,414.40 401.89,414.36 402.32,414.31 402.75,414.27 403.18,414.23 403.61,414.18 404.04,414.14 404.47,414.11 404.90,414.07 405.33,414.03 405.76,414.00 406.19,413.96 406.62,413.93 407.06,413.90 407.49,413.87 407.92,413.84 408.35,413.82 408.78,413.79 409.21,413.77 409.64,413.74 410.07,413.72 410.50,413.70 410.93,413.68 411.36,413.67 411.79,413.65 412.22,413.63 412.65,413.62 413.08,413.61 413.51,413.60 413.94,413.59 414.38,413.58 414.81,413.57 415.24,413.56 415.67,413.56 416.10,413.56 416.53,413.55 416.96,413.55 417.39,413.55 417.82,413.55 418.25,413.56 418.68,413.56 419.11,413.57 419.54,413.57 419.97,413.58 420.40,413.59 420.83,413.60 421.26,413.61 421.69,413.62 422.12,413.64 422.56,413.65 422.99,413.67 423.42,413.69 423.85,413.71 424.28,413.73 424.71,413.75 425.14,413.77 425.57,413.79 426.00,413.82 426.43,413.85 426.86,413.87 427.29,413.90 427.72,413.93 428.15,413.96 428.58,413.99 429.01,414.03 429.44,414.06 429.88,414.10 430.31,414.14 430.74,414.17 431.17,414.21 431.60,414.25 432.03,414.29 432.46,414.34 432.89,414.38 433.32,414.43 433.75,414.47 434.18,414.52 434.61,414.57 435.04,414.62 435.47,414.67 435.90,414.72 436.33,414.77 436.76,414.83 437.19,414.88 437.62,414.94 438.06,415.00 438.49,415.06 438.92,415.12 439.35,415.18 439.78,415.24 440.21,415.30 440.64,415.37 441.07,415.43 441.50,415.50 441.93,415.57 442.36,415.64 442.79,415.71 443.22,415.78 443.65,415.85 444.08,415.92 444.51,416.00 444.94,416.07 445.38,416.15 445.81,416.22 446.24,416.30 446.67,416.38 447.10,416.46 447.53,416.54 447.96,416.63 448.39,416.71 448.82,416.79 449.25,416.88 449.68,416.97 450.11,417.05 450.54,417.14 450.97,417.23 451.40,417.32 451.83,417.41 452.26,417.51 452.69,417.60 453.12,417.70 453.56,417.79 453.99,417.89 454.42,417.99 454.85,418.08 455.28,418.18 455.71,418.28 456.14,418.38 456.57,418.49 457.00,418.59 457.43,418.69 457.86,418.80 458.29,418.91 458.72,419.01 459.15,419.12 459.58,419.23 460.01,419.34 460.44,419.45 460.88,419.56 461.31,419.68 461.74,419.79 462.17,419.90 462.60,420.02 463.03,420.13 463.46,420.25 463.89,420.37 464.32,420.49 464.75,420.61 465.18,420.73 465.61,420.85 466.04,420.97 466.47,421.10 466.90,421.22 467.33,421.34 467.76,421.47 468.19,421.60 468.62,421.72 469.06,421.85 469.49,421.98 469.92,422.11 470.35,422.24 470.78,422.37 471.21,422.51 471.64,422.64 472.07,422.77 472.50,422.91 472.93,423.04 473.36,423.18 473.79,423.32 474.22,423.45 474.65,423.59 475.08,423.73 475.51,423.87 475.94,424.01 476.38,424.15 476.81,424.30 477.24,424.44 477.67,424.58 478.10,424.73 478.53,424.87 478.96,425.02 479.39,425.17 479.82,425.31 480.25,425.46 480.68,425.61 481.11,425.76 481.54,425.91 481.97,426.06 482.40,426.21 482.83,426.36 483.26,426.52 483.69,426.67 484.12,426.83 484.56,426.98 484.99,427.14 485.42,427.29 485.85,427.45 486.28,427.61 486.71,427.76 487.14,427.92 487.57,428.08 488.00,428.24 488.43,428.40 488.86,428.56 489.29,428.73 489.72,428.89 490.15,429.05 490.58,429.22 491.01,429.38 491.44,429.54 491.88,429.71 492.31,429.88 492.74,430.04 493.17,430.21 493.60,430.38 494.03,430.55 494.46,430.71 494.89,430.88 495.32,431.05 495.75,431.22 496.18,431.39 496.61,431.57 497.04,431.74 497.47,431.91 497.90,432.08 498.33,432.26 498.76,432.43 499.19,432.61 499.62,432.78 500.06,432.96 500.49,433.13 500.92,433.31 501.35,433.48 501.78,433.66 502.21,433.84 502.64,434.02 503.07,434.20 503.50,434.38 503.93,434.56 504.36,434.74 504.79,434.92 505.22,435.10 505.65,435.28 506.08,435.46 506.51,435.64 506.94,435.82 507.38,436.01 507.81,436.19 508.24,436.37 508.67,436.56 509.10,436.74 509.53,436.93 509.96,437.11 510.39,437.30 510.82,437.48 511.25,437.67 511.68,437.86 512.11,438.04 512.54,438.23 512.97,438.42 513.40,438.61 513.83,438.79 514.26,438.98 514.69,439.17 515.12,439.36 515.56,439.55 515.99,439.74 516.42,439.93 516.85,440.12 517.28,440.31 517.71,440.50 518.14,440.69 518.57,440.89 519.00,441.08 519.43,441.27 519.86,441.46 520.29,441.65 520.72,441.85 521.15,442.04 521.58,442.23 522.01,442.43 522.44,442.62 522.88,442.81 523.31,443.01 523.74,443.20 524.17,443.40 524.60,443.59 525.03,443.79 525.46,443.98 525.89,444.18 526.32,444.37 526.75,444.57 527.18,444.76 527.61,444.96 528.04,445.16 528.47,445.35 528.90,445.55 529.33,445.75 529.76,445.94 530.19,446.14 530.62,446.34 531.06,446.53 531.49,446.73 531.92,446.93 532.35,447.13 532.78,447.33 533.21,447.52 533.64,447.72 534.07,447.92 534.50,448.12 534.93,448.32 535.36,448.51 535.79,448.71 536.22,448.91 536.65,449.11 537.08,449.31 537.51,449.51 537.94,449.70 538.38,449.90 538.81,450.10 539.24,450.30 539.67,450.50 540.10,450.70 540.53,450.90 540.96,451.10 541.39,451.30 541.82,451.49 542.25,451.69 542.68,451.89 543.11,452.09 543.54,452.29 543.97,452.49 544.40,452.69 544.83,452.89 545.26,453.09 545.69,453.29 546.12,453.48 546.56,453.68 546.99,453.88 547.42,454.08 547.85,454.28 548.28,454.48 548.71,454.68 549.14,454.87 549.57,455.07 550.00,455.27 550.43,455.47 550.86,455.67 551.29,455.87 551.72,456.06 552.15,456.26 552.58,456.46 553.01,456.66 553.44,456.86 553.88,457.05 554.31,457.25 554.74,457.45 555.17,457.65 555.60,457.84 556.03,458.04 556.46,458.24 556.89,458.43 557.32,458.63 557.75,458.83 558.18,459.02 558.61,459.22 559.04,459.41 559.47,459.61 559.90,459.81 560.33,460.00 560.76,460.20 561.19,460.39 561.62,460.59 562.06,460.78 562.49,460.97 562.92,461.17 563.35,461.36 563.78,461.56 564.21,461.75 564.64,461.94 565.07,462.14 565.50,462.33 565.93,462.52 566.36,462.72 566.79,462.91 567.22,463.10 567.65,463.29 568.08,463.48 568.51,463.67 568.94,463.87 569.38,464.06 569.81,464.25 570.24,464.44 570.67,464.63 571.10,464.82 571.53,465.01 571.96,465.20 572.39,465.38 572.82,465.57 573.25,465.76 573.68,465.95 574.11,466.14 574.54,466.32 574.97,466.51 575.40,466.70 575.83,466.88 576.26,467.07 576.69,467.26 577.12,467.44 577.56,467.63 577.99,467.81 578.42,468.00 578.85,468.18 579.28,468.37 579.71,468.55 580.14,468.73 580.57,468.91 581.00,469.10 581.43,469.28 581.86,469.46 582.29,469.64 582.72,469.82 583.15,470.00 583.58,470.18 584.01,470.36 584.44,470.54 584.88,470.72 585.31,470.90 585.74,471.08 586.17,471.26 586.60,471.44 587.03,471.61 587.46,471.79 587.89,471.97 588.32,472.14 588.75,472.32 589.18,472.49 589.61,472.67 590.04,472.84 590.47,473.01 590.90,473.19 591.33,473.36 591.76,473.53 592.19,473.71 592.62,473.88 593.06,474.05 593.49,474.22 593.92,474.39 594.35,474.56 594.78,474.73 595.21,474.90 595.64,475.07 596.07,475.23 596.50,475.40 596.93,475.57 597.36,475.73 597.79,475.90 598.22,476.07 598.65,476.23 599.08,476.40 599.51,476.56 599.94,476.72 600.38,476.89 600.81,477.05 601.24,477.21 601.67,477.37 602.10,477.53 602.53,477.69 602.96,477.85 603.39,478.01 603.82,478.17 604.25,478.33 604.68,478.49 605.11,478.65 605.54,478.80 605.97,478.96 606.40,479.12 606.83,479.27 607.26,479.43 607.69,479.58 608.12,479.73 608.56,479.89 608.99,480.04 609.42,480.19 609.85,480.34 610.28,480.49 610.71,480.64 611.14,480.79 611.57,480.94 612.00,481.09 612.43,481.24 612.86,481.39 613.29,481.53 613.72,481.68 614.15,481.83 614.58,481.97 615.01,482.12 615.44,482.26 615.88,482.40 616.31,482.55 616.74,482.69 617.17,482.83 617.60,482.97 618.03,483.11 618.46,483.25 618.89,483.39 619.32,483.53 619.75,483.67 620.18,483.81 620.61,483.94 621.04,484.08 621.47,484.22 621.90,484.35 622.33,484.49 622.76,484.62 623.19,484.75 623.62,484.89 624.06,485.02 624.49,485.15 624.92,485.28 625.35,485.41 625.78,485.54 626.21,485.67 626.64,485.80 627.07,485.93 627.50,486.05 627.93,486.18 628.36,486.30 628.79,486.43 629.22,486.55 629.65,486.68 630.08,486.80 630.51,486.92 630.94,487.05 631.38,487.17 631.81,487.29 632.24,487.41 632.67,487.53 633.10,487.65 633.53,487.76 633.96,487.88 634.39,488.00 634.82,488.11 635.25,488.23 635.68,488.34 636.11,488.46 636.54,488.57 636.97,488.68 637.40,488.79 637.83,488.91 638.26,489.02 638.69,489.13 639.12,489.24 639.56,489.34 639.99,489.45 640.42,489.56 640.85,489.67 641.28,489.77 641.71,489.88 642.14,489.98 642.57,490.09 643.00,490.19 643.43,490.29 643.86,490.39 644.29,490.50 644.72,490.60 645.15,490.70 645.58,490.79 646.01,490.89 646.44,490.99 646.88,491.09 647.31,491.18 647.74,491.28 648.17,491.37 648.60,491.47 649.03,491.56 649.46,491.65 649.89,491.75 650.32,491.84 650.75,491.93 651.18,492.02 651.61,492.11 652.04,492.20 652.47,492.29 652.90,492.37 653.33,492.46 653.76,492.54 654.19,492.63 654.62,492.71 655.06,492.80 655.49,492.88 655.92,492.96 656.35,493.05 656.78,493.13 657.21,493.21 657.64,493.29 658.07,493.36 658.50,493.44 658.93,493.52 659.36,493.60 659.79,493.67 660.22,493.75 660.65,493.82 661.08,493.90 661.51,493.97 661.94,494.04 662.38,494.11 662.81,494.18 663.24,494.25 663.67,494.32 664.10,494.39 664.53,494.46 664.96,494.53 665.39,494.60 665.82,494.66 666.25,494.73 666.68,494.79 667.11,494.85 667.54,494.92 667.97,494.98 668.40,495.04 668.83,495.10 669.26,495.16 669.69,495.22 670.12,495.28 670.56,495.34 670.99,495.40 671.42,495.45 671.85,495.51 672.28,495.57 672.71,495.62 673.14,495.67 673.57,495.73 674.00,495.78 674.43,495.83 674.86,495.88 675.29,495.93 675.72,495.98 676.15,496.03 676.58,496.08 677.01,496.13 677.44,496.17 677.88,496.22 678.31,496.26 678.74,496.31 679.17,496.35 679.60,496.40 680.03,496.44 680.46,496.48 680.89,496.52 681.32,496.56 681.75,496.60 682.18,496.64 682.61,496.68 683.04,496.72 683.47,496.75 683.90,496.79 684.33,496.83 684.76,496.86 685.19,496.89 685.62,496.93 686.06,496.96 686.49,496.99 686.92,497.02 687.35,497.05 687.78,497.08 688.21,497.11 688.64,497.14 689.07,497.17 689.50,497.20 689.93,497.22 690.36,497.25 690.79,497.27 691.22,497.30 691.65,497.32 692.08,497.34 692.51,497.37 692.94,497.39 693.38,497.41 693.81,497.43 694.24,497.45 694.67,497.47 695.10,497.49 695.53,497.50 695.96,497.52 696.39,497.54 696.82,497.55 697.25,497.57 697.68,497.58 698.11,497.59 698.54,497.61 698.97,497.62 699.40,497.63 699.83,497.64 700.26,497.65 700.69,497.66 701.12,497.67 701.56,497.68 701.99,497.68 702.42,497.69 702.85,497.70 703.28,497.70 703.71,497.71 704.14,497.71 704.57,497.71 705.00,497.72 705.43,497.72 705.86,497.72 706.29,497.72 706.72,497.72 707.15,497.72 707.58,497.72 708.01,497.72 708.44,497.71 708.88,497.71 709.31,497.71 709.74,497.70 710.17,497.70 710.60,497.69 711.03,497.68 711.46,497.68 711.89,497.67 712.32,497.66 712.75,497.65 713.18,497.64 713.61,497.63 714.04,497.62 714.47,497.61 714.90,497.60 715.33,497.59 715.76,497.57 716.19,497.56 716.62,497.54 717.06,497.53 717.49,497.51 717.92,497.50 718.35,497.48 718.78,497.46 719.21,497.44 719.64,497.42 720.07,497.40 720.50,497.38 720.93,497.36 721.36,497.34 721.79,497.32 722.22,497.30 722.65,497.27 723.08,497.25 723.51,497.23 723.94,497.20 724.38,497.18 724.81,497.15 725.24,497.12 725.67,497.10 726.10,497.07 726.53,497.04 726.96,497.01 727.39,496.98 727.82,496.95 728.25,496.92 728.68,496.89 729.11,496.86 729.54,496.82 729.97,496.79 730.40,496.76 730.83,496.72 731.26,496.69 731.69,496.65 732.12,496.62 732.56,496.58 732.99,496.54 733.42,496.51 733.85,496.47 734.28,496.43 734.71,496.39 735.14,496.35 735.57,496.31 736.00,496.27 736.43,496.23 736.86,496.19 737.29,496.14 737.72,496.10 738.15,496.06 738.58,496.01 739.01,495.97 739.44,495.93 739.88,495.88 740.31,495.83 740.74,495.79 741.17,495.74 741.60,495.69 742.03,495.64 742.46,495.60 742.89,495.55 743.32,495.50 743.75,495.45 744.18,495.40 744.61,495.34 745.04,495.29 745.47,495.24 745.90,495.19 746.33,495.13 746.76,495.08 747.19,495.03 747.62,494.97 748.06,494.92 748.49,494.86 748.92,494.81 749.35,494.75 749.78,494.69 750.21,494.63 750.64,494.58 751.07,494.52 751.50,494.46 751.93,494.40 752.36,494.34 752.79,494.28 753.22,494.22 753.65,494.16 754.08,494.10 754.51,494.03 754.94,493.97 755.38,493.91 755.81,493.85 756.24,493.78 756.67,493.72 757.10,493.65 757.53,493.59 757.96,493.52 758.39,493.46 758.82,493.39 759.25,493.32 759.68,493.26 760.11,493.19 760.54,493.12 760.97,493.05 761.40,492.98 761.83,492.91 762.26,492.84 762.69,492.77 763.12,492.70 763.56,492.63 763.99,492.56 764.42,492.49 764.85,492.42 765.28,492.34 765.71,492.27 766.14,492.20 766.57,492.12 767.00,492.05 767.43,491.98 767.86,491.90 768.29,491.83 768.72,491.75 769.15,491.67 769.58,491.60 770.01,491.52 770.44,491.44 770.88,491.37 771.31,491.29 771.74,491.21 772.17,491.13 772.60,491.05 773.03,490.97 773.46,490.90 773.89,490.82 774.32,490.74 774.75,490.66 775.18,490.57 775.61,490.49 776.04,490.41 776.47,490.33 776.90,490.25 777.33,490.17 777.76,490.08 778.19,490.00 778.62,489.92 779.06,489.83 779.49,489.75 779.92,489.66 780.35,489.58 780.78,489.49 781.21,489.41 781.64,489.32 782.07,489.24 782.50,489.15 782.93,489.07 783.36,488.98 783.79,488.89 784.22,488.81 784.65,488.72 785.08,488.63 785.51,488.54 785.94,488.45 786.38,488.37 786.81,488.28 787.24,488.19 787.67,488.10 788.10,488.01 788.53,487.92 788.96,487.83 789.39,487.74 789.82,487.65 790.25,487.56 790.68,487.47 791.11,487.37 791.54,487.28 791.97,487.19 792.40,487.10 792.83,487.01 793.26,486.91 793.69,486.82 794.12,486.73 794.56,486.64 794.99,486.54 795.42,486.45 795.85,486.35 796.28,486.26 796.71,486.17 797.14,486.07 797.57,485.98 798.00,485.88 798.43,485.79 798.86,485.69 799.29,485.60 799.72,485.50 800.15,485.41 800.58,485.31 801.01,485.21 801.44,485.12 801.88,485.02 802.31,484.92 802.74,484.83 803.17,484.73 803.60,484.63 804.03,484.54 804.46,484.44 804.89,484.34 805.32,484.24 805.75,484.14 806.18,484.05 806.61,483.95 807.04,483.85 807.47,483.75 807.90,483.65 808.33,483.55 808.76,483.46 809.19,483.36 809.62,483.26 810.06,483.16 810.49,483.06 810.92,482.96 811.35,482.86 811.78,482.76 812.21,482.66 812.64,482.56 813.07,482.46 813.50,482.36 813.93,482.26 814.36,482.16 814.79,482.06 815.22,481.96 815.65,481.86 816.08,481.75 816.51,481.65 816.94,481.55 817.38,481.45 817.81,481.35 818.24,481.25 818.67,481.15 819.10,481.05 819.53,480.95 819.96,480.84 820.39,480.74 820.82,480.64 821.25,480.54 821.68,480.44 822.11,480.33 822.54,480.23 822.97,480.13 823.40,480.03 823.83,479.93 824.26,479.82 824.69,479.72 825.12,479.62 825.56,479.52 825.99,479.42 826.42,479.31 826.85,479.21 827.28,479.11 827.71,479.01 828.14,478.90 828.57,478.80 829.00,478.70 829.43,478.60 829.86,478.49 830.29,478.39 830.72,478.29 831.15,478.19 831.58,478.08 832.01,477.98 832.44,477.88 832.88,477.78 833.31,477.67 833.74,477.57 834.17,477.47 834.60,477.37 835.03,477.26 835.46,477.16 835.89,477.06 836.32,476.96 836.75,476.85 837.18,476.75 837.61,476.65 838.04,476.55 838.47,476.44 838.90,476.34 839.33,476.24 839.76,476.14 840.19,476.04 840.62,475.93 841.06,475.83 841.49,475.73 841.92,475.63 842.35,475.53 842.78,475.42 843.21,475.32 843.64,475.22 844.07,475.12 844.50,475.02 844.93,474.92 845.36,474.81 845.79,474.71 846.22,474.61 846.65,474.51 847.08,474.41 847.51,474.31 847.94,474.21 848.38,474.11 848.81,474.00 849.24,473.90 849.67,473.80 850.10,473.70 850.53,473.60 850.96,473.50 851.39,473.40 851.82,473.30 852.25,473.20 852.68,473.10 853.11,473.00 853.54,472.90 853.97,472.80 854.40,472.70 854.83,472.60 855.26,472.50 855.69,472.40 856.12,472.30 856.56,472.21 856.99,472.11 857.42,472.01 857.85,471.91 858.28,471.81 858.71,471.71 859.14,471.61 859.57,471.52 860.00,471.42" fill="none" stroke="#ff00cc" stroke-width="2.2"/>
<line x1="880" y1="110" x2="915" y2="110" stroke="#ff00cc" stroke-width="3"/>
<text x="922" y="115" font-family="Arial" font-size="13">Tnp3 analytic</text>
</svg>