<svg xmlns="http://www.w3.org/2000/svg" width="1050" height="650" viewBox="0 0 1050 650">
<rect width="100%" height="100%" fill="white"/>
<text x="525.0" y="33" text-anchor="middle" font-family="Arial" font-size="20">current_lammps: mean reservoir temperature for heat-rate scale alphaHeat</text>
<line x1="85" y1="580" x2="830" y2="580" stroke="black"/>
<line x1="85" y1="60" x2="85" y2="580" stroke="black"/>
<text x="525.0" y="628" text-anchor="middle" font-family="Arial" font-size="15">time (ps)</text>
<text x="24" y="325.0" transform="rotate(-90 24 325.0)" text-anchor="middle" font-family="Arial" font-size="15">mean reservoir temperature (K)</text>
<line x1="85.00" y1="60" x2="85.00" y2="580" stroke="#ddd"/>
<text x="85.00" y="602" text-anchor="middle" font-family="Arial" font-size="12">0</text>
<line x1="85" y1="580.00" x2="830" y2="580.00" stroke="#ddd"/>
<text x="75" y="584.00" text-anchor="end" font-family="Arial" font-size="12">83.6</text>
<line x1="271.25" y1="60" x2="271.25" y2="580" stroke="#ddd"/>
<text x="271.25" y="602" text-anchor="middle" font-family="Arial" font-size="12">450</text>
<line x1="85" y1="450.00" x2="830" y2="450.00" stroke="#ddd"/>
<text x="75" y="454.00" text-anchor="end" font-family="Arial" font-size="12">100.8</text>
<line x1="457.50" y1="60" x2="457.50" y2="580" stroke="#ddd"/>
<text x="457.50" y="602" text-anchor="middle" font-family="Arial" font-size="12">900</text>
<line x1="85" y1="320.00" x2="830" y2="320.00" stroke="#ddd"/>
<text x="75" y="324.00" text-anchor="end" font-family="Arial" font-size="12">117.9</text>
<line x1="643.75" y1="60" x2="643.75" y2="580" stroke="#ddd"/>
<text x="643.75" y="602" text-anchor="middle" font-family="Arial" font-size="12">1350</text>
<line x1="85" y1="190.00" x2="830" y2="190.00" stroke="#ddd"/>
<text x="75" y="194.00" text-anchor="end" font-family="Arial" font-size="12">135.1</text>
<line x1="830.00" y1="60" x2="830.00" y2="580" stroke="#ddd"/>
<text x="830.00" y="602" text-anchor="middle" font-family="Arial" font-size="12">1800</text>
<line x1="85" y1="60.00" x2="830" y2="60.00" stroke="#ddd"/>
<text x="75" y="64.00" text-anchor="end" font-family="Arial" font-size="12">152.2</text>
<polyline points="85.00,95.86 87.07,122.92 89.14,148.34 91.21,172.23 93.28,194.67 95.35,215.77 97.42,235.58 99.49,254.21 101.56,271.70 103.62,288.15 105.69,303.60 107.76,318.11 109.83,331.76 111.90,344.57 113.97,356.62 116.04,367.94 118.11,378.57 120.18,388.56 122.25,397.95 124.32,406.78 126.39,415.07 128.46,422.86 130.53,430.18 132.60,437.05 134.67,443.52 136.74,449.59 138.81,455.30 140.88,460.66 142.94,465.70 145.01,470.43 147.08,474.88 149.15,479.06 151.22,482.99 153.29,486.68 155.36,490.15 157.43,493.40 159.50,496.47 161.57,499.34 163.64,502.05 165.71,504.59 167.78,506.97 169.85,509.22 171.92,511.32 173.99,513.31 176.06,515.17 178.12,516.91 180.19,518.56 182.26,520.10 184.33,521.55 186.40,522.92 188.47,524.20 190.54,525.40 192.61,526.53 194.68,527.59 196.75,528.59 198.82,529.53 200.89,530.41 202.96,531.24 205.03,532.02 207.10,532.75 209.17,533.44 211.24,534.08 213.31,534.69 215.38,535.26 217.44,535.80 219.51,536.30 221.58,536.77 223.65,537.22 225.72,537.63 227.79,538.03 229.86,538.40 231.93,538.74 234.00,539.07 236.07,539.37 238.14,539.66 240.21,539.93 242.28,540.19 244.35,540.42 246.42,540.65 248.49,540.86 250.56,541.06 252.62,541.24 254.69,541.42 256.76,541.58 258.83,541.74 260.90,541.88 262.97,542.02 265.04,542.15 267.11,542.27 269.18,542.38 271.25,542.48 273.32,542.58 275.39,542.68 277.46,542.77 279.53,542.85 281.60,542.93 283.67,543.00 285.74,543.07 287.81,543.13 289.88,543.19 291.94,543.25 294.01,543.30 296.08,543.35 298.15,543.40 300.22,543.45 302.29,543.49 304.36,543.53 306.43,543.56 308.50,543.60 310.57,543.63 312.64,543.66 314.71,543.69 316.78,543.72 318.85,543.74 320.92,543.77 322.99,543.79 325.06,543.81 327.12,543.83 329.19,543.85 331.26,543.87 333.33,543.88 335.40,543.90 337.47,543.91 339.54,543.93 341.61,543.94 343.68,543.95 345.75,543.96 347.82,543.97 349.89,543.98 351.96,543.99 354.03,544.00 356.10,544.01 358.17,544.02 360.24,544.02 362.31,544.03 364.38,544.04 366.44,544.04 368.51,544.05 370.58,544.05 372.65,544.06 374.72,544.06 376.79,544.07 378.86,544.07 380.93,544.08 383.00,544.08 385.07,544.08 387.14,544.09 389.21,544.09 391.28,544.09 393.35,544.10 395.42,544.10 397.49,544.10 399.56,544.10 401.62,544.11 403.69,544.11 405.76,544.11 407.83,544.11 409.90,544.11 411.97,544.11 414.04,544.12 416.11,544.12 418.18,544.12 420.25,544.12 422.32,544.12 424.39,544.12 426.46,544.12 428.53,544.12 430.60,544.12 432.67,544.13 434.74,544.13 436.81,544.13 438.88,544.13 440.94,544.13 443.01,544.13 445.08,544.13 447.15,544.13 449.22,544.13 451.29,544.13 453.36,544.13 455.43,544.13 457.50,544.13 459.57,544.13 461.64,544.13 463.71,544.13 465.78,544.13 467.85,544.13 469.92,544.13 471.99,544.13 474.06,544.13 476.12,544.13 478.19,544.13 480.26,544.13 482.33,544.14 484.40,544.14 486.47,544.14 488.54,544.14 490.61,544.14 492.68,544.14 494.75,544.14 496.82,544.14 498.89,544.14 500.96,544.14 503.03,544.14 505.10,544.14 507.17,544.14 509.24,544.14 511.31,544.14 513.38,544.14 515.44,544.14 517.51,544.14 519.58,544.14 521.65,544.14 523.72,544.14 525.79,544.14 527.86,544.14 529.93,544.14 532.00,544.14 534.07,544.14 536.14,544.14 538.21,544.14 540.28,544.14 542.35,544.14 544.42,544.14 546.49,544.14 548.56,544.14 550.62,544.14 552.69,544.14 554.76,544.14 556.83,544.14 558.90,544.14 560.97,544.14 563.04,544.14 565.11,544.14 567.18,544.14 569.25,544.14 571.32,544.14 573.39,544.14 575.46,544.14 577.53,544.14 579.60,544.14 581.67,544.14 583.74,544.14 585.81,544.14 587.88,544.14 589.94,544.14 592.01,544.14 594.08,544.14 596.15,544.14 598.22,544.14 600.29,544.14 602.36,544.14 604.43,544.14 606.50,544.14 608.57,544.14 610.64,544.14 612.71,544.14 614.78,544.14 616.85,544.14 618.92,544.14 620.99,544.14 623.06,544.14 625.12,544.14 627.19,544.14 629.26,544.14 631.33,544.14 633.40,544.14 635.47,544.14 637.54,544.14 639.61,544.14 641.68,544.14 643.75,544.14 645.82,544.14 647.89,544.14 649.96,544.14 652.03,544.14 654.10,544.14 656.17,544.14 658.24,544.14 660.31,544.14 662.38,544.14 664.44,544.14 666.51,544.14 668.58,544.14 670.65,544.14 672.72,544.14 674.79,544.14 676.86,544.14 678.93,544.14 681.00,544.14 683.07,544.14 685.14,544.14 687.21,544.14 689.28,544.14 691.35,544.14 693.42,544.14 695.49,544.14 697.56,544.14 699.62,544.14 701.69,544.14 703.76,544.14 705.83,544.14 707.90,544.14 709.97,544.14 712.04,544.14 714.11,544.14 716.18,544.14 718.25,544.14 720.32,544.14 722.39,544.14 724.46,544.14 726.53,544.14 728.60,544.14 730.67,544.14 732.74,544.14 734.81,544.14 736.88,544.14 738.94,544.14 741.01,544.14 743.08,544.14 745.15,544.14 747.22,544.14 749.29,544.14 751.36,544.14 753.43,544.14 755.50,544.14 757.57,544.14 759.64,544.14 761.71,544.14 763.78,544.14 765.85,544.14 767.92,544.14 769.99,544.14 772.06,544.14 774.12,544.14 776.19,544.14 778.26,544.14 780.33,544.14 782.40,544.14 784.47,544.14 786.54,544.14 788.61,544.14 790.68,544.14 792.75,544.14 794.82,544.14 796.89,544.14 798.96,544.14 801.03,544.14 803.10,544.14 805.17,544.14 807.24,544.14 809.31,544.14 811.38,544.14 813.44,544.14 815.51,544.14 817.58,544.14 819.65,544.14 821.72,544.14 823.79,544.14 825.86,544.14 827.93,544.14 830.00,544.14" fill="none" stroke="#d62728" stroke-width="2.2"/>
<line x1="850" y1="60" x2="885" y2="60" stroke="#d62728" stroke-width="3"/>
<text x="892" y="65" font-family="Arial" font-size="13">alpha=1</text>
<polyline points="85.00,95.86 87.07,113.70 89.14,130.60 91.21,146.62 93.28,161.81 95.35,176.20 97.42,189.83 99.49,202.76 101.56,215.01 103.62,226.62 105.69,237.62 107.76,248.05 109.83,257.93 111.90,267.30 113.97,276.17 116.04,284.59 118.11,292.56 120.18,300.12 122.25,307.28 124.32,314.06 126.39,320.50 128.46,326.59 130.53,332.37 132.60,337.85 134.67,343.04 136.74,347.95 138.81,352.62 140.88,357.03 142.94,361.22 145.01,365.19 147.08,368.95 149.15,372.51 151.22,375.89 153.29,379.09 155.36,382.13 157.43,385.00 159.50,387.73 161.57,390.31 163.64,392.76 165.71,395.08 167.78,397.28 169.85,399.36 171.92,401.34 173.99,403.21 176.06,404.98 178.12,406.66 180.19,408.26 182.26,409.77 184.33,411.20 186.40,412.55 188.47,413.84 190.54,415.06 192.61,416.21 194.68,417.31 196.75,418.34 198.82,419.33 200.89,420.26 202.96,421.14 205.03,421.98 207.10,422.77 209.17,423.52 211.24,424.23 213.31,424.91 215.38,425.55 217.44,426.16 219.51,426.73 221.58,427.28 223.65,427.79 225.72,428.28 227.79,428.74 229.86,429.18 231.93,429.60 234.00,429.99 236.07,430.37 238.14,430.72 240.21,431.06 242.28,431.38 244.35,431.68 246.42,431.97 248.49,432.24 250.56,432.49 252.62,432.74 254.69,432.97 256.76,433.19 258.83,433.39 260.90,433.59 262.97,433.78 265.04,433.95 267.11,434.12 269.18,434.28 271.25,434.43 273.32,434.57 275.39,434.71 277.46,434.83 279.53,434.95 281.60,435.07 283.67,435.18 285.74,435.28 287.81,435.38 289.88,435.47 291.94,435.56 294.01,435.64 296.08,435.72 298.15,435.80 300.22,435.87 302.29,435.93 304.36,436.00 306.43,436.06 308.50,436.12 310.57,436.17 312.64,436.22 314.71,436.27 316.78,436.32 318.85,436.36 320.92,436.40 322.99,436.44 325.06,436.48 327.12,436.51 329.19,436.55 331.26,436.58 333.33,436.61 335.40,436.64 337.47,436.66 339.54,436.69 341.61,436.71 343.68,436.74 345.75,436.76 347.82,436.78 349.89,436.80 351.96,436.82 354.03,436.83 356.10,436.85 358.17,436.87 360.24,436.88 362.31,436.89 364.38,436.91 366.44,436.92 368.51,436.93 370.58,436.94 372.65,436.96 374.72,436.97 376.79,436.98 378.86,436.98 380.93,436.99 383.00,437.00 385.07,437.01 387.14,437.02 389.21,437.02 391.28,437.03 393.35,437.04 395.42,437.04 397.49,437.05 399.56,437.05 401.62,437.06 403.69,437.06 405.76,437.07 407.83,437.07 409.90,437.08 411.97,437.08 414.04,437.08 416.11,437.09 418.18,437.09 420.25,437.09 422.32,437.10 424.39,437.10 426.46,437.10 428.53,437.11 430.60,437.11 432.67,437.11 434.74,437.11 436.81,437.11 438.88,437.12 440.94,437.12 443.01,437.12 445.08,437.12 447.15,437.12 449.22,437.12 451.29,437.13 453.36,437.13 455.43,437.13 457.50,437.13 459.57,437.13 461.64,437.13 463.71,437.13 465.78,437.13 467.85,437.13 469.92,437.14 471.99,437.14 474.06,437.14 476.12,437.14 478.19,437.14 480.26,437.14 482.33,437.14 484.40,437.14 486.47,437.14 488.54,437.14 490.61,437.14 492.68,437.14 494.75,437.14 496.82,437.14 498.89,437.14 500.96,437.14 503.03,437.14 505.10,437.15 507.17,437.15 509.24,437.15 511.31,437.15 513.38,437.15 515.44,437.15 517.51,437.15 519.58,437.15 521.65,437.15 523.72,437.15 525.79,437.15 527.86,437.15 529.93,437.15 532.00,437.15 534.07,437.15 536.14,437.15 538.21,437.15 540.28,437.15 542.35,437.15 544.42,437.15 546.49,437.15 548.56,437.15 550.62,437.15 552.69,437.15 554.76,437.15 556.83,437.15 558.90,437.15 560.97,437.15 563.04,437.15 565.11,437.15 567.18,437.15 569.25,437.15 571.32,437.15 573.39,437.15 575.46,437.15 577.53,437.15 579.60,437.15 581.67,437.15 583.74,437.15 585.81,437.15 587.88,437.15 589.94,437.15 592.01,437.15 594.08,437.15 596.15,437.15 598.22,437.15 600.29,437.15 602.36,437.15 604.43,437.15 606.50,437.15 608.57,437.15 610.64,437.15 612.71,437.15 614.78,437.15 616.85,437.15 618.92,437.15 620.99,437.15 623.06,437.15 625.12,437.15 627.19,437.15 629.26,437.15 631.33,437.15 633.40,437.15 635.47,437.15 637.54,437.15 639.61,437.15 641.68,437.15 643.75,437.15 645.82,437.15 647.89,437.15 649.96,437.15 652.03,437.15 654.10,437.15 656.17,437.15 658.24,437.15 660.31,437.15 662.38,437.15 664.44,437.15 666.51,437.15 668.58,437.15 670.65,437.15 672.72,437.15 674.79,437.15 676.86,437.15 678.93,437.15 681.00,437.15 683.07,437.15 685.14,437.15 687.21,437.15 689.28,437.15 691.35,437.15 693.42,437.15 695.49,437.15 697.56,437.15 699.62,437.15 701.69,437.15 703.76,437.15 705.83,437.15 707.90,437.15 709.97,437.15 712.04,437.15 714.11,437.15 716.18,437.15 718.25,437.15 720.32,437.15 722.39,437.15 724.46,437.15 726.53,437.15 728.60,437.15 730.67,437.15 732.74,437.15 734.81,437.15 736.88,437.15 738.94,437.15 741.01,437.15 743.08,437.15 745.15,437.15 747.22,437.15 749.29,437.15 751.36,437.15 753.43,437.15 755.50,437.15 757.57,437.15 759.64,437.15 761.71,437.15 763.78,437.15 765.85,437.15 767.92,437.15 769.99,437.15 772.06,437.15 774.12,437.15 776.19,437.15 778.26,437.15 780.33,437.15 782.40,437.15 784.47,437.15 786.54,437.15 788.61,437.15 790.68,437.15 792.75,437.15 794.82,437.15 796.89,437.15 798.96,437.15 801.03,437.15 803.10,437.15 805.17,437.15 807.24,437.15 809.31,437.15 811.38,437.15 813.44,437.15 815.51,437.15 817.58,437.15 819.65,437.15 821.72,437.15 823.79,437.15 825.86,437.15 827.93,437.15 830.00,437.15" fill="none" stroke="#ff7f0e" stroke-width="2.2"/>
<line x1="850" y1="85" x2="885" y2="85" stroke="#ff7f0e" stroke-width="3"/>
<text x="892" y="90" font-family="Arial" font-size="13">alpha=0.3</text>
<polyline points="85.00,95.86 87.07,111.05 89.14,125.48 91.21,139.19 93.28,152.21 95.35,164.58 97.42,176.34 99.49,187.51 101.56,198.12 103.62,208.20 105.69,217.78 107.76,226.88 109.83,235.52 111.90,243.74 113.97,251.54 116.04,258.95 118.11,266.00 120.18,272.69 122.25,279.05 124.32,285.09 126.39,290.82 128.46,296.28 130.53,301.46 132.60,306.38 134.67,311.05 136.74,315.49 138.81,319.71 140.88,323.72 142.94,327.53 145.01,331.15 147.08,334.59 149.15,337.86 151.22,340.96 153.29,343.91 155.36,346.71 157.43,349.37 159.50,351.90 161.57,354.30 163.64,356.58 165.71,358.75 167.78,360.81 169.85,362.77 171.92,364.63 173.99,366.39 176.06,368.07 178.12,369.67 180.19,371.18 182.26,372.62 184.33,373.99 186.40,375.29 188.47,376.52 190.54,377.69 192.61,378.81 194.68,379.87 196.75,380.87 198.82,381.83 200.89,382.74 202.96,383.60 205.03,384.42 207.10,385.20 209.17,385.93 211.24,386.64 213.31,387.30 215.38,387.94 217.44,388.54 219.51,389.11 221.58,389.66 223.65,390.17 225.72,390.67 227.79,391.13 229.86,391.57 231.93,392.00 234.00,392.40 236.07,392.78 238.14,393.14 240.21,393.48 242.28,393.80 244.35,394.11 246.42,394.41 248.49,394.69 250.56,394.95 252.62,395.21 254.69,395.45 256.76,395.67 258.83,395.89 260.90,396.09 262.97,396.29 265.04,396.48 267.11,396.65 269.18,396.82 271.25,396.98 273.32,397.13 275.39,397.27 277.46,397.41 279.53,397.54 281.60,397.66 283.67,397.78 285.74,397.89 287.81,398.00 289.88,398.10 291.94,398.19 294.01,398.28 296.08,398.37 298.15,398.45 300.22,398.53 302.29,398.60 304.36,398.67 306.43,398.74 308.50,398.80 310.57,398.86 312.64,398.92 314.71,398.97 316.78,399.02 318.85,399.07 320.92,399.12 322.99,399.16 325.06,399.21 327.12,399.25 329.19,399.28 331.26,399.32 333.33,399.35 335.40,399.39 337.47,399.42 339.54,399.45 341.61,399.47 343.68,399.50 345.75,399.53 347.82,399.55 349.89,399.57 351.96,399.59 354.03,399.61 356.10,399.63 358.17,399.65 360.24,399.67 362.31,399.69 364.38,399.70 366.44,399.72 368.51,399.73 370.58,399.75 372.65,399.76 374.72,399.77 376.79,399.78 378.86,399.79 380.93,399.80 383.00,399.81 385.07,399.82 387.14,399.83 389.21,399.84 391.28,399.85 393.35,399.86 395.42,399.86 397.49,399.87 399.56,399.88 401.62,399.88 403.69,399.89 405.76,399.90 407.83,399.90 409.90,399.91 411.97,399.91 414.04,399.92 416.11,399.92 418.18,399.92 420.25,399.93 422.32,399.93 424.39,399.94 426.46,399.94 428.53,399.94 430.60,399.95 432.67,399.95 434.74,399.95 436.81,399.95 438.88,399.96 440.94,399.96 443.01,399.96 445.08,399.96 447.15,399.97 449.22,399.97 451.29,399.97 453.36,399.97 455.43,399.97 457.50,399.97 459.57,399.98 461.64,399.98 463.71,399.98 465.78,399.98 467.85,399.98 469.92,399.98 471.99,399.98 474.06,399.98 476.12,399.98 478.19,399.99 480.26,399.99 482.33,399.99 484.40,399.99 486.47,399.99 488.54,399.99 490.61,399.99 492.68,399.99 494.75,399.99 496.82,399.99 498.89,399.99 500.96,399.99 503.03,399.99 505.10,399.99 507.17,400.00 509.24,400.00 511.31,400.00 513.38,400.00 515.44,400.00 517.51,400.00 519.58,400.00 521.65,400.00 523.72,400.00 525.79,400.00 527.86,400.00 529.93,400.00 532.00,400.00 534.07,400.00 536.14,400.00 538.21,400.00 540.28,400.00 542.35,400.00 544.42,400.00 546.49,400.00 548.56,400.00 550.62,400.00 552.69,400.00 554.76,400.00 556.83,400.00 558.90,400.00 560.97,400.00 563.04,400.00 565.11,400.00 567.18,400.00 569.25,400.00 571.32,400.00 573.39,400.00 575.46,400.00 577.53,400.00 579.60,400.00 581.67,400.00 583.74,400.00 585.81,400.00 587.88,400.00 589.94,400.00 592.01,400.00 594.08,400.00 596.15,400.00 598.22,400.00 600.29,400.00 602.36,400.00 604.43,400.00 606.50,400.00 608.57,400.00 610.64,400.00 612.71,400.00 614.78,400.00 616.85,400.00 618.92,400.00 620.99,400.00 623.06,400.00 625.12,400.00 627.19,400.00 629.26,400.00 631.33,400.00 633.40,400.00 635.47,400.00 637.54,400.00 639.61,400.00 641.68,400.00 643.75,400.00 645.82,400.00 647.89,400.00 649.96,400.00 652.03,400.00 654.10,400.00 656.17,400.00 658.24,400.00 660.31,400.00 662.38,400.00 664.44,400.00 666.51,400.00 668.58,400.00 670.65,400.00 672.72,400.00 674.79,400.00 676.86,400.00 678.93,400.00 681.00,400.00 683.07,400.00 685.14,400.00 687.21,400.00 689.28,400.00 691.35,400.00 693.42,400.00 695.49,400.00 697.56,400.00 699.62,400.00 701.69,400.00 703.76,400.00 705.83,400.00 707.90,400.00 709.97,400.00 712.04,400.00 714.11,400.00 716.18,400.00 718.25,400.00 720.32,400.00 722.39,400.00 724.46,400.00 726.53,400.00 728.60,400.00 730.67,400.00 732.74,400.00 734.81,400.00 736.88,400.00 738.94,400.00 741.01,400.00 743.08,400.00 745.15,400.00 747.22,400.00 749.29,400.00 751.36,400.00 753.43,400.00 755.50,400.00 757.57,400.00 759.64,400.00 761.71,400.00 763.78,400.00 765.85,400.00 767.92,400.00 769.99,400.00 772.06,400.00 774.12,400.00 776.19,400.00 778.26,400.00 780.33,400.00 782.40,400.00 784.47,400.00 786.54,400.00 788.61,400.00 790.68,400.00 792.75,400.00 794.82,400.00 796.89,400.00 798.96,400.00 801.03,400.00 803.10,400.00 805.17,400.00 807.24,400.00 809.31,400.00 811.38,400.00 813.44,400.00 815.51,400.00 817.58,400.00 819.65,400.00 821.72,400.00 823.79,400.00 825.86,400.00 827.93,400.00 830.00,400.00" fill="none" stroke="#2ca02c" stroke-width="2.2"/>
<line x1="850" y1="110" x2="885" y2="110" stroke="#2ca02c" stroke-width="3"/>
<text x="892" y="115" font-family="Arial" font-size="13">alpha=0.1</text>
<polyline points="85.00,95.86 87.07,110.12 89.14,123.68 91.21,136.57 93.28,148.83 95.35,160.49 97.42,171.57 99.49,182.11 101.56,192.13 103.62,201.66 105.69,210.73 107.76,219.34 109.83,227.54 111.90,235.33 113.97,242.74 116.04,249.78 118.11,256.48 120.18,262.85 122.25,268.91 124.32,274.66 126.39,280.14 128.46,285.35 130.53,290.30 132.60,295.01 134.67,299.48 136.74,303.74 138.81,307.79 140.88,311.64 142.94,315.30 145.01,318.78 147.08,322.09 149.15,325.23 151.22,328.23 153.29,331.07 155.36,333.78 157.43,336.35 159.50,338.80 161.57,341.12 163.64,343.33 165.71,345.44 167.78,347.44 169.85,349.34 171.92,351.15 173.99,352.86 176.06,354.50 178.12,356.05 180.19,357.53 182.26,358.94 184.33,360.27 186.40,361.55 188.47,362.75 190.54,363.90 192.61,365.00 194.68,366.04 196.75,367.02 198.82,367.96 200.89,368.86 202.96,369.71 205.03,370.51 207.10,371.28 209.17,372.01 211.24,372.71 213.31,373.37 215.38,373.99 217.44,374.59 219.51,375.16 221.58,375.70 223.65,376.21 225.72,376.70 227.79,377.16 229.86,377.61 231.93,378.02 234.00,378.42 236.07,378.80 238.14,379.16 240.21,379.51 242.28,379.83 244.35,380.14 246.42,380.44 248.49,380.72 250.56,380.99 252.62,381.24 254.69,381.48 256.76,381.71 258.83,381.93 260.90,382.14 262.97,382.33 265.04,382.52 267.11,382.70 269.18,382.87 271.25,383.03 273.32,383.18 275.39,383.33 277.46,383.47 279.53,383.60 281.60,383.72 283.67,383.84 285.74,383.96 287.81,384.06 289.88,384.17 291.94,384.26 294.01,384.36 296.08,384.44 298.15,384.53 300.22,384.61 302.29,384.68 304.36,384.75 306.43,384.82 308.50,384.89 310.57,384.95 312.64,385.01 314.71,385.07 316.78,385.12 318.85,385.17 320.92,385.22 322.99,385.26 325.06,385.31 327.12,385.35 329.19,385.39 331.26,385.42 333.33,385.46 335.40,385.49 337.47,385.53 339.54,385.56 341.61,385.59 343.68,385.61 345.75,385.64 347.82,385.66 349.89,385.69 351.96,385.71 354.03,385.73 356.10,385.75 358.17,385.77 360.24,385.79 362.31,385.81 364.38,385.82 366.44,385.84 368.51,385.86 370.58,385.87 372.65,385.88 374.72,385.90 376.79,385.91 378.86,385.92 380.93,385.93 383.00,385.94 385.07,385.95 387.14,385.96 389.21,385.97 391.28,385.98 393.35,385.99 395.42,386.00 397.49,386.00 399.56,386.01 401.62,386.02 403.69,386.02 405.76,386.03 407.83,386.04 409.90,386.04 411.97,386.05 414.04,386.05 416.11,386.06 418.18,386.06 420.25,386.07 422.32,386.07 424.39,386.07 426.46,386.08 428.53,386.08 430.60,386.08 432.67,386.09 434.74,386.09 436.81,386.09 438.88,386.10 440.94,386.10 443.01,386.10 445.08,386.10 447.15,386.11 449.22,386.11 451.29,386.11 453.36,386.11 455.43,386.11 457.50,386.11 459.57,386.12 461.64,386.12 463.71,386.12 465.78,386.12 467.85,386.12 469.92,386.12 471.99,386.12 474.06,386.13 476.12,386.13 478.19,386.13 480.26,386.13 482.33,386.13 484.40,386.13 486.47,386.13 488.54,386.13 490.61,386.13 492.68,386.13 494.75,386.13 496.82,386.14 498.89,386.14 500.96,386.14 503.03,386.14 505.10,386.14 507.17,386.14 509.24,386.14 511.31,386.14 513.38,386.14 515.44,386.14 517.51,386.14 519.58,386.14 521.65,386.14 523.72,386.14 525.79,386.14 527.86,386.14 529.93,386.14 532.00,386.14 534.07,386.14 536.14,386.14 538.21,386.14 540.28,386.14 542.35,386.14 544.42,386.14 546.49,386.14 548.56,386.14 550.62,386.14 552.69,386.15 554.76,386.15 556.83,386.15 558.90,386.15 560.97,386.15 563.04,386.15 565.11,386.15 567.18,386.15 569.25,386.15 571.32,386.15 573.39,386.15 575.46,386.15 577.53,386.15 579.60,386.15 581.67,386.15 583.74,386.15 585.81,386.15 587.88,386.15 589.94,386.15 592.01,386.15 594.08,386.15 596.15,386.15 598.22,386.15 600.29,386.15 602.36,386.15 604.43,386.15 606.50,386.15 608.57,386.15 610.64,386.15 612.71,386.15 614.78,386.15 616.85,386.15 618.92,386.15 620.99,386.15 623.06,386.15 625.12,386.15 627.19,386.15 629.26,386.15 631.33,386.15 633.40,386.15 635.47,386.15 637.54,386.15 639.61,386.15 641.68,386.15 643.75,386.15 645.82,386.15 647.89,386.15 649.96,386.15 652.03,386.15 654.10,386.15 656.17,386.15 658.24,386.15 660.31,386.15 662.38,386.15 664.44,386.15 666.51,386.15 668.58,386.15 670.65,386.15 672.72,386.15 674.79,386.15 676.86,386.15 678.93,386.15 681.00,386.15 683.07,386.15 685.14,386.15 687.21,386.15 689.28,386.15 691.35,386.15 693.42,386.15 695.49,386.15 697.56,386.15 699.62,386.15 701.69,386.15 703.76,386.15 705.83,386.15 707.90,386.15 709.97,386.15 712.04,386.15 714.11,386.15 716.18,386.15 718.25,386.15 720.32,386.15 722.39,386.15 724.46,386.15 726.53,386.15 728.60,386.15 730.67,386.15 732.74,386.15 734.81,386.15 736.88,386.15 738.94,386.15 741.01,386.15 743.08,386.15 745.15,386.15 747.22,386.15 749.29,386.15 751.36,386.15 753.43,386.15 755.50,386.15 757.57,386.15 759.64,386.15 761.71,386.15 763.78,386.15 765.85,386.15 767.92,386.15 769.99,386.15 772.06,386.15 774.12,386.15 776.19,386.15 778.26,386.15 780.33,386.15 782.40,386.15 784.47,386.15 786.54,386.15 788.61,386.15 790.68,386.15 792.75,386.15 794.82,386.15 796.89,386.15 798.96,386.15 801.03,386.15 803.10,386.15 805.17,386.15 807.24,386.15 809.31,386.15 811.38,386.15 813.44,386.15 815.51,386.15 817.58,386.15 819.65,386.15 821.72,386.15 823.79,386.15 825.86,386.15 827.93,386.15 830.00,386.15" fill="none" stroke="#1f77b4" stroke-width="2.2"/>
<line x1="850" y1="135" x2="885" y2="135" stroke="#1f77b4" stroke-width="3"/>
<text x="892" y="140" font-family="Arial" font-size="13">alpha=0.03</text>
<polyline points="85.00,95.86 87.07,109.86 89.14,123.16 91.21,135.82 93.28,147.86 95.35,159.31 97.42,170.21 99.49,180.57 101.56,190.42 103.62,199.79 105.69,208.70 107.76,217.18 109.83,225.24 111.90,232.91 113.97,240.20 116.04,247.14 118.11,253.74 120.18,260.01 122.25,265.98 124.32,271.66 126.39,277.06 128.46,282.19 130.53,287.08 132.60,291.72 134.67,296.14 136.74,300.34 138.81,304.34 140.88,308.14 142.94,311.76 145.01,315.20 147.08,318.47 149.15,321.58 151.22,324.54 153.29,327.35 155.36,330.03 157.43,332.57 159.50,335.00 161.57,337.30 163.64,339.49 165.71,341.57 167.78,343.55 169.85,345.44 171.92,347.23 173.99,348.94 176.06,350.56 178.12,352.10 180.19,353.57 182.26,354.96 184.33,356.29 186.40,357.55 188.47,358.75 190.54,359.89 192.61,360.98 194.68,362.01 196.75,362.99 198.82,363.93 200.89,364.82 202.96,365.66 205.03,366.46 207.10,367.23 209.17,367.96 211.24,368.65 213.31,369.31 215.38,369.93 217.44,370.53 219.51,371.09 221.58,371.63 223.65,372.14 225.72,372.63 227.79,373.09 229.86,373.53 231.93,373.95 234.00,374.35 236.07,374.73 238.14,375.09 240.21,375.43 242.28,375.76 244.35,376.07 246.42,376.36 248.49,376.64 250.56,376.91 252.62,377.16 254.69,377.41 256.76,377.64 258.83,377.85 260.90,378.06 262.97,378.26 265.04,378.45 267.11,378.63 269.18,378.80 271.25,378.96 273.32,379.11 275.39,379.26 277.46,379.40 279.53,379.53 281.60,379.65 283.67,379.77 285.74,379.89 287.81,380.00 289.88,380.10 291.94,380.20 294.01,380.29 296.08,380.38 298.15,380.46 300.22,380.54 302.29,380.62 304.36,380.69 306.43,380.76 308.50,380.83 310.57,380.89 312.64,380.95 314.71,381.00 316.78,381.06 318.85,381.11 320.92,381.16 322.99,381.20 325.06,381.25 327.12,381.29 329.19,381.33 331.26,381.37 333.33,381.40 335.40,381.44 337.47,381.47 339.54,381.50 341.61,381.53 343.68,381.56 345.75,381.59 347.82,381.61 349.89,381.63 351.96,381.66 354.03,381.68 356.10,381.70 358.17,381.72 360.24,381.74 362.31,381.76 364.38,381.77 366.44,381.79 368.51,381.80 370.58,381.82 372.65,381.83 374.72,381.85 376.79,381.86 378.86,381.87 380.93,381.88 383.00,381.89 385.07,381.90 387.14,381.91 389.21,381.92 391.28,381.93 393.35,381.94 395.42,381.95 397.49,381.95 399.56,381.96 401.62,381.97 403.69,381.98 405.76,381.98 407.83,381.99 409.90,381.99 411.97,382.00 414.04,382.00 416.11,382.01 418.18,382.01 420.25,382.02 422.32,382.02 424.39,382.03 426.46,382.03 428.53,382.03 430.60,382.04 432.67,382.04 434.74,382.04 436.81,382.05 438.88,382.05 440.94,382.05 443.01,382.05 445.08,382.06 447.15,382.06 449.22,382.06 451.29,382.06 453.36,382.06 455.43,382.07 457.50,382.07 459.57,382.07 461.64,382.07 463.71,382.07 465.78,382.07 467.85,382.08 469.92,382.08 471.99,382.08 474.06,382.08 476.12,382.08 478.19,382.08 480.26,382.08 482.33,382.08 484.40,382.08 486.47,382.09 488.54,382.09 490.61,382.09 492.68,382.09 494.75,382.09 496.82,382.09 498.89,382.09 500.96,382.09 503.03,382.09 505.10,382.09 507.17,382.09 509.24,382.09 511.31,382.09 513.38,382.09 515.44,382.09 517.51,382.09 519.58,382.09 521.65,382.10 523.72,382.10 525.79,382.10 527.86,382.10 529.93,382.10 532.00,382.10 534.07,382.10 536.14,382.10 538.21,382.10 540.28,382.10 542.35,382.10 544.42,382.10 546.49,382.10 548.56,382.10 550.62,382.10 552.69,382.10 554.76,382.10 556.83,382.10 558.90,382.10 560.97,382.10 563.04,382.10 565.11,382.10 567.18,382.10 569.25,382.10 571.32,382.10 573.39,382.10 575.46,382.10 577.53,382.10 579.60,382.10 581.67,382.10 583.74,382.10 585.81,382.10 587.88,382.10 589.94,382.10 592.01,382.10 594.08,382.10 596.15,382.10 598.22,382.10 600.29,382.10 602.36,382.10 604.43,382.10 606.50,382.10 608.57,382.10 610.64,382.10 612.71,382.10 614.78,382.10 616.85,382.10 618.92,382.10 620.99,382.10 623.06,382.10 625.12,382.10 627.19,382.10 629.26,382.10 631.33,382.10 633.40,382.10 635.47,382.10 637.54,382.10 639.61,382.10 641.68,382.10 643.75,382.10 645.82,382.10 647.89,382.10 649.96,382.10 652.03,382.10 654.10,382.10 656.17,382.10 658.24,382.10 660.31,382.10 662.38,382.10 664.44,382.10 666.51,382.10 668.58,382.10 670.65,382.10 672.72,382.10 674.79,382.10 676.86,382.10 678.93,382.10 681.00,382.10 683.07,382.10 685.14,382.10 687.21,382.10 689.28,382.10 691.35,382.10 693.42,382.10 695.49,382.10 697.56,382.10 699.62,382.10 701.69,382.10 703.76,382.10 705.83,382.10 707.90,382.10 709.97,382.10 712.04,382.10 714.11,382.10 716.18,382.10 718.25,382.10 720.32,382.10 722.39,382.10 724.46,382.10 726.53,382.10 728.60,382.10 730.67,382.10 732.74,382.10 734.81,382.10 736.88,382.10 738.94,382.10 741.01,382.10 743.08,382.10 745.15,382.10 747.22,382.10 749.29,382.10 751.36,382.10 753.43,382.10 755.50,382.10 757.57,382.10 759.64,382.10 761.71,382.10 763.78,382.10 765.85,382.10 767.92,382.10 769.99,382.10 772.06,382.10 774.12,382.10 776.19,382.10 778.26,382.10 780.33,382.10 782.40,382.10 784.47,382.10 786.54,382.10 788.61,382.10 790.68,382.10 792.75,382.10 794.82,382.10 796.89,382.10 798.96,382.10 801.03,382.10 803.10,382.10 805.17,382.10 807.24,382.10 809.31,382.10 811.38,382.10 813.44,382.10 815.51,382.10 817.58,382.10 819.65,382.10 821.72,382.10 823.79,382.10 825.86,382.10 827.93,382.10 830.00,382.10" fill="none" stroke="#9467bd" stroke-width="2.2"/>
<line x1="850" y1="160" x2="885" y2="160" stroke="#9467bd" stroke-width="3"/>
<text x="892" y="165" font-family="Arial" font-size="13">alpha=0.01</text>
</svg>