<svg xmlns="http://www.w3.org/2000/svg" width="1000" height="620" viewBox="0 0 1000 620">
<rect width="100%" height="100%" fill="white"/>
<text x="500.0" y="30" text-anchor="middle" font-family="Arial" font-size="20">Driven Langevin ensemble: bath targets and kinetic temperatures</text>
<line x1="80" y1="550" x2="830" y2="550" stroke="black"/>
<line x1="80" y1="55" x2="80" y2="550" stroke="black"/>
<text x="500.0" y="600" text-anchor="middle" font-family="Arial" font-size="15">time</text>
<text x="22" y="310.0" transform="rotate(-90 22 310.0)" text-anchor="middle" font-family="Arial" font-size="15">temperature</text>
<line x1="80.00" y1="55" x2="80.00" y2="550" stroke="#ddd"/>
<text x="80.00" y="572" text-anchor="middle" font-family="Arial" font-size="12">0</text>
<line x1="80" y1="550.00" x2="830" y2="550.00" stroke="#ddd"/>
<text x="70" y="554.00" text-anchor="end" font-family="Arial" font-size="12">-0.123</text>
<line x1="267.50" y1="55" x2="267.50" y2="550" stroke="#ddd"/>
<text x="267.50" y="572" text-anchor="middle" font-family="Arial" font-size="12">40</text>
<line x1="80" y1="426.25" x2="830" y2="426.25" stroke="#ddd"/>
<text x="70" y="430.25" text-anchor="end" font-family="Arial" font-size="12">0.299</text>
<line x1="455.00" y1="55" x2="455.00" y2="550" stroke="#ddd"/>
<text x="455.00" y="572" text-anchor="middle" font-family="Arial" font-size="12">80</text>
<line x1="80" y1="302.50" x2="830" y2="302.50" stroke="#ddd"/>
<text x="70" y="306.50" text-anchor="end" font-family="Arial" font-size="12">0.722</text>
<line x1="642.50" y1="55" x2="642.50" y2="550" stroke="#ddd"/>
<text x="642.50" y="572" text-anchor="middle" font-family="Arial" font-size="12">120</text>
<line x1="80" y1="178.75" x2="830" y2="178.75" stroke="#ddd"/>
<text x="70" y="182.75" text-anchor="end" font-family="Arial" font-size="12">1.14</text>
<line x1="830.00" y1="55" x2="830.00" y2="550" stroke="#ddd"/>
<text x="830.00" y="572" text-anchor="middle" font-family="Arial" font-size="12">160</text>
<line x1="80" y1="55.00" x2="830" y2="55.00" stroke="#ddd"/>
<text x="70" y="59.00" text-anchor="end" font-family="Arial" font-size="12">1.57</text>
<polyline points="80.00,89.14 80.94,163.85 81.88,210.19 82.81,239.35 83.75,258.13 84.69,270.64 85.62,279.36 86.56,285.79 87.50,290.87 88.44,295.12 89.38,298.90 90.31,302.40 91.25,305.73 92.19,308.98 93.12,312.18 94.06,315.36 95.00,318.54 95.94,321.71 96.88,324.89 97.81,328.07 98.75,331.25 99.69,334.43 100.62,337.62 101.56,340.80 102.50,343.98 103.44,347.15 104.38,350.30 105.31,353.45 106.25,356.58 107.19,359.70 108.12,362.80 109.06,365.87 110.00,368.92 110.94,371.94 111.88,374.94 112.81,377.91 113.75,380.84 114.69,383.74 115.62,386.60 116.56,389.43 117.50,392.21 118.44,394.96 119.38,397.66 120.31,400.32 121.25,402.93 122.19,405.49 123.12,408.01 124.06,410.47 125.00,412.89 125.94,415.25 126.88,417.56 127.81,419.81 128.75,422.01 129.69,424.15 130.62,426.24 131.56,428.26 132.50,430.23 133.44,432.14 134.38,433.98 135.31,435.77 136.25,437.49 137.19,439.16 138.12,440.76 139.06,442.30 140.00,443.78 140.94,445.19 141.88,446.54 142.81,447.83 143.75,449.06 144.69,450.22 145.62,451.32 146.56,452.36 147.50,453.33 148.44,454.24 149.38,455.10 150.31,455.88 151.25,456.61 152.19,457.28 153.12,457.89 154.06,458.43 155.00,458.92 155.94,459.35 156.88,459.72 157.81,460.03 158.75,460.29 159.69,460.49 160.62,460.63 161.56,460.73 162.50,460.76 163.44,460.75 164.38,460.68 165.31,460.56 166.25,460.40 167.19,460.18 168.12,459.92 169.06,459.60 170.00,459.25 170.94,458.85 171.88,458.40 172.81,457.91 173.75,457.39 174.69,456.82 175.62,456.21 176.56,455.56 177.50,454.88 178.44,454.16 179.38,453.41 180.31,452.63 181.25,451.81 182.19,450.96 183.12,450.09 184.06,449.18 185.00,448.25 185.94,447.29 186.88,446.31 187.81,445.31 188.75,444.28 189.69,443.23 190.62,442.17 191.56,441.08 192.50,439.98 193.44,438.86 194.38,437.73 195.31,436.59 196.25,435.43 197.19,434.26 198.12,433.08 199.06,431.90 200.00,430.70 200.94,429.50 201.88,428.30 202.81,427.09 203.75,425.88 204.69,424.66 205.62,423.45 206.56,422.23 207.50,421.02 208.44,419.81 209.38,418.60 210.31,417.40 211.25,416.20 212.19,415.00 213.12,413.82 214.06,412.64 215.00,411.47 215.94,410.31 216.88,409.16 217.81,408.02 218.75,406.90 219.69,405.78 220.62,404.68 221.56,403.60 222.50,402.53 223.44,401.47 224.38,400.43 225.31,399.41 226.25,398.40 227.19,397.42 228.12,396.45 229.06,395.50 230.00,394.56 230.94,393.65 231.88,392.76 232.81,391.89 233.75,391.04 234.69,390.21 235.62,389.41 236.56,388.62 237.50,387.86 238.44,387.12 239.38,386.41 240.31,385.71 241.25,385.04 242.19,384.40 243.13,383.78 244.06,383.18 245.00,382.60 245.94,382.05 246.88,381.52 247.81,381.02 248.75,380.54 249.69,380.08 250.62,379.65 251.56,379.25 252.50,378.86 253.44,378.50 254.38,378.17 255.31,377.85 256.25,377.57 257.19,377.30 258.12,377.06 259.06,376.84 260.00,376.64 260.94,376.47 261.88,376.32 262.81,376.19 263.75,376.08 264.69,375.99 265.62,375.93 266.56,375.88 267.50,375.86 268.44,375.85 269.38,375.87 270.31,375.91 271.25,375.96 272.19,376.03 273.12,376.13 274.06,376.24 275.00,376.37 275.94,376.51 276.88,376.67 277.81,376.85 278.75,377.05 279.69,377.26 280.62,377.48 281.56,377.72 282.50,377.98 283.44,378.24 284.38,378.52 285.31,378.82 286.25,379.12 287.19,379.44 288.12,379.77 289.06,380.11 290.00,380.46 290.94,380.82 291.88,381.20 292.81,381.57 293.75,381.96 294.69,382.36 295.62,382.76 296.56,383.17 297.50,383.59 298.44,384.02 299.38,384.45 300.31,384.88 301.25,385.32 302.19,385.76 303.12,386.21 304.06,386.66 305.00,387.12 305.94,387.58 306.88,388.03 307.81,388.50 308.75,388.96 309.69,389.42 310.62,389.89 311.56,390.35 312.50,390.81 313.44,391.28 314.38,391.74 315.31,392.20 316.25,392.66 317.19,393.11 318.12,393.57 319.06,394.02 320.00,394.47 320.94,394.91 321.88,395.35 322.81,395.79 323.75,396.22 324.69,396.65 325.62,397.07 326.56,397.49 327.50,397.90 328.44,398.31 329.38,398.71 330.31,399.10 331.25,399.49 332.19,399.87 333.12,400.24 334.06,400.61 335.00,400.97 335.94,401.32 336.88,401.66 337.81,402.00 338.75,402.33 339.69,402.65 340.62,402.96 341.56,403.26 342.50,403.56 343.44,403.84 344.38,404.12 345.31,404.39 346.25,404.65 347.19,404.90 348.13,405.14 349.06,405.38 350.00,405.60 350.94,405.81 351.88,406.02 352.81,406.22 353.75,406.40 354.69,406.58 355.63,406.75 356.56,406.91 357.50,407.06 358.44,407.20 359.38,407.34 360.31,407.46 361.25,407.57 362.19,407.68 363.12,407.78 364.06,407.86 365.00,407.94 365.94,408.01 366.88,408.08 367.81,408.13 368.75,408.17 369.69,408.21 370.62,408.24 371.56,408.26 372.50,408.27 373.44,408.28 374.38,408.28 375.31,408.27 376.25,408.25 377.19,408.22 378.12,408.19 379.06,408.15 380.00,408.11 380.94,408.05 381.88,408.00 382.81,407.93 383.75,407.86 384.69,407.78 385.62,407.70 386.56,407.61 387.50,407.51 388.44,407.41 389.38,407.31 390.31,407.20 391.25,407.08 392.19,406.97 393.12,406.84 394.06,406.71 395.00,406.58 395.94,406.44 396.88,406.31 397.81,406.16 398.75,406.02 399.69,405.87 400.63,405.71 401.56,405.56 402.50,405.40 403.44,405.24 404.38,405.07 405.31,404.91 406.25,404.74 407.19,404.57 408.12,404.40 409.06,404.23 410.00,404.06 410.94,403.88 411.88,403.71 412.81,403.53 413.75,403.36 414.69,403.18 415.63,403.00 416.56,402.83 417.50,402.65 418.44,402.47 419.38,402.29 420.31,402.12 421.25,401.94 422.19,401.77 423.12,401.59 424.06,401.42 425.00,401.25 425.94,401.08 426.88,400.91 427.81,400.74 428.75,400.58 429.69,400.41 430.62,400.25 431.56,400.09 432.50,399.93 433.44,399.78 434.38,399.62 435.31,399.47 436.25,399.32 437.19,399.18 438.12,399.03 439.06,398.89 440.00,398.75 440.94,398.62 441.88,398.48 442.81,398.35 443.75,398.23 444.69,398.10 445.62,397.98 446.56,397.87 447.50,397.75 448.44,397.64 449.38,397.53 450.31,397.43 451.25,397.33 452.19,397.23 453.13,397.14 454.06,397.05 455.00,396.96 455.94,396.87 456.88,396.79 457.81,396.72 458.75,396.64 459.69,396.58 460.63,396.51 461.56,396.45 462.50,396.39 463.44,396.33 464.37,396.28 465.31,396.23 466.25,396.19 467.19,396.14 468.12,396.10 469.06,396.07 470.00,396.04 470.94,396.01 471.88,395.98 472.81,395.96 473.75,395.94 474.69,395.93 475.63,395.92 476.56,395.91 477.50,395.90 478.44,395.90 479.38,395.90 480.31,395.90 481.25,395.90 482.19,395.91 483.12,395.92 484.06,395.94 485.00,395.95 485.94,395.97 486.88,395.99 487.81,396.02 488.75,396.04 489.69,396.07 490.63,396.10 491.56,396.14 492.50,396.17 493.44,396.21 494.38,396.25 495.31,396.29 496.25,396.33 497.19,396.38 498.12,396.42 499.06,396.47 500.00,396.52 500.94,396.57 501.88,396.62 502.81,396.68 503.75,396.73 504.69,396.79 505.62,396.85 506.56,396.91 507.50,396.97 508.44,397.03 509.38,397.09 510.31,397.15 511.25,397.22 512.19,397.28 513.12,397.35 514.06,397.41 515.00,397.48 515.94,397.54 516.88,397.61 517.81,397.68 518.75,397.74 519.69,397.81 520.62,397.88 521.56,397.95 522.50,398.01 523.44,398.08 524.38,398.15 525.31,398.22 526.25,398.28 527.19,398.35 528.12,398.42 529.06,398.48 530.00,398.55 530.94,398.61 531.88,398.68 532.81,398.74 533.75,398.81 534.69,398.87 535.62,398.93 536.56,398.99 537.50,399.05 538.44,399.11 539.38,399.17 540.31,399.23 541.25,399.29 542.19,399.35 543.12,399.40 544.06,399.46 545.00,399.51 545.94,399.56 546.88,399.61 547.81,399.66 548.75,399.71 549.69,399.76 550.62,399.81 551.56,399.85 552.50,399.90 553.44,399.94 554.38,399.98 555.31,400.02 556.25,400.06 557.19,400.10 558.12,400.13 559.06,400.17 560.00,400.20 560.94,400.24 561.88,400.27 562.81,400.30 563.75,400.33 564.69,400.35 565.62,400.38 566.56,400.40 567.50,400.43 568.44,400.45 569.38,400.47 570.31,400.49 571.25,400.51 572.19,400.52 573.12,400.54 574.06,400.55 575.00,400.56 575.94,400.58 576.88,400.59 577.81,400.60 578.75,400.60 579.69,400.61 580.62,400.61 581.56,400.62 582.50,400.62 583.44,400.62 584.38,400.62 585.31,400.62 586.25,400.62 587.19,400.62 588.12,400.62 589.06,400.61 590.00,400.61 590.94,400.60 591.88,400.59 592.81,400.58 593.75,400.57 594.69,400.56 595.62,400.55 596.56,400.54 597.50,400.53 598.44,400.51 599.38,400.50 600.31,400.48 601.25,400.47 602.19,400.45 603.12,400.43 604.06,400.41 605.00,400.40 605.94,400.38 606.88,400.36 607.81,400.34 608.75,400.31 609.69,400.29 610.62,400.27 611.56,400.25 612.50,400.23 613.44,400.20 614.38,400.18 615.31,400.16 616.25,400.13 617.19,400.11 618.12,400.08 619.06,400.06 620.00,400.03 620.94,400.01 621.88,399.98 622.81,399.96 623.75,399.93 624.69,399.91 625.62,399.88 626.56,399.85 627.50,399.83 628.44,399.80 629.38,399.78 630.31,399.75 631.25,399.72 632.19,399.70 633.12,399.67 634.06,399.65 635.00,399.62 635.94,399.60 636.88,399.57 637.81,399.55 638.75,399.52 639.69,399.50 640.62,399.48 641.56,399.45 642.50,399.43 643.44,399.41 644.38,399.38 645.31,399.36 646.25,399.34 647.19,399.32 648.12,399.30 649.06,399.27 650.00,399.25 650.94,399.23 651.88,399.21 652.81,399.19 653.75,399.18 654.69,399.16 655.62,399.14 656.56,399.12 657.50,399.10 658.44,399.09 659.38,399.07 660.31,399.06 661.25,399.04 662.19,399.03 663.13,399.01 664.06,399.00 665.00,398.99 665.94,398.97 666.88,398.96 667.81,398.95 668.75,398.94 669.69,398.93 670.62,398.92 671.56,398.91 672.50,398.90 673.44,398.89 674.38,398.88 675.31,398.87 676.25,398.87 677.19,398.86 678.13,398.85 679.06,398.85 680.00,398.84 680.94,398.84 681.88,398.84 682.81,398.83 683.75,398.83 684.69,398.83 685.62,398.82 686.56,398.82 687.50,398.82 688.44,398.82 689.38,398.82 690.31,398.82 691.25,398.82 692.19,398.82 693.13,398.82 694.06,398.82 695.00,398.82 695.94,398.83 696.88,398.83 697.81,398.83 698.75,398.84 699.69,398.84 700.62,398.84 701.56,398.85 702.50,398.85 703.44,398.86 704.37,398.86 705.31,398.87 706.25,398.88 707.19,398.88 708.12,398.89 709.06,398.90 710.00,398.90 710.94,398.91 711.88,398.92 712.81,398.93 713.75,398.93 714.69,398.94 715.62,398.95 716.56,398.96 717.50,398.97 718.44,398.98 719.38,398.98 720.31,398.99 721.25,399.00 722.19,399.01 723.13,399.02 724.06,399.03 725.00,399.04 725.94,399.05 726.88,399.06 727.81,399.07 728.75,399.08 729.69,399.09 730.62,399.10 731.56,399.11 732.50,399.12 733.44,399.13 734.38,399.14 735.31,399.15 736.25,399.16 737.19,399.17 738.12,399.18 739.06,399.19 740.00,399.20 740.94,399.21 741.88,399.22 742.81,399.23 743.75,399.23 744.69,399.24 745.62,399.25 746.56,399.26 747.50,399.27 748.44,399.28 749.38,399.29 750.31,399.30 751.25,399.31 752.19,399.31 753.12,399.32 754.06,399.33 755.00,399.34 755.94,399.35 756.88,399.35 757.81,399.36 758.75,399.37 759.69,399.38 760.63,399.38 761.56,399.39 762.50,399.40 763.44,399.40 764.38,399.41 765.31,399.41 766.25,399.42 767.19,399.43 768.13,399.43 769.06,399.44 770.00,399.44 770.94,399.45 771.88,399.45 772.81,399.46 773.75,399.46 774.69,399.46 775.62,399.47 776.56,399.47 777.50,399.48 778.44,399.48 779.38,399.48 780.31,399.49 781.25,399.49 782.19,399.49 783.12,399.49 784.06,399.50 785.00,399.50 785.94,399.50 786.88,399.50 787.81,399.50 788.75,399.50 789.69,399.51 790.62,399.51 791.56,399.51 792.50,399.51 793.44,399.51 794.38,399.51 795.31,399.51 796.25,399.51 797.19,399.51 798.13,399.51 799.06,399.51 800.00,399.51 800.94,399.51 801.88,399.50 802.81,399.50 803.75,399.50 804.69,399.50 805.62,399.50 806.56,399.50 807.50,399.50 808.44,399.49 809.37,399.49 810.31,399.49 811.25,399.49 812.19,399.49 813.12,399.48 814.06,399.48 815.00,399.48 815.94,399.47 816.88,399.47 817.81,399.47 818.75,399.47 819.69,399.46 820.62,399.46 821.56,399.46 822.50,399.45 823.44,399.45 824.38,399.45 825.31,399.44 826.25,399.44 827.19,399.44 828.12,399.43 829.06,399.43 830.00,399.43" fill="none" stroke="#1f77b4" stroke-width="2"/>
<line x1="855" y1="55" x2="885" y2="55" stroke="#1f77b4" stroke-width="3"/>
<text x="892" y="60" font-family="Arial" font-size="13">bath T1</text>
<polyline points="80.00,235.64 80.94,303.89 81.88,343.77 82.81,366.46 83.75,378.78 84.69,384.82 85.62,387.09 86.56,387.10 87.50,385.76 88.44,383.64 89.38,381.08 90.31,378.27 91.25,375.34 92.19,372.37 93.12,369.41 94.06,366.49 95.00,363.61 95.94,360.80 96.88,358.06 97.81,355.40 98.75,352.82 99.69,350.32 100.62,347.90 101.56,345.56 102.50,343.31 103.44,341.15 104.38,339.07 105.31,337.07 106.25,335.17 107.19,333.35 108.12,331.61 109.06,329.96 110.00,328.40 110.94,326.93 111.88,325.54 112.81,324.24 113.75,323.02 114.69,321.89 115.62,320.85 116.56,319.89 117.50,319.01 118.44,318.21 119.38,317.50 120.31,316.87 121.25,316.31 122.19,315.84 123.12,315.45 124.06,315.13 125.00,314.89 125.94,314.73 126.88,314.64 127.81,314.63 128.75,314.68 129.69,314.81 130.62,315.00 131.56,315.27 132.50,315.60 133.44,315.99 134.38,316.45 135.31,316.98 136.25,317.56 137.19,318.20 138.12,318.90 139.06,319.66 140.00,320.47 140.94,321.33 141.88,322.24 142.81,323.21 143.75,324.22 144.69,325.28 145.62,326.38 146.56,327.53 147.50,328.72 148.44,329.95 149.38,331.21 150.31,332.51 151.25,333.85 152.19,335.22 153.12,336.62 154.06,338.05 155.00,339.50 155.94,340.98 156.88,342.49 157.81,344.02 158.75,345.57 159.69,347.14 160.62,348.73 161.56,350.33 162.50,351.95 163.44,353.58 164.38,355.22 165.31,356.87 166.25,358.52 167.19,360.19 168.12,361.86 169.06,363.53 170.00,365.20 170.94,366.88 171.88,368.55 172.81,370.22 173.75,371.89 174.69,373.55 175.62,375.21 176.56,376.86 177.50,378.50 178.44,380.13 179.38,381.75 180.31,383.35 181.25,384.94 182.19,386.52 183.12,388.08 184.06,389.62 185.00,391.15 185.94,392.66 186.88,394.14 187.81,395.61 188.75,397.05 189.69,398.48 190.62,399.87 191.56,401.25 192.50,402.60 193.44,403.92 194.38,405.22 195.31,406.49 196.25,407.73 197.19,408.94 198.12,410.13 199.06,411.29 200.00,412.41 200.94,413.51 201.88,414.57 202.81,415.61 203.75,416.61 204.69,417.58 205.62,418.52 206.56,419.43 207.50,420.31 208.44,421.15 209.38,421.96 210.31,422.74 211.25,423.48 212.19,424.19 213.12,424.87 214.06,425.51 215.00,426.12 215.94,426.70 216.88,427.25 217.81,427.76 218.75,428.24 219.69,428.69 220.62,429.10 221.56,429.48 222.50,429.83 223.44,430.15 224.38,430.44 225.31,430.69 226.25,430.92 227.19,431.11 228.12,431.28 229.06,431.41 230.00,431.52 230.94,431.59 231.88,431.64 232.81,431.66 233.75,431.65 234.69,431.62 235.62,431.55 236.56,431.46 237.50,431.35 238.44,431.21 239.38,431.05 240.31,430.86 241.25,430.65 242.19,430.41 243.13,430.16 244.06,429.88 245.00,429.58 245.94,429.26 246.88,428.92 247.81,428.56 248.75,428.18 249.69,427.78 250.62,427.37 251.56,426.94 252.50,426.49 253.44,426.03 254.38,425.55 255.31,425.06 256.25,424.56 257.19,424.04 258.12,423.51 259.06,422.97 260.00,422.42 260.94,421.86 261.88,421.29 262.81,420.71 263.75,420.12 264.69,419.52 265.62,418.92 266.56,418.31 267.50,417.70 268.44,417.08 269.38,416.45 270.31,415.82 271.25,415.19 272.19,414.56 273.12,413.92 274.06,413.28 275.00,412.64 275.94,412.01 276.88,411.37 277.81,410.73 278.75,410.09 279.69,409.45 280.62,408.82 281.56,408.19 282.50,407.56 283.44,406.94 284.38,406.32 285.31,405.70 286.25,405.09 287.19,404.49 288.12,403.89 289.06,403.29 290.00,402.71 290.94,402.13 291.88,401.56 292.81,401.00 293.75,400.44 294.69,399.89 295.62,399.35 296.56,398.83 297.50,398.31 298.44,397.80 299.38,397.30 300.31,396.81 301.25,396.33 302.19,395.86 303.12,395.40 304.06,394.95 305.00,394.52 305.94,394.09 306.88,393.68 307.81,393.28 308.75,392.89 309.69,392.51 310.62,392.15 311.56,391.80 312.50,391.46 313.44,391.13 314.38,390.82 315.31,390.51 316.25,390.22 317.19,389.95 318.12,389.68 319.06,389.43 320.00,389.19 320.94,388.96 321.88,388.75 322.81,388.55 323.75,388.36 324.69,388.18 325.62,388.02 326.56,387.87 327.50,387.73 328.44,387.60 329.38,387.48 330.31,387.38 331.25,387.29 332.19,387.21 333.12,387.14 334.06,387.08 335.00,387.04 335.94,387.00 336.88,386.98 337.81,386.97 338.75,386.97 339.69,386.98 340.62,387.00 341.56,387.02 342.50,387.06 343.44,387.11 344.38,387.17 345.31,387.24 346.25,387.31 347.19,387.40 348.13,387.49 349.06,387.60 350.00,387.71 350.94,387.83 351.88,387.95 352.81,388.09 353.75,388.23 354.69,388.38 355.63,388.53 356.56,388.69 357.50,388.86 358.44,389.03 359.38,389.21 360.31,389.40 361.25,389.59 362.19,389.78 363.12,389.98 364.06,390.19 365.00,390.40 365.94,390.61 366.88,390.82 367.81,391.04 368.75,391.27 369.69,391.49 370.62,391.72 371.56,391.95 372.50,392.19 373.44,392.42 374.38,392.66 375.31,392.90 376.25,393.14 377.19,393.38 378.12,393.63 379.06,393.87 380.00,394.11 380.94,394.36 381.88,394.60 382.81,394.85 383.75,395.09 384.69,395.33 385.62,395.58 386.56,395.82 387.50,396.06 388.44,396.30 389.38,396.53 390.31,396.77 391.25,397.00 392.19,397.24 393.12,397.47 394.06,397.69 395.00,397.92 395.94,398.14 396.88,398.36 397.81,398.58 398.75,398.79 399.69,399.00 400.63,399.21 401.56,399.41 402.50,399.61 403.44,399.81 404.38,400.00 405.31,400.19 406.25,400.37 407.19,400.56 408.12,400.73 409.06,400.91 410.00,401.07 410.94,401.24 411.88,401.40 412.81,401.55 413.75,401.70 414.69,401.85 415.63,401.99 416.56,402.13 417.50,402.26 418.44,402.39 419.38,402.51 420.31,402.63 421.25,402.74 422.19,402.85 423.12,402.95 424.06,403.05 425.00,403.14 425.94,403.23 426.88,403.32 427.81,403.40 428.75,403.47 429.69,403.54 430.62,403.60 431.56,403.66 432.50,403.72 433.44,403.77 434.38,403.82 435.31,403.86 436.25,403.90 437.19,403.93 438.12,403.96 439.06,403.98 440.00,404.00 440.94,404.01 441.88,404.03 442.81,404.03 443.75,404.03 444.69,404.03 445.62,404.03 446.56,404.02 447.50,404.00 448.44,403.99 449.38,403.97 450.31,403.94 451.25,403.92 452.19,403.88 453.13,403.85 454.06,403.81 455.00,403.77 455.94,403.73 456.88,403.68 457.81,403.63 458.75,403.58 459.69,403.52 460.63,403.47 461.56,403.40 462.50,403.34 463.44,403.28 464.37,403.21 465.31,403.14 466.25,403.07 467.19,402.99 468.12,402.92 469.06,402.84 470.00,402.76 470.94,402.68 471.88,402.60 472.81,402.52 473.75,402.43 474.69,402.35 475.63,402.26 476.56,402.17 477.50,402.08 478.44,401.99 479.38,401.90 480.31,401.81 481.25,401.72 482.19,401.63 483.12,401.53 484.06,401.44 485.00,401.35 485.94,401.26 486.88,401.16 487.81,401.07 488.75,400.98 489.69,400.88 490.63,400.79 491.56,400.70 492.50,400.61 493.44,400.51 494.38,400.42 495.31,400.33 496.25,400.24 497.19,400.15 498.12,400.07 499.06,399.98 500.00,399.89 500.94,399.81 501.88,399.72 502.81,399.64 503.75,399.56 504.69,399.48 505.62,399.40 506.56,399.32 507.50,399.24 508.44,399.17 509.38,399.09 510.31,399.02 511.25,398.95 512.19,398.88 513.12,398.81 514.06,398.74 515.00,398.68 515.94,398.61 516.88,398.55 517.81,398.49 518.75,398.43 519.69,398.38 520.62,398.32 521.56,398.27 522.50,398.22 523.44,398.17 524.38,398.12 525.31,398.07 526.25,398.03 527.19,397.99 528.12,397.95 529.06,397.91 530.00,397.87 530.94,397.84 531.88,397.81 532.81,397.77 533.75,397.75 534.69,397.72 535.62,397.69 536.56,397.67 537.50,397.65 538.44,397.63 539.38,397.61 540.31,397.59 541.25,397.58 542.19,397.56 543.12,397.55 544.06,397.54 545.00,397.53 545.94,397.53 546.88,397.52 547.81,397.52 548.75,397.52 549.69,397.52 550.62,397.52 551.56,397.52 552.50,397.53 553.44,397.53 554.38,397.54 555.31,397.55 556.25,397.56 557.19,397.57 558.12,397.58 559.06,397.59 560.00,397.61 560.94,397.63 561.88,397.64 562.81,397.66 563.75,397.68 564.69,397.70 565.62,397.72 566.56,397.75 567.50,397.77 568.44,397.79 569.38,397.82 570.31,397.85 571.25,397.87 572.19,397.90 573.12,397.93 574.06,397.96 575.00,397.99 575.94,398.02 576.88,398.05 577.81,398.08 578.75,398.11 579.69,398.15 580.62,398.18 581.56,398.21 582.50,398.25 583.44,398.28 584.38,398.31 585.31,398.35 586.25,398.38 587.19,398.42 588.12,398.45 589.06,398.49 590.00,398.53 590.94,398.56 591.88,398.60 592.81,398.63 593.75,398.67 594.69,398.70 595.62,398.74 596.56,398.77 597.50,398.81 598.44,398.84 599.38,398.88 600.31,398.91 601.25,398.95 602.19,398.98 603.12,399.02 604.06,399.05 605.00,399.08 605.94,399.12 606.88,399.15 607.81,399.18 608.75,399.21 609.69,399.24 610.62,399.27 611.56,399.30 612.50,399.33 613.44,399.36 614.38,399.39 615.31,399.42 616.25,399.45 617.19,399.47 618.12,399.50 619.06,399.53 620.00,399.55 620.94,399.58 621.88,399.60 622.81,399.62 623.75,399.65 624.69,399.67 625.62,399.69 626.56,399.71 627.50,399.73 628.44,399.75 629.38,399.77 630.31,399.78 631.25,399.80 632.19,399.82 633.12,399.83 634.06,399.85 635.00,399.86 635.94,399.88 636.88,399.89 637.81,399.90 638.75,399.91 639.69,399.92 640.62,399.93 641.56,399.94 642.50,399.95 643.44,399.96 644.38,399.97 645.31,399.97 646.25,399.98 647.19,399.99 648.12,399.99 649.06,399.99 650.00,400.00 650.94,400.00 651.88,400.00 652.81,400.00 653.75,400.01 654.69,400.01 655.62,400.01 656.56,400.00 657.50,400.00 658.44,400.00 659.38,400.00 660.31,400.00 661.25,399.99 662.19,399.99 663.13,399.98 664.06,399.98 665.00,399.97 665.94,399.97 666.88,399.96 667.81,399.95 668.75,399.95 669.69,399.94 670.62,399.93 671.56,399.92 672.50,399.91 673.44,399.90 674.38,399.89 675.31,399.88 676.25,399.87 677.19,399.86 678.13,399.85 679.06,399.84 680.00,399.83 680.94,399.82 681.88,399.81 682.81,399.80 683.75,399.78 684.69,399.77 685.62,399.76 686.56,399.75 687.50,399.73 688.44,399.72 689.38,399.71 690.31,399.69 691.25,399.68 692.19,399.67 693.13,399.65 694.06,399.64 695.00,399.63 695.94,399.61 696.88,399.60 697.81,399.59 698.75,399.57 699.69,399.56 700.62,399.55 701.56,399.53 702.50,399.52 703.44,399.50 704.37,399.49 705.31,399.48 706.25,399.46 707.19,399.45 708.12,399.44 709.06,399.43 710.00,399.41 710.94,399.40 711.88,399.39 712.81,399.38 713.75,399.36 714.69,399.35 715.62,399.34 716.56,399.33 717.50,399.32 718.44,399.31 719.38,399.29 720.31,399.28 721.25,399.27 722.19,399.26 723.13,399.25 724.06,399.24 725.00,399.23 725.94,399.22 726.88,399.21 727.81,399.21 728.75,399.20 729.69,399.19 730.62,399.18 731.56,399.17 732.50,399.16 733.44,399.16 734.38,399.15 735.31,399.14 736.25,399.14 737.19,399.13 738.12,399.12 739.06,399.12 740.00,399.11 740.94,399.11 741.88,399.10 742.81,399.10 743.75,399.09 744.69,399.09 745.62,399.08 746.56,399.08 747.50,399.08 748.44,399.07 749.38,399.07 750.31,399.07 751.25,399.07 752.19,399.06 753.12,399.06 754.06,399.06 755.00,399.06 755.94,399.06 756.88,399.06 757.81,399.06 758.75,399.06 759.69,399.06 760.63,399.06 761.56,399.06 762.50,399.06 763.44,399.06 764.38,399.06 765.31,399.06 766.25,399.06 767.19,399.06 768.13,399.06 769.06,399.06 770.00,399.07 770.94,399.07 771.88,399.07 772.81,399.07 773.75,399.08 774.69,399.08 775.62,399.08 776.56,399.09 777.50,399.09 778.44,399.09 779.38,399.10 780.31,399.10 781.25,399.10 782.19,399.11 783.12,399.11 784.06,399.12 785.00,399.12 785.94,399.12 786.88,399.13 787.81,399.13 788.75,399.14 789.69,399.14 790.62,399.15 791.56,399.15 792.50,399.16 793.44,399.16 794.38,399.17 795.31,399.17 796.25,399.18 797.19,399.18 798.13,399.19 799.06,399.19 800.00,399.20 800.94,399.20 801.88,399.21 802.81,399.21 803.75,399.22 804.69,399.22 805.62,399.23 806.56,399.23 807.50,399.24 808.44,399.24 809.37,399.25 810.31,399.25 811.25,399.26 812.19,399.26 813.12,399.27 814.06,399.27 815.00,399.28 815.94,399.28 816.88,399.29 817.81,399.29 818.75,399.30 819.69,399.30 820.62,399.31 821.56,399.31 822.50,399.32 823.44,399.32 824.38,399.32 825.31,399.33 826.25,399.33 827.19,399.34 828.12,399.34 829.06,399.34 830.00,399.35" fill="none" stroke="#d62728" stroke-width="2"/>
<line x1="855" y1="79" x2="885" y2="79" stroke="#d62728" stroke-width="3"/>
<text x="892" y="84" font-family="Arial" font-size="13">bath T2</text>
<polyline points="80.00,323.55 80.94,397.10 81.88,442.11 82.81,469.78 83.75,486.89 84.69,497.55 85.62,504.27 86.56,508.55 87.50,511.32 88.44,513.12 89.38,514.30 90.31,515.06 91.25,515.53 92.19,515.78 93.12,515.86 94.06,515.80 95.00,515.62 95.94,515.33 96.88,514.93 97.81,514.44 98.75,513.86 99.69,513.19 100.62,512.43 101.56,511.59 102.50,510.66 103.44,509.66 104.38,508.58 105.31,507.43 106.25,506.20 107.19,504.91 108.12,503.55 109.06,502.12 110.00,500.63 110.94,499.08 111.88,497.47 112.81,495.81 113.75,494.09 114.69,492.32 115.62,490.50 116.56,488.64 117.50,486.73 118.44,484.78 119.38,482.79 120.31,480.77 121.25,478.71 122.19,476.62 123.12,474.49 124.06,472.34 125.00,470.17 125.94,467.97 126.88,465.75 127.81,463.52 128.75,461.26 129.69,458.99 130.62,456.71 131.56,454.42 132.50,452.13 133.44,449.82 134.38,447.52 135.31,445.21 136.25,442.90 137.19,440.59 138.12,438.29 139.06,436.00 140.00,433.71 140.94,431.43 141.88,429.17 142.81,426.91 143.75,424.67 144.69,422.45 145.62,420.25 146.56,418.07 147.50,415.90 148.44,413.76 149.38,411.65 150.31,409.56 151.25,407.49 152.19,405.46 153.12,403.45 154.06,401.48 155.00,399.53 155.94,397.62 156.88,395.74 157.81,393.90 158.75,392.09 159.69,390.32 160.62,388.59 161.56,386.90 162.50,385.24 163.44,383.63 164.38,382.06 165.31,380.52 166.25,379.03 167.19,377.59 168.12,376.18 169.06,374.82 170.00,373.50 170.94,372.23 171.88,371.00 172.81,369.81 173.75,368.68 174.69,367.58 175.62,366.53 176.56,365.53 177.50,364.57 178.44,363.66 179.38,362.80 180.31,361.97 181.25,361.20 182.19,360.47 183.12,359.79 184.06,359.15 185.00,358.55 185.94,358.00 186.88,357.50 187.81,357.04 188.75,356.62 189.69,356.24 190.62,355.91 191.56,355.62 192.50,355.38 193.44,355.17 194.38,355.00 195.31,354.88 196.25,354.79 197.19,354.75 198.12,354.74 199.06,354.77 200.00,354.84 200.94,354.94 201.88,355.08 202.81,355.26 203.75,355.46 204.69,355.71 205.62,355.98 206.56,356.29 207.50,356.63 208.44,357.00 209.38,357.40 210.31,357.82 211.25,358.28 212.19,358.76 213.12,359.27 214.06,359.80 215.00,360.36 215.94,360.94 216.88,361.55 217.81,362.17 218.75,362.82 219.69,363.48 220.62,364.17 221.56,364.87 222.50,365.59 223.44,366.33 224.38,367.08 225.31,367.85 226.25,368.63 227.19,369.42 228.12,370.23 229.06,371.04 230.00,371.87 230.94,372.71 231.88,373.55 232.81,374.40 233.75,375.26 234.69,376.12 235.62,376.99 236.56,377.86 237.50,378.74 238.44,379.62 239.38,380.50 240.31,381.38 241.25,382.26 242.19,383.14 243.13,384.02 244.06,384.90 245.00,385.78 245.94,386.65 246.88,387.51 247.81,388.38 248.75,389.23 249.69,390.09 250.62,390.93 251.56,391.77 252.50,392.60 253.44,393.42 254.38,394.23 255.31,395.04 256.25,395.83 257.19,396.61 258.12,397.38 259.06,398.14 260.00,398.89 260.94,399.63 261.88,400.35 262.81,401.06 263.75,401.75 264.69,402.44 265.62,403.11 266.56,403.76 267.50,404.40 268.44,405.02 269.38,405.63 270.31,406.22 271.25,406.80 272.19,407.36 273.12,407.90 274.06,408.43 275.00,408.94 275.94,409.44 276.88,409.91 277.81,410.37 278.75,410.82 279.69,411.24 280.62,411.65 281.56,412.04 282.50,412.42 283.44,412.77 284.38,413.11 285.31,413.43 286.25,413.74 287.19,414.02 288.12,414.29 289.06,414.55 290.00,414.78 290.94,415.00 291.88,415.20 292.81,415.38 293.75,415.55 294.69,415.70 295.62,415.84 296.56,415.95 297.50,416.06 298.44,416.14 299.38,416.21 300.31,416.27 301.25,416.31 302.19,416.33 303.12,416.34 304.06,416.34 305.00,416.32 305.94,416.28 306.88,416.24 307.81,416.18 308.75,416.10 309.69,416.02 310.62,415.92 311.56,415.81 312.50,415.68 313.44,415.55 314.38,415.40 315.31,415.24 316.25,415.07 317.19,414.89 318.12,414.70 319.06,414.50 320.00,414.30 320.94,414.08 321.88,413.85 322.81,413.62 323.75,413.37 324.69,413.12 325.62,412.86 326.56,412.60 327.50,412.33 328.44,412.05 329.38,411.76 330.31,411.47 331.25,411.18 332.19,410.88 333.12,410.57 334.06,410.26 335.00,409.95 335.94,409.63 336.88,409.31 337.81,408.99 338.75,408.66 339.69,408.33 340.62,408.00 341.56,407.67 342.50,407.33 343.44,407.00 344.38,406.66 345.31,406.33 346.25,405.99 347.19,405.65 348.13,405.32 349.06,404.98 350.00,404.65 350.94,404.31 351.88,403.98 352.81,403.65 353.75,403.32 354.69,403.00 355.63,402.67 356.56,402.35 357.50,402.03 358.44,401.72 359.38,401.40 360.31,401.10 361.25,400.79 362.19,400.49 363.12,400.19 364.06,399.90 365.00,399.61 365.94,399.33 366.88,399.05 367.81,398.78 368.75,398.51 369.69,398.25 370.62,397.99 371.56,397.74 372.50,397.49 373.44,397.25 374.38,397.02 375.31,396.79 376.25,396.56 377.19,396.35 378.12,396.14 379.06,395.93 380.00,395.73 380.94,395.54 381.88,395.36 382.81,395.18 383.75,395.00 384.69,394.84 385.62,394.68 386.56,394.53 387.50,394.38 388.44,394.24 389.38,394.11 390.31,393.98 391.25,393.86 392.19,393.75 393.12,393.65 394.06,393.55 395.00,393.45 395.94,393.37 396.88,393.29 397.81,393.21 398.75,393.15 399.69,393.09 400.63,393.03 401.56,392.99 402.50,392.94 403.44,392.91 404.38,392.88 405.31,392.85 406.25,392.84 407.19,392.82 408.12,392.82 409.06,392.82 410.00,392.82 410.94,392.83 411.88,392.85 412.81,392.87 413.75,392.89 414.69,392.92 415.63,392.96 416.56,393.00 417.50,393.05 418.44,393.10 419.38,393.15 420.31,393.21 421.25,393.27 422.19,393.34 423.12,393.41 424.06,393.48 425.00,393.56 425.94,393.64 426.88,393.73 427.81,393.82 428.75,393.91 429.69,394.00 430.62,394.10 431.56,394.20 432.50,394.30 433.44,394.41 434.38,394.51 435.31,394.62 436.25,394.74 437.19,394.85 438.12,394.97 439.06,395.08 440.00,395.20 440.94,395.32 441.88,395.44 442.81,395.57 443.75,395.69 444.69,395.82 445.62,395.94 446.56,396.07 447.50,396.20 448.44,396.32 449.38,396.45 450.31,396.58 451.25,396.71 452.19,396.84 453.13,396.97 454.06,397.10 455.00,397.22 455.94,397.35 456.88,397.48 457.81,397.60 458.75,397.73 459.69,397.86 460.63,397.98 461.56,398.10 462.50,398.22 463.44,398.35 464.37,398.47 465.31,398.58 466.25,398.70 467.19,398.82 468.12,398.93 469.06,399.04 470.00,399.15 470.94,399.26 471.88,399.37 472.81,399.47 473.75,399.58 474.69,399.68 475.63,399.78 476.56,399.88 477.50,399.97 478.44,400.06 479.38,400.16 480.31,400.24 481.25,400.33 482.19,400.41 483.12,400.50 484.06,400.57 485.00,400.65 485.94,400.73 486.88,400.80 487.81,400.87 488.75,400.93 489.69,401.00 490.63,401.06 491.56,401.12 492.50,401.18 493.44,401.23 494.38,401.28 495.31,401.33 496.25,401.38 497.19,401.42 498.12,401.46 499.06,401.50 500.00,401.54 500.94,401.57 501.88,401.61 502.81,401.64 503.75,401.66 504.69,401.69 505.62,401.71 506.56,401.73 507.50,401.74 508.44,401.76 509.38,401.77 510.31,401.78 511.25,401.79 512.19,401.80 513.12,401.80 514.06,401.80 515.00,401.80 515.94,401.80 516.88,401.79 517.81,401.78 518.75,401.78 519.69,401.76 520.62,401.75 521.56,401.74 522.50,401.72 523.44,401.70 524.38,401.68 525.31,401.66 526.25,401.64 527.19,401.61 528.12,401.59 529.06,401.56 530.00,401.53 530.94,401.50 531.88,401.47 532.81,401.44 533.75,401.40 534.69,401.37 535.62,401.33 536.56,401.29 537.50,401.25 538.44,401.21 539.38,401.17 540.31,401.13 541.25,401.09 542.19,401.04 543.12,401.00 544.06,400.96 545.00,400.91 545.94,400.86 546.88,400.82 547.81,400.77 548.75,400.72 549.69,400.68 550.62,400.63 551.56,400.58 552.50,400.53 553.44,400.48 554.38,400.43 555.31,400.39 556.25,400.34 557.19,400.29 558.12,400.24 559.06,400.19 560.00,400.14 560.94,400.09 561.88,400.04 562.81,399.99 563.75,399.95 564.69,399.90 565.62,399.85 566.56,399.80 567.50,399.76 568.44,399.71 569.38,399.66 570.31,399.62 571.25,399.57 572.19,399.53 573.12,399.49 574.06,399.44 575.00,399.40 575.94,399.36 576.88,399.32 577.81,399.28 578.75,399.24 579.69,399.20 580.62,399.16 581.56,399.12 582.50,399.09 583.44,399.05 584.38,399.01 585.31,398.98 586.25,398.95 587.19,398.91 588.12,398.88 589.06,398.85 590.00,398.82 590.94,398.79 591.88,398.77 592.81,398.74 593.75,398.71 594.69,398.69 595.62,398.66 596.56,398.64 597.50,398.62 598.44,398.60 599.38,398.58 600.31,398.56 601.25,398.54 602.19,398.52 603.12,398.51 604.06,398.49 605.00,398.48 605.94,398.46 606.88,398.45 607.81,398.44 608.75,398.43 609.69,398.42 610.62,398.41 611.56,398.40 612.50,398.39 613.44,398.39 614.38,398.38 615.31,398.38 616.25,398.37 617.19,398.37 618.12,398.37 619.06,398.37 620.00,398.37 620.94,398.37 621.88,398.37 622.81,398.37 623.75,398.38 624.69,398.38 625.62,398.39 626.56,398.39 627.50,398.40 628.44,398.40 629.38,398.41 630.31,398.42 631.25,398.43 632.19,398.44 633.12,398.45 634.06,398.46 635.00,398.47 635.94,398.48 636.88,398.49 637.81,398.50 638.75,398.52 639.69,398.53 640.62,398.54 641.56,398.56 642.50,398.57 643.44,398.59 644.38,398.60 645.31,398.62 646.25,398.63 647.19,398.65 648.12,398.67 649.06,398.68 650.00,398.70 650.94,398.72 651.88,398.74 652.81,398.75 653.75,398.77 654.69,398.79 655.62,398.81 656.56,398.83 657.50,398.85 658.44,398.86 659.38,398.88 660.31,398.90 661.25,398.92 662.19,398.94 663.13,398.96 664.06,398.98 665.00,398.99 665.94,399.01 666.88,399.03 667.81,399.05 668.75,399.07 669.69,399.09 670.62,399.11 671.56,399.12 672.50,399.14 673.44,399.16 674.38,399.18 675.31,399.19 676.25,399.21 677.19,399.23 678.13,399.25 679.06,399.26 680.00,399.28 680.94,399.29 681.88,399.31 682.81,399.33 683.75,399.34 684.69,399.36 685.62,399.37 686.56,399.39 687.50,399.40 688.44,399.41 689.38,399.43 690.31,399.44 691.25,399.45 692.19,399.47 693.13,399.48 694.06,399.49 695.00,399.50 695.94,399.51 696.88,399.52 697.81,399.53 698.75,399.54 699.69,399.55 700.62,399.56 701.56,399.57 702.50,399.58 703.44,399.59 704.37,399.60 705.31,399.60 706.25,399.61 707.19,399.62 708.12,399.63 709.06,399.63 710.00,399.64 710.94,399.64 711.88,399.65 712.81,399.65 713.75,399.66 714.69,399.66 715.62,399.66 716.56,399.67 717.50,399.67 718.44,399.67 719.38,399.67 720.31,399.68 721.25,399.68 722.19,399.68 723.13,399.68 724.06,399.68 725.00,399.68 725.94,399.68 726.88,399.68 727.81,399.68 728.75,399.68 729.69,399.68 730.62,399.67 731.56,399.67 732.50,399.67 733.44,399.67 734.38,399.67 735.31,399.66 736.25,399.66 737.19,399.66 738.12,399.65 739.06,399.65 740.00,399.64 740.94,399.64 741.88,399.64 742.81,399.63 743.75,399.63 744.69,399.62 745.62,399.62 746.56,399.61 747.50,399.61 748.44,399.60 749.38,399.59 750.31,399.59 751.25,399.58 752.19,399.58 753.12,399.57 754.06,399.56 755.00,399.56 755.94,399.55 756.88,399.54 757.81,399.54 758.75,399.53 759.69,399.52 760.63,399.52 761.56,399.51 762.50,399.50 763.44,399.49 764.38,399.49 765.31,399.48 766.25,399.47 767.19,399.47 768.13,399.46 769.06,399.45 770.00,399.44 770.94,399.44 771.88,399.43 772.81,399.42 773.75,399.42 774.69,399.41 775.62,399.40 776.56,399.40 777.50,399.39 778.44,399.38 779.38,399.37 780.31,399.37 781.25,399.36 782.19,399.35 783.12,399.35 784.06,399.34 785.00,399.34 785.94,399.33 786.88,399.32 787.81,399.32 788.75,399.31 789.69,399.31 790.62,399.30 791.56,399.29 792.50,399.29 793.44,399.28 794.38,399.28 795.31,399.27 796.25,399.27 797.19,399.26 798.13,399.26 799.06,399.25 800.00,399.25 800.94,399.25 801.88,399.24 802.81,399.24 803.75,399.23 804.69,399.23 805.62,399.23 806.56,399.22 807.50,399.22 808.44,399.22 809.37,399.21 810.31,399.21 811.25,399.21 812.19,399.20 813.12,399.20 814.06,399.20 815.00,399.20 815.94,399.19 816.88,399.19 817.81,399.19 818.75,399.19 819.69,399.19 820.62,399.19 821.56,399.19 822.50,399.18 823.44,399.18 824.38,399.18 825.31,399.18 826.25,399.18 827.19,399.18 828.12,399.18 829.06,399.18 830.00,399.18" fill="none" stroke="#2ca02c" stroke-width="2"/>
<line x1="855" y1="103" x2="885" y2="103" stroke="#2ca02c" stroke-width="3"/>
<text x="892" y="108" font-family="Arial" font-size="13">bath T3</text>
<polyline points="80.00,514.00 80.94,498.62 81.88,482.78 82.81,470.88 83.75,462.98 84.69,456.45 85.62,454.85 86.56,454.49 87.50,452.78 88.44,450.60 89.38,453.38 90.31,457.27 91.25,453.66 92.19,448.60 93.12,446.71 94.06,443.30 95.00,441.13 95.94,432.47 96.88,426.85 97.81,416.22 98.75,412.35 99.69,407.56 100.62,403.63 101.56,402.20 102.50,402.86 103.44,401.60 104.38,404.71 105.31,411.08 106.25,414.90 107.19,418.25 108.12,419.61 109.06,418.62 110.00,416.90 110.94,417.44 111.88,411.78 112.81,410.73 113.75,405.29 114.69,398.08 115.62,397.76 116.56,392.77 117.50,390.45 118.44,390.94 119.38,393.78 120.31,395.83 121.25,402.98 122.19,407.70 123.12,408.63 124.06,410.85 125.00,411.14 125.94,414.60 126.88,412.31 127.81,408.73 128.75,406.82 129.69,402.94 130.62,399.27 131.56,397.52 132.50,393.31 133.44,391.61 134.38,396.24 135.31,398.29 136.25,401.55 137.19,405.69 138.12,408.99 139.06,412.71 140.00,412.92 140.94,415.72 141.88,416.21 142.81,416.63 143.75,414.95 144.69,411.30 145.62,406.53 146.56,405.66 147.50,403.69 148.44,401.22 149.38,401.68 150.31,404.44 151.25,406.73 152.19,409.46 153.12,415.31 154.06,419.38 155.00,422.29 155.94,422.61 156.88,421.90 157.81,417.48 158.75,413.56 159.69,412.01 160.62,409.26 161.56,408.80 162.50,408.75 163.44,408.56 164.38,409.33 165.31,409.17 166.25,412.12 167.19,413.25 168.12,415.11 169.06,415.07 170.00,415.36 170.94,417.61 171.88,418.11 172.81,418.83 173.75,416.04 174.69,418.23 175.62,414.90 176.56,411.11 177.50,406.90 178.44,404.31 179.38,403.33 180.31,406.14 181.25,408.88 182.19,412.04 183.12,415.23 184.06,417.15 185.00,418.65 185.94,416.76 186.88,418.80 187.81,415.36 188.75,412.24 189.69,410.86 190.62,412.09 191.56,408.98 192.50,407.34 193.44,407.13 194.38,406.41 195.31,407.97 196.25,412.91 197.19,416.75 198.12,413.76 199.06,411.56 200.00,408.24 200.94,406.94 201.88,406.47 202.81,407.97 203.75,404.83 204.69,400.80 205.62,401.20 206.56,402.17 207.50,405.66 208.44,405.20 209.38,402.52 210.31,401.66 211.25,401.83 212.19,402.44 213.12,399.44 214.06,398.39 215.00,396.00 215.94,392.11 216.88,393.14 217.81,393.99 218.75,396.05 219.69,398.58 220.62,400.32 221.56,403.21 222.50,398.18 223.44,397.27 224.38,391.10 225.31,384.54 226.25,382.51 227.19,379.74 228.12,380.94 229.06,383.60 230.00,385.77 230.94,384.61 231.88,382.54 232.81,384.88 233.75,386.83 234.69,387.06 235.62,379.70 236.56,367.92 237.50,370.15 238.44,366.07 239.38,365.43 240.31,368.17 241.25,372.62 242.19,380.42 243.13,383.66 244.06,379.22 245.00,374.40 245.94,371.31 246.88,366.67 247.81,361.51 248.75,360.31 249.69,359.63 250.62,361.78 251.56,361.99 252.50,360.96 253.44,362.92 254.38,362.04 255.31,369.86 256.25,367.49 257.19,367.89 258.12,364.17 259.06,365.03 260.00,355.38 260.94,354.43 261.88,353.47 262.81,354.11 263.75,348.11 264.69,347.49 265.62,348.82 266.56,351.09 267.50,355.01 268.44,357.18 269.38,361.75 270.31,365.16 271.25,363.59 272.19,363.57 273.12,362.44 274.06,359.53 275.00,353.65 275.94,348.69 276.88,340.08 277.81,333.94 278.75,330.50 279.69,332.32 280.62,333.74 281.56,337.31 282.50,343.77 283.44,351.36 284.38,361.62 285.31,360.13 286.25,363.03 287.19,362.76 288.12,358.57 289.06,350.36 290.00,339.88 290.94,330.37 291.88,323.29 292.81,316.70 293.75,318.45 294.69,321.40 295.62,324.89 296.56,329.44 297.50,337.16 298.44,343.07 299.38,349.83 300.31,354.47 301.25,354.50 302.19,354.05 303.12,351.20 304.06,340.47 305.00,332.90 305.94,329.68 306.88,319.49 307.81,315.95 308.75,313.31 309.69,313.59 310.62,322.57 311.56,327.22 312.50,332.75 313.44,344.03 314.38,351.12 315.31,353.56 316.25,353.72 317.19,347.91 318.12,346.04 319.06,340.59 320.00,333.43 320.94,321.91 321.88,314.58 322.81,312.62 323.75,315.86 324.69,326.01 325.62,327.51 326.56,329.06 327.50,335.91 328.44,343.33 329.38,351.37 330.31,355.67 331.25,356.66 332.19,357.52 333.12,359.39 334.06,355.53 335.00,347.37 335.94,338.77 336.88,327.20 337.81,322.58 338.75,319.89 339.69,317.18 340.62,314.05 341.56,319.61 342.50,325.90 343.44,337.33 344.38,345.39 345.31,348.33 346.25,350.12 347.19,348.23 348.13,344.80 349.06,339.03 350.00,328.09 350.94,320.58 351.88,316.77 352.81,313.34 353.75,310.68 354.69,314.02 355.63,316.52 356.56,321.07 357.50,329.61 358.44,336.80 359.38,339.67 360.31,334.61 361.25,333.42 362.19,333.22 363.12,324.08 364.06,321.23 365.00,321.12 365.94,318.34 366.88,322.25 367.81,317.10 368.75,319.43 369.69,322.60 370.62,322.78 371.56,319.03 372.50,322.89 373.44,325.83 374.38,328.81 375.31,327.98 376.25,330.39 377.19,329.45 378.12,333.10 379.06,328.70 380.00,325.72 380.94,328.95 381.88,326.10 382.81,324.33 383.75,318.83 384.69,318.95 385.62,317.62 386.56,323.15 387.50,324.91 388.44,331.46 389.38,334.17 390.31,332.30 391.25,332.33 392.19,331.43 393.12,327.79 394.06,326.12 395.00,325.56 395.94,326.94 396.88,323.71 397.81,323.77 398.75,326.29 399.69,325.91 400.63,328.63 401.56,325.61 402.50,326.64 403.44,333.38 404.38,332.86 405.31,334.34 406.25,333.51 407.19,330.75 408.12,331.00 409.06,329.81 410.00,333.79 410.94,335.63 411.88,334.03 412.81,336.97 413.75,335.18 414.69,332.39 415.63,330.66 416.56,328.49 417.50,323.44 418.44,326.18 419.38,329.70 420.31,325.98 421.25,326.86 422.19,328.24 423.12,329.73 424.06,328.93 425.00,326.92 425.94,324.77 426.88,327.23 427.81,323.86 428.75,319.45 429.69,316.87 430.62,316.05 431.56,318.21 432.50,322.72 433.44,328.41 434.38,325.82 435.31,325.53 436.25,325.18 437.19,316.36 438.12,318.98 439.06,321.64 440.00,320.36 440.94,321.41 441.88,325.96 442.81,325.56 443.75,321.00 444.69,317.55 445.62,319.64 446.56,321.68 447.50,319.70 448.44,320.24 449.38,319.08 450.31,322.19 451.25,326.51 452.19,328.58 453.13,329.29 454.06,327.65 455.00,322.54 455.94,322.48 456.88,321.68 457.81,317.37 458.75,317.19 459.69,312.86 460.63,308.96 461.56,300.66 462.50,300.41 463.44,302.52 464.37,305.99 465.31,312.35 466.25,318.36 467.19,323.33 468.12,331.99 469.06,334.70 470.00,335.86 470.94,335.93 471.88,330.35 472.81,320.46 473.75,315.14 474.69,308.54 475.63,300.24 476.56,292.46 477.50,289.39 478.44,287.92 479.38,292.01 480.31,294.97 481.25,299.93 482.19,312.98 483.12,325.05 484.06,325.66 485.00,322.66 485.94,321.73 486.88,319.92 487.81,311.01 488.75,299.24 489.69,292.41 490.63,291.98 491.56,286.19 492.50,287.86 493.44,290.27 494.38,296.07 495.31,299.55 496.25,309.52 497.19,317.17 498.12,315.64 499.06,321.73 500.00,321.80 500.94,319.34 501.88,323.33 502.81,317.40 503.75,307.16 504.69,296.64 505.62,291.04 506.56,288.84 507.50,284.28 508.44,284.88 509.38,282.26 510.31,285.22 511.25,296.99 512.19,313.02 513.12,319.03 514.06,326.87 515.00,333.75 515.94,335.64 516.88,336.43 517.81,334.52 518.75,328.13 519.69,320.25 520.62,316.91 521.56,309.01 522.50,303.07 523.44,295.02 524.38,295.47 525.31,298.58 526.25,300.82 527.19,309.14 528.12,318.37 529.06,324.77 530.00,332.74 530.94,336.32 531.88,333.07 532.81,332.89 533.75,322.44 534.69,317.25 535.62,312.59 536.56,301.00 537.50,292.79 538.44,283.22 539.38,282.08 540.31,283.89 541.25,286.53 542.19,294.11 543.12,304.64 544.06,315.13 545.00,324.50 545.94,329.11 546.88,332.03 547.81,332.08 548.75,324.03 549.69,319.40 550.62,307.46 551.56,301.66 552.50,298.88 553.44,298.66 554.38,301.51 555.31,308.16 556.25,312.64 557.19,315.87 558.12,322.02 559.06,329.79 560.00,331.08 560.94,330.26 561.88,326.69 562.81,324.19 563.75,318.70 564.69,315.98 565.62,310.61 566.56,308.43 567.50,308.20 568.44,304.72 569.38,304.97 570.31,303.01 571.25,309.36 572.19,312.15 573.12,312.78 574.06,314.46 575.00,315.77 575.94,312.50 576.88,314.23 577.81,315.76 578.75,314.80 579.69,318.05 580.62,321.00 581.56,321.11 582.50,317.18 583.44,310.25 584.38,309.43 585.31,310.81 586.25,306.62 587.19,301.25 588.12,298.77 589.06,299.90 590.00,297.59 590.94,307.69 591.88,310.60 592.81,318.70 593.75,322.08 594.69,319.70 595.62,319.15 596.56,315.00 597.50,311.15 598.44,311.20 599.38,310.24 600.31,310.88 601.25,305.74 602.19,307.24 603.12,307.64 604.06,304.30 605.00,307.37 605.94,306.78 606.88,312.80 607.81,310.80 608.75,315.03 609.69,313.70 610.62,312.81 611.56,312.82 612.50,308.12 613.44,305.78 614.38,304.72 615.31,299.98 616.25,301.32 617.19,302.52 618.12,303.48 619.06,300.46 620.00,296.42 620.94,299.92 621.88,306.51 622.81,300.63 623.75,305.93 624.69,308.23 625.62,311.86 626.56,315.80 627.50,312.27 628.44,314.37 629.38,312.17 630.31,309.40 631.25,310.46 632.19,313.64 633.12,313.24 634.06,311.17 635.00,311.12 635.94,310.88 636.88,307.08 637.81,305.54 638.75,304.21 639.69,308.24 640.62,303.45 641.56,302.55 642.50,305.29 643.44,305.59 644.38,300.25 645.31,298.22 646.25,296.47 647.19,293.05 648.12,294.18 649.06,293.64 650.00,296.86 650.94,305.93 651.88,305.50 652.81,299.47 653.75,297.27 654.69,292.17 655.62,293.25 656.56,294.57 657.50,291.78 658.44,289.06 659.38,290.19 660.31,297.82 661.25,300.66 662.19,302.25 663.13,306.05 664.06,304.82 665.00,303.74 665.94,305.12 666.88,301.00 667.81,296.57 668.75,294.83 669.69,296.99 670.62,298.47 671.56,298.39 672.50,296.64 673.44,293.20 674.38,292.60 675.31,293.84 676.25,298.63 677.19,299.78 678.13,300.45 679.06,305.84 680.00,309.15 680.94,303.13 681.88,296.96 682.81,297.08 683.75,298.92 684.69,304.11 685.62,306.86 686.56,305.74 687.50,305.35 688.44,306.88 689.38,306.40 690.31,305.62 691.25,307.77 692.19,305.71 693.13,304.62 694.06,306.46 695.00,297.57 695.94,293.46 696.88,301.14 697.81,303.80 698.75,309.03 699.69,308.54 700.62,306.40 701.56,309.73 702.50,312.91 703.44,314.03 704.37,306.19 705.31,303.53 706.25,309.24 707.19,309.08 708.12,309.34 709.06,303.54 710.00,299.83 710.94,301.78 711.88,296.40 712.81,299.86 713.75,300.04 714.69,303.91 715.62,308.84 716.56,306.16 717.50,302.75 718.44,304.85 719.38,308.65 720.31,315.15 721.25,317.28 722.19,316.50 723.13,316.04 724.06,311.90 725.00,306.78 725.94,308.00 726.88,311.08 727.81,308.01 728.75,310.05 729.69,309.61 730.62,307.52 731.56,309.41 732.50,307.27 733.44,303.96 734.38,306.69 735.31,310.17 736.25,313.94 737.19,316.55 738.12,314.43 739.06,310.52 740.00,307.47 740.94,311.61 741.88,312.98 742.81,314.39 743.75,317.91 744.69,314.72 745.62,316.25 746.56,310.77 747.50,312.23 748.44,307.55 749.38,304.72 750.31,308.28 751.25,306.30 752.19,309.35 753.12,307.70 754.06,306.76 755.00,314.08 755.94,317.26 756.88,320.21 757.81,321.75 758.75,320.21 759.69,320.51 760.63,312.60 761.56,308.38 762.50,299.47 763.44,302.13 764.38,301.95 765.31,305.30 766.25,307.70 767.19,308.87 768.13,314.23 769.06,320.06 770.00,324.29 770.94,321.16 771.88,320.81 772.81,318.80 773.75,310.20 774.69,311.02 775.62,311.70 776.56,312.74 777.50,307.31 778.44,308.49 779.38,307.48 780.31,317.84 781.25,325.64 782.19,325.38 783.12,323.73 784.06,322.11 785.00,318.53 785.94,320.83 786.88,322.33 787.81,316.54 788.75,317.27 789.69,313.94 790.62,316.93 791.56,311.70 792.50,311.36 793.44,308.39 794.38,308.70 795.31,309.97 796.25,312.74 797.19,309.15 798.13,313.81 799.06,316.73 800.00,317.36 800.94,320.60 801.88,316.57 802.81,313.15 803.75,315.16 804.69,314.24 805.62,311.97 806.56,314.68 807.50,314.67 808.44,316.85 809.37,316.99 810.31,314.66 811.25,313.51 812.19,314.72 813.12,319.34 814.06,321.36 815.00,320.67 815.94,323.67 816.88,327.61 817.81,324.77 818.75,322.29 819.69,321.84 820.62,318.57 821.56,317.51 822.50,320.96 823.44,321.76 824.38,317.49 825.31,316.43 826.25,316.77 827.19,312.96 828.12,310.40 829.06,313.21 830.00,312.93" fill="none" stroke="#9467bd" stroke-width="2"/>
<line x1="855" y1="127" x2="885" y2="127" stroke="#9467bd" stroke-width="3"/>
<text x="892" y="132" font-family="Arial" font-size="13">sim <v1^2></text>
<polyline points="80.00,514.00 80.94,503.85 81.88,496.30 82.81,493.41 83.75,490.41 84.69,490.53 85.62,493.15 86.56,492.19 87.50,492.31 88.44,494.09 89.38,492.27 90.31,490.61 91.25,487.78 92.19,483.08 93.12,480.73 94.06,476.97 95.00,472.66 95.94,467.47 96.88,465.57 97.81,462.08 98.75,460.33 99.69,455.20 100.62,457.48 101.56,458.55 102.50,459.45 103.44,461.86 104.38,461.42 105.31,460.65 106.25,455.72 107.19,452.03 108.12,444.39 109.06,438.49 110.00,436.26 110.94,429.89 111.88,420.56 112.81,418.98 113.75,418.73 114.69,422.21 115.62,425.57 116.56,425.76 117.50,429.29 118.44,432.34 119.38,429.17 120.31,425.14 121.25,422.37 122.19,411.72 123.12,406.64 124.06,405.38 125.00,405.45 125.94,402.88 126.88,393.84 127.81,395.83 128.75,395.73 129.69,391.75 130.62,395.57 131.56,396.25 132.50,395.17 133.44,393.56 134.38,393.10 135.31,391.98 136.25,390.66 137.19,391.24 138.12,387.05 139.06,383.17 140.00,379.42 140.94,373.67 141.88,372.47 142.81,368.19 143.75,368.64 144.69,371.89 145.62,376.67 146.56,377.49 147.50,375.67 148.44,381.09 149.38,379.39 150.31,382.82 151.25,377.96 152.19,372.86 153.12,369.90 154.06,363.75 155.00,362.29 155.94,355.67 156.88,360.77 157.81,363.75 158.75,367.33 159.69,373.16 160.62,377.93 161.56,375.08 162.50,375.15 163.44,376.28 164.38,376.48 165.31,373.84 166.25,372.74 167.19,371.06 168.12,367.00 169.06,364.82 170.00,369.22 170.94,362.79 171.88,361.11 172.81,364.07 173.75,366.02 174.69,367.68 175.62,372.08 176.56,370.77 177.50,370.20 178.44,366.71 179.38,367.63 180.31,359.34 181.25,355.39 182.19,358.93 183.12,361.55 184.06,364.68 185.00,373.20 185.94,375.36 186.88,374.31 187.81,375.43 188.75,374.43 189.69,371.24 190.62,371.64 191.56,367.41 192.50,361.81 193.44,357.79 194.38,353.18 195.31,353.05 196.25,352.03 197.19,356.19 198.12,364.95 199.06,371.00 200.00,377.43 200.94,382.89 201.88,384.40 202.81,387.12 203.75,386.95 204.69,382.17 205.62,379.93 206.56,375.55 207.50,372.78 208.44,367.72 209.38,365.14 210.31,364.11 211.25,366.21 212.19,370.18 213.12,371.24 214.06,372.71 215.00,373.29 215.94,380.29 216.88,380.57 217.81,385.63 218.75,391.55 219.69,391.98 220.62,388.91 221.56,387.53 222.50,383.23 223.44,378.67 224.38,376.44 225.31,376.28 226.25,378.32 227.19,375.16 228.12,375.32 229.06,377.49 230.00,377.68 230.94,383.53 231.88,386.57 232.81,388.72 233.75,391.06 234.69,390.62 235.62,387.36 236.56,387.72 237.50,385.29 238.44,384.25 239.38,382.01 240.31,380.46 241.25,378.62 242.19,376.61 243.13,376.84 244.06,375.99 245.00,376.17 245.94,380.43 246.88,383.80 247.81,385.15 248.75,385.05 249.69,384.99 250.62,386.20 251.56,385.15 252.50,384.18 253.44,381.18 254.38,377.93 255.31,375.87 256.25,374.27 257.19,372.71 258.12,372.87 259.06,372.62 260.00,375.55 260.94,376.36 261.88,377.76 262.81,378.72 263.75,378.27 264.69,375.04 265.62,373.10 266.56,368.84 267.50,366.64 268.44,358.17 269.38,356.56 270.31,359.95 271.25,359.70 272.19,362.45 273.12,369.46 274.06,368.49 275.00,371.94 275.94,372.04 276.88,372.55 277.81,371.82 278.75,368.31 279.69,366.83 280.62,364.27 281.56,365.09 282.50,359.43 283.44,358.94 284.38,352.96 285.31,354.67 286.25,352.76 287.19,353.22 288.12,359.46 289.06,359.74 290.00,361.73 290.94,361.59 291.88,362.54 292.81,363.84 293.75,361.91 294.69,364.20 295.62,359.30 296.56,356.84 297.50,352.35 298.44,348.50 299.38,348.20 300.31,346.01 301.25,347.23 302.19,348.25 303.12,352.96 304.06,353.39 305.00,352.60 305.94,358.18 306.88,356.50 307.81,351.05 308.75,346.21 309.69,348.01 310.62,348.08 311.56,345.81 312.50,345.78 313.44,344.65 314.38,347.32 315.31,347.09 316.25,343.92 317.19,349.77 318.12,353.91 319.06,355.12 320.00,355.45 320.94,352.92 321.88,346.61 322.81,341.92 323.75,336.58 324.69,332.56 325.62,331.83 326.56,328.10 327.50,327.45 328.44,329.95 329.38,337.43 330.31,343.30 331.25,346.28 332.19,354.68 333.12,354.35 334.06,351.01 335.00,346.09 335.94,339.10 336.88,332.20 337.81,326.89 338.75,316.01 339.69,311.12 340.62,314.11 341.56,315.76 342.50,319.62 343.44,325.34 344.38,334.31 345.31,339.64 346.25,342.91 347.19,348.16 348.13,348.17 349.06,342.63 350.00,328.66 350.94,324.81 351.88,316.25 352.81,313.71 353.75,311.48 354.69,308.63 355.63,319.97 356.56,329.03 357.50,333.95 358.44,340.33 359.38,351.65 360.31,353.16 361.25,355.54 362.19,354.45 363.12,349.46 364.06,343.52 365.00,336.38 365.94,326.11 366.88,318.16 367.81,315.33 368.75,317.08 369.69,321.54 370.62,326.54 371.56,333.69 372.50,342.02 373.44,350.01 374.38,352.38 375.31,356.48 376.25,358.45 377.19,350.59 378.12,345.70 379.06,337.89 380.00,334.47 380.94,329.21 381.88,325.48 382.81,321.53 383.75,321.22 384.69,329.13 385.62,332.47 386.56,335.31 387.50,339.09 388.44,344.87 389.38,341.48 390.31,338.83 391.25,338.92 392.19,334.29 393.12,333.96 394.06,328.19 395.00,318.37 395.94,316.99 396.88,317.46 397.81,313.95 398.75,310.66 399.69,310.64 400.63,310.06 401.56,317.94 402.50,326.01 403.44,332.38 404.38,333.60 405.31,335.10 406.25,335.33 407.19,334.32 408.12,325.29 409.06,311.83 410.00,308.72 410.94,306.31 411.88,302.74 412.81,299.85 413.75,301.07 414.69,307.16 415.63,314.87 416.56,325.61 417.50,327.00 418.44,335.70 419.38,336.32 420.31,335.97 421.25,334.13 422.19,332.18 423.12,324.62 424.06,318.74 425.00,307.79 425.94,304.17 426.88,303.78 427.81,303.90 428.75,308.16 429.69,314.20 430.62,325.71 431.56,333.64 432.50,340.96 433.44,341.91 434.38,340.55 435.31,335.89 436.25,335.77 437.19,331.20 438.12,328.22 439.06,328.74 440.00,323.37 440.94,322.24 441.88,315.14 442.81,319.55 443.75,318.98 444.69,319.42 445.62,328.85 446.56,331.07 447.50,338.37 448.44,342.73 449.38,346.81 450.31,348.73 451.25,346.00 452.19,337.26 453.13,331.38 454.06,321.01 455.00,310.34 455.94,308.39 456.88,306.14 457.81,310.35 458.75,311.49 459.69,321.47 460.63,329.49 461.56,336.72 462.50,343.89 463.44,344.88 464.37,342.98 465.31,341.43 466.25,332.62 467.19,321.97 468.12,314.39 469.06,310.29 470.00,299.56 470.94,299.83 471.88,300.10 472.81,308.41 473.75,312.05 474.69,315.03 475.63,319.06 476.56,326.70 477.50,334.80 478.44,338.72 479.38,342.76 480.31,338.47 481.25,335.90 482.19,327.04 483.12,316.64 484.06,308.00 485.00,307.51 485.94,304.95 486.88,305.07 487.81,309.08 488.75,310.74 489.69,320.29 490.63,325.79 491.56,336.67 492.50,342.13 493.44,347.88 494.38,348.03 495.31,344.99 496.25,340.59 497.19,334.22 498.12,329.59 499.06,325.25 500.00,320.12 500.94,318.91 501.88,318.81 502.81,318.58 503.75,319.76 504.69,321.64 505.62,328.51 506.56,333.55 507.50,338.02 508.44,340.30 509.38,339.91 510.31,339.50 511.25,333.04 512.19,330.94 513.12,320.69 514.06,319.88 515.00,315.26 515.94,312.46 516.88,312.94 517.81,309.77 518.75,307.13 519.69,307.01 520.62,314.71 521.56,317.26 522.50,317.16 523.44,323.27 524.38,327.22 525.31,326.71 526.25,328.80 527.19,321.30 528.12,325.44 529.06,322.69 530.00,318.46 530.94,318.27 531.88,318.79 532.81,316.86 533.75,316.61 534.69,316.70 535.62,314.97 536.56,317.00 537.50,320.42 538.44,322.55 539.38,323.24 540.31,324.46 541.25,324.88 542.19,324.59 543.12,325.79 544.06,327.88 545.00,326.89 545.94,327.15 546.88,327.08 547.81,322.01 548.75,325.01 549.69,318.08 550.62,309.84 551.56,307.91 552.50,298.25 553.44,301.51 554.38,302.75 555.31,306.43 556.25,312.37 557.19,319.04 558.12,321.25 559.06,322.63 560.00,316.55 560.94,317.39 561.88,316.38 562.81,314.17 563.75,315.82 564.69,307.46 565.62,309.99 566.56,307.02 567.50,307.55 568.44,312.08 569.38,305.22 570.31,303.75 571.25,304.64 572.19,309.58 573.12,312.73 574.06,318.20 575.00,323.88 575.94,324.06 576.88,322.12 577.81,319.74 578.75,317.47 579.69,314.34 580.62,312.68 581.56,308.74 582.50,308.77 583.44,304.14 584.38,304.37 585.31,304.94 586.25,307.09 587.19,313.14 588.12,321.44 589.06,320.50 590.00,317.51 590.94,311.45 591.88,310.68 592.81,301.84 593.75,302.22 594.69,299.61 595.62,297.82 596.56,291.98 597.50,293.55 598.44,293.66 599.38,292.99 600.31,296.66 601.25,298.54 602.19,300.98 603.12,302.53 604.06,304.56 605.00,311.53 605.94,310.68 606.88,308.76 607.81,302.51 608.75,294.61 609.69,296.41 610.62,301.59 611.56,297.84 612.50,296.38 613.44,300.34 614.38,299.98 615.31,306.84 616.25,310.21 617.19,312.11 618.12,313.56 619.06,309.43 620.00,313.54 620.94,308.62 621.88,303.93 622.81,301.64 623.75,294.83 624.69,288.91 625.62,284.23 626.56,284.76 627.50,283.37 628.44,295.26 629.38,294.36 630.31,300.27 631.25,299.88 632.19,299.30 633.12,298.34 634.06,305.84 635.00,305.25 635.94,303.81 636.88,306.30 637.81,305.49 638.75,304.86 639.69,299.36 640.62,285.89 641.56,287.36 642.50,285.28 643.44,284.64 644.38,285.86 645.31,289.55 646.25,292.35 647.19,299.66 648.12,307.86 649.06,313.50 650.00,316.53 650.94,315.91 651.88,310.70 652.81,307.03 653.75,301.20 654.69,292.45 655.62,289.21 656.56,289.64 657.50,290.95 658.44,290.83 659.38,292.47 660.31,294.22 661.25,299.24 662.19,300.69 663.13,303.80 664.06,307.58 665.00,305.47 665.94,300.86 666.88,301.13 667.81,303.35 668.75,301.26 669.69,295.92 670.62,296.88 671.56,297.08 672.50,297.73 673.44,296.33 674.38,294.45 675.31,296.17 676.25,299.44 677.19,305.32 678.13,309.91 679.06,313.80 680.00,313.73 680.94,317.91 681.88,317.68 682.81,316.16 683.75,315.39 684.69,311.66 685.62,310.37 686.56,306.37 687.50,305.82 688.44,299.23 689.38,303.63 690.31,302.04 691.25,304.25 692.19,305.07 693.13,305.62 694.06,301.75 695.00,307.48 695.94,306.28 696.88,311.36 697.81,316.37 698.75,317.57 699.69,315.09 700.62,314.43 701.56,311.98 702.50,309.71 703.44,303.78 704.37,305.25 705.31,301.86 706.25,301.18 707.19,302.51 708.12,304.73 709.06,301.99 710.00,304.67 710.94,309.27 711.88,310.17 712.81,314.02 713.75,311.31 714.69,306.94 715.62,313.84 716.56,312.57 717.50,304.75 718.44,299.22 719.38,297.37 720.31,289.36 721.25,289.89 722.19,287.90 723.13,290.54 724.06,294.50 725.00,304.93 725.94,304.86 726.88,302.38 727.81,304.57 728.75,299.36 729.69,294.15 730.62,293.58 731.56,293.20 732.50,293.65 733.44,291.14 734.38,289.26 735.31,286.82 736.25,286.64 737.19,290.27 738.12,297.88 739.06,306.80 740.00,310.11 740.94,315.75 741.88,311.62 742.81,312.78 743.75,302.64 744.69,304.09 745.62,296.72 746.56,301.43 747.50,298.17 748.44,293.81 749.38,295.68 750.31,302.53 751.25,306.43 752.19,306.49 753.12,308.26 754.06,309.42 755.00,309.55 755.94,308.71 756.88,316.55 757.81,313.98 758.75,312.75 759.69,310.53 760.63,316.18 761.56,305.73 762.50,300.54 763.44,301.89 764.38,302.44 765.31,311.15 766.25,306.34 767.19,306.70 768.13,304.24 769.06,309.93 770.00,312.19 770.94,315.61 771.88,316.27 772.81,321.49 773.75,317.16 774.69,316.41 775.62,311.25 776.56,304.03 777.50,300.16 778.44,298.85 779.38,306.20 780.31,309.98 781.25,309.49 782.19,308.75 783.12,305.24 784.06,305.90 785.00,306.21 785.94,305.87 786.88,312.69 787.81,312.69 788.75,311.24 789.69,310.89 790.62,308.48 791.56,304.32 792.50,300.80 793.44,299.99 794.38,301.42 795.31,301.68 796.25,303.49 797.19,299.88 798.13,294.82 799.06,297.06 800.00,306.11 800.94,312.08 801.88,318.89 802.81,323.31 803.75,319.21 804.69,317.89 805.62,314.20 806.56,308.07 807.50,300.45 808.44,291.78 809.37,287.76 810.31,294.30 811.25,291.33 812.19,298.15 813.12,301.30 814.06,306.15 815.00,318.00 815.94,327.52 816.88,325.81 817.81,325.56 818.75,318.80 819.69,309.92 820.62,300.87 821.56,291.94 822.50,290.02 823.44,282.24 824.38,283.10 825.31,287.01 826.25,289.35 827.19,297.21 828.12,304.79 829.06,312.68 830.00,319.80" fill="none" stroke="#ff7f0e" stroke-width="2"/>
<line x1="855" y1="151" x2="885" y2="151" stroke="#ff7f0e" stroke-width="3"/>
<text x="892" y="156" font-family="Arial" font-size="13">sim <v2^2></text>
<polyline points="80.00,514.00 80.94,507.04 81.88,501.93 82.81,497.17 83.75,494.28 84.69,491.99 85.62,491.59 86.56,491.78 87.50,492.76 88.44,494.04 89.38,495.71 90.31,497.32 91.25,498.84 92.19,500.12 93.12,501.10 94.06,501.74 95.00,502.03 95.94,501.99 96.88,501.64 97.81,501.02 98.75,500.16 99.69,499.08 100.62,497.89 101.56,496.70 102.50,495.77 103.44,494.78 104.38,494.66 105.31,494.44 106.25,494.63 107.19,495.11 108.12,495.86 109.06,497.20 110.00,497.65 110.94,498.34 111.88,498.58 112.81,497.47 113.75,496.45 114.69,494.81 115.62,492.22 116.56,489.73 117.50,487.82 118.44,486.02 119.38,485.60 120.31,484.50 121.25,483.86 122.19,483.53 123.12,484.34 124.06,483.94 125.00,484.01 125.94,482.08 126.88,480.70 127.81,480.69 128.75,479.90 129.69,478.77 130.62,477.13 131.56,475.11 132.50,472.83 133.44,469.37 134.38,467.30 135.31,464.59 136.25,463.55 137.19,461.34 138.12,462.21 139.06,462.60 140.00,463.87 140.94,461.83 141.88,460.69 142.81,460.66 143.75,459.04 144.69,457.67 145.62,455.70 146.56,453.98 147.50,455.54 148.44,451.44 149.38,447.45 150.31,443.40 151.25,438.92 152.19,436.49 153.12,435.91 154.06,435.52 155.00,430.91 155.94,431.61 156.88,432.65 157.81,433.54 158.75,430.40 159.69,430.21 160.62,430.48 161.56,426.63 162.50,419.97 163.44,416.53 164.38,414.44 165.31,412.35 166.25,408.97 167.19,404.09 168.12,405.34 169.06,405.86 170.00,405.65 170.94,402.03 171.88,401.92 172.81,396.33 173.75,393.49 174.69,392.34 175.62,393.09 176.56,389.01 177.50,391.14 178.44,397.78 179.38,400.23 180.31,397.30 181.25,393.21 182.19,392.19 183.12,386.75 184.06,383.24 185.00,378.18 185.94,378.20 186.88,371.06 187.81,368.65 188.75,367.45 189.69,369.74 190.62,369.73 191.56,379.68 192.50,382.42 193.44,385.11 194.38,388.28 195.31,388.48 196.25,385.28 197.19,383.91 198.12,378.17 199.06,371.77 200.00,361.59 200.94,356.39 201.88,355.39 202.81,355.88 203.75,362.23 204.69,368.33 205.62,374.27 206.56,381.30 207.50,378.27 208.44,374.00 209.38,371.94 210.31,368.07 211.25,365.99 212.19,361.38 213.12,354.58 214.06,353.78 215.00,348.00 215.94,351.46 216.88,354.01 217.81,355.63 218.75,355.26 219.69,360.79 220.62,358.13 221.56,358.43 222.50,356.80 223.44,360.15 224.38,358.84 225.31,353.66 226.25,353.23 227.19,347.76 228.12,348.69 229.06,346.21 230.00,347.32 230.94,347.83 231.88,348.11 232.81,352.88 233.75,351.81 234.69,346.19 235.62,347.92 236.56,355.59 237.50,363.75 238.44,363.03 239.38,362.17 240.31,358.68 241.25,355.98 242.19,352.83 243.13,348.74 244.06,349.14 245.00,347.38 245.94,345.10 246.88,347.78 247.81,350.15 248.75,350.86 249.69,351.60 250.62,350.42 251.56,352.43 252.50,357.76 253.44,359.08 254.38,361.38 255.31,362.28 256.25,360.14 257.19,356.06 258.12,352.84 259.06,356.21 260.00,353.14 260.94,352.97 261.88,351.95 262.81,353.52 263.75,352.54 264.69,351.40 265.62,352.32 266.56,354.92 267.50,354.75 268.44,354.87 269.38,354.62 270.31,355.76 271.25,352.58 272.19,350.16 273.12,352.02 274.06,349.06 275.00,345.32 275.94,348.58 276.88,354.73 277.81,354.37 278.75,359.48 279.69,357.08 280.62,358.04 281.56,360.59 282.50,358.36 283.44,353.40 284.38,343.89 285.31,343.41 286.25,343.61 287.19,342.96 288.12,341.77 289.06,342.10 290.00,346.02 290.94,353.97 291.88,356.62 292.81,361.23 293.75,360.41 294.69,361.03 295.62,359.72 296.56,354.90 297.50,347.39 298.44,339.13 299.38,337.62 300.31,333.37 301.25,334.35 302.19,329.56 303.12,336.20 304.06,340.73 305.00,345.90 305.94,350.27 306.88,359.13 307.81,361.54 308.75,365.02 309.69,365.81 310.62,362.22 311.56,352.33 312.50,340.92 313.44,329.23 314.38,322.48 315.31,316.14 316.25,322.97 317.19,328.65 318.12,337.61 319.06,346.90 320.00,362.96 320.94,370.87 321.88,373.84 322.81,370.76 323.75,361.65 324.69,353.89 325.62,352.66 326.56,341.27 327.50,334.08 328.44,328.59 329.38,327.13 330.31,324.87 331.25,328.92 332.19,329.64 333.12,331.90 334.06,342.16 335.00,353.15 335.94,358.22 336.88,365.17 337.81,365.36 338.75,363.07 339.69,356.07 340.62,350.47 341.56,341.24 342.50,331.88 343.44,324.09 344.38,318.24 345.31,316.27 346.25,315.31 347.19,318.10 348.13,320.69 349.06,331.06 350.00,334.82 350.94,345.36 351.88,353.81 352.81,353.04 353.75,356.17 354.69,351.86 355.63,341.16 356.56,328.03 357.50,316.57 358.44,311.08 359.38,306.11 360.31,308.17 361.25,302.92 362.19,309.64 363.12,311.17 364.06,318.82 365.00,328.42 365.94,335.86 366.88,340.51 367.81,346.51 368.75,345.85 369.69,337.86 370.62,331.27 371.56,325.61 372.50,322.64 373.44,316.44 374.38,309.14 375.31,298.75 376.25,301.77 377.19,300.67 378.12,306.89 379.06,321.75 380.00,333.01 380.94,342.23 381.88,349.47 382.81,352.68 383.75,353.28 384.69,344.71 385.62,328.87 386.56,317.84 387.50,308.90 388.44,299.54 389.38,294.42 390.31,298.44 391.25,300.59 392.19,306.17 393.12,319.38 394.06,332.36 395.00,338.90 395.94,342.65 396.88,345.03 397.81,349.29 398.75,346.78 399.69,343.29 400.63,335.48 401.56,327.39 402.50,315.53 403.44,301.57 404.38,297.63 405.31,290.64 406.25,290.57 407.19,296.67 408.12,301.51 409.06,311.64 410.00,318.69 410.94,325.56 411.88,328.62 412.81,328.68 413.75,326.17 414.69,321.16 415.63,322.57 416.56,317.80 417.50,311.51 418.44,303.06 419.38,298.18 420.31,300.42 421.25,296.71 422.19,300.70 423.12,306.13 424.06,317.65 425.00,326.69 425.94,328.32 426.88,330.36 427.81,329.93 428.75,322.35 429.69,322.15 430.62,316.58 431.56,313.11 432.50,310.80 433.44,304.35 434.38,301.17 435.31,302.07 436.25,308.10 437.19,313.40 438.12,315.33 439.06,317.59 440.00,326.02 440.94,329.57 441.88,329.32 442.81,327.24 443.75,326.08 444.69,325.11 445.62,324.11 446.56,317.11 447.50,312.90 448.44,306.40 449.38,298.62 450.31,298.97 451.25,299.11 452.19,309.40 453.13,316.43 454.06,322.13 455.00,326.96 455.94,327.10 456.88,325.84 457.81,320.04 458.75,314.50 459.69,311.03 460.63,305.77 461.56,304.22 462.50,300.85 463.44,301.66 464.37,308.29 465.31,312.35 466.25,316.94 467.19,318.31 468.12,319.52 469.06,322.68 470.00,323.19 470.94,320.84 471.88,320.15 472.81,323.44 473.75,323.46 474.69,320.47 475.63,319.87 476.56,309.32 477.50,309.27 478.44,310.01 479.38,307.46 480.31,306.19 481.25,311.68 482.19,316.05 483.12,319.86 484.06,325.80 485.00,325.26 485.94,324.17 486.88,322.89 487.81,322.39 488.75,317.10 489.69,318.06 490.63,316.26 491.56,310.92 492.50,309.99 493.44,311.87 494.38,312.28 495.31,311.53 496.25,311.16 497.19,315.74 498.12,315.00 499.06,312.18 500.00,313.02 500.94,310.89 501.88,310.96 502.81,308.74 503.75,304.24 504.69,308.74 505.62,312.11 506.56,313.39 507.50,316.51 508.44,313.57 509.38,310.03 510.31,305.34 511.25,304.16 512.19,297.82 513.12,299.40 514.06,289.73 515.00,283.21 515.94,282.41 516.88,288.89 517.81,299.72 518.75,310.09 519.69,318.37 520.62,318.94 521.56,315.57 522.50,320.12 523.44,315.75 524.38,316.09 525.31,312.49 526.25,302.89 527.19,299.05 528.12,296.95 529.06,295.00 530.00,295.46 530.94,299.71 531.88,303.02 532.81,306.62 533.75,310.73 534.69,316.08 535.62,319.94 536.56,323.67 537.50,327.62 538.44,330.92 539.38,330.43 540.31,324.06 541.25,322.38 542.19,315.62 543.12,310.47 544.06,299.93 545.00,295.63 545.94,291.27 546.88,290.54 547.81,293.31 548.75,302.22 549.69,310.61 550.62,317.53 551.56,324.63 552.50,331.09 553.44,333.67 554.38,327.50 555.31,321.31 556.25,317.64 557.19,311.81 558.12,307.39 559.06,301.00 560.00,292.47 560.94,296.38 561.88,298.88 562.81,305.42 563.75,310.97 564.69,315.05 565.62,321.54 566.56,324.41 567.50,326.63 568.44,331.09 569.38,323.17 570.31,319.53 571.25,310.32 572.19,303.15 573.12,291.95 574.06,291.91 575.00,292.64 575.94,292.02 576.88,296.95 577.81,307.41 578.75,317.89 579.69,318.37 580.62,321.79 581.56,321.29 582.50,320.48 583.44,314.22 584.38,310.14 585.31,307.30 586.25,300.91 587.19,294.39 588.12,294.14 589.06,295.12 590.00,301.05 590.94,307.10 591.88,312.37 592.81,313.11 593.75,307.70 594.69,310.39 595.62,307.51 596.56,312.47 597.50,310.60 598.44,311.22 599.38,308.86 600.31,307.99 601.25,300.86 602.19,298.54 603.12,296.55 604.06,297.27 605.00,297.56 605.94,295.28 606.88,300.26 607.81,299.34 608.75,302.78 609.69,305.32 610.62,307.71 611.56,310.77 612.50,303.18 613.44,297.89 614.38,290.51 615.31,290.05 616.25,294.21 617.19,299.08 618.12,296.98 619.06,296.11 620.00,301.76 620.94,303.54 621.88,305.37 622.81,307.26 623.75,308.95 624.69,302.68 625.62,299.54 626.56,298.99 627.50,297.11 628.44,298.26 629.38,283.70 630.31,285.12 631.25,287.58 632.19,294.83 633.12,299.31 634.06,302.58 635.00,306.85 635.94,306.39 636.88,305.29 637.81,307.41 638.75,304.93 639.69,303.34 640.62,295.72 641.56,295.16 642.50,300.44 643.44,292.86 644.38,296.19 645.31,291.62 646.25,290.11 647.19,291.75 648.12,297.26 649.06,296.59 650.00,301.75 650.94,301.10 651.88,300.81 652.81,298.76 653.75,295.92 654.69,291.75 655.62,291.35 656.56,288.80 657.50,293.89 658.44,292.20 659.38,291.81 660.31,294.24 661.25,298.59 662.19,305.56 663.13,313.51 664.06,311.85 665.00,315.12 665.94,309.65 666.88,305.11 667.81,303.68 668.75,292.09 669.69,293.74 670.62,289.16 671.56,294.50 672.50,295.95 673.44,297.26 674.38,300.61 675.31,311.34 676.25,316.83 677.19,320.06 678.13,318.91 679.06,317.84 680.00,314.25 680.94,311.86 681.88,307.41 682.81,302.03 683.75,297.35 684.69,296.67 685.62,295.20 686.56,297.51 687.50,300.97 688.44,305.97 689.38,315.29 690.31,318.76 691.25,314.69 692.19,314.36 693.13,308.39 694.06,307.40 695.00,302.81 695.94,298.69 696.88,292.02 697.81,291.29 698.75,296.70 699.69,305.20 700.62,307.81 701.56,313.23 702.50,309.91 703.44,316.74 704.37,314.05 705.31,308.59 706.25,306.73 707.19,303.87 708.12,305.18 709.06,307.39 710.00,307.66 710.94,307.79 711.88,302.47 712.81,303.55 713.75,306.25 714.69,306.34 715.62,309.81 716.56,312.79 717.50,312.19 718.44,315.36 719.38,311.19 720.31,307.91 721.25,307.90 722.19,305.75 723.13,296.00 724.06,297.01 725.00,297.28 725.94,298.82 726.88,300.47 727.81,305.87 728.75,315.09 729.69,323.05 730.62,327.87 731.56,324.40 732.50,327.08 733.44,318.91 734.38,308.44 735.31,307.75 736.25,298.14 737.19,294.64 738.12,296.93 739.06,294.50 740.00,295.90 740.94,300.48 741.88,313.88 742.81,322.31 743.75,328.57 744.69,331.99 745.62,335.11 746.56,329.14 747.50,325.31 748.44,319.24 749.38,310.59 750.31,305.80 751.25,299.75 752.19,293.27 753.12,298.43 754.06,300.18 755.00,305.11 755.94,304.83 756.88,310.87 757.81,309.15 758.75,318.14 759.69,320.15 760.63,323.43 761.56,322.03 762.50,318.95 763.44,317.23 764.38,312.84 765.31,311.83 766.25,306.60 767.19,303.67 768.13,304.30 769.06,305.12 770.00,298.58 770.94,303.27 771.88,308.53 772.81,314.92 773.75,316.09 774.69,321.22 775.62,321.00 776.56,314.98 777.50,308.17 778.44,305.60 779.38,301.72 780.31,300.26 781.25,303.67 782.19,305.85 783.12,308.16 784.06,315.34 785.00,316.24 785.94,320.13 786.88,322.05 787.81,323.74 788.75,318.82 789.69,315.53 790.62,307.83 791.56,303.29 792.50,305.35 793.44,309.24 794.38,313.25 795.31,317.44 796.25,317.27 797.19,319.36 798.13,314.48 799.06,314.57 800.00,310.82 800.94,308.79 801.88,311.90 802.81,309.33 803.75,307.68 804.69,304.82 805.62,298.45 806.56,308.41 807.50,305.39 808.44,309.75 809.37,311.39 810.31,308.52 811.25,308.84 812.19,307.19 813.12,311.68 814.06,316.48 815.00,314.87 815.94,307.85 816.88,303.27 817.81,301.68 818.75,297.98 819.69,297.75 820.62,294.70 821.56,306.64 822.50,309.79 823.44,314.39 824.38,313.43 825.31,311.43 826.25,312.83 827.19,311.57 828.12,317.36 829.06,317.66 830.00,317.03" fill="none" stroke="#17becf" stroke-width="2"/>
<line x1="855" y1="175" x2="885" y2="175" stroke="#17becf" stroke-width="3"/>
<text x="892" y="180" font-family="Arial" font-size="13">sim <v3^2></text>
</svg>