<svg xmlns="http://www.w3.org/2000/svg" width="1000" height="620" viewBox="0 0 1000 620">
<rect width="100%" height="100%" fill="white"/>
<text x="500.0" y="30" text-anchor="middle" font-family="Arial" font-size="20">Numerical reservoir ODE minus analytic curve</text>
<line x1="80" y1="550" x2="830" y2="550" stroke="black"/>
<line x1="80" y1="55" x2="80" y2="550" stroke="black"/>
<text x="500.0" y="600" text-anchor="middle" font-family="Arial" font-size="15">time</text>
<text x="22" y="310.0" transform="rotate(-90 22 310.0)" text-anchor="middle" font-family="Arial" font-size="15">error</text>
<line x1="80.00" y1="55" x2="80.00" y2="550" stroke="#ddd"/>
<text x="80.00" y="572" text-anchor="middle" font-family="Arial" font-size="12">0</text>
<line x1="80" y1="550.00" x2="830" y2="550.00" stroke="#ddd"/>
<text x="70" y="554.00" text-anchor="end" font-family="Arial" font-size="12">-1.06e-08</text>
<line x1="267.50" y1="55" x2="267.50" y2="550" stroke="#ddd"/>
<text x="267.50" y="572" text-anchor="middle" font-family="Arial" font-size="12">40</text>
<line x1="80" y1="426.25" x2="830" y2="426.25" stroke="#ddd"/>
<text x="70" y="430.25" text-anchor="end" font-family="Arial" font-size="12">-4.38e-09</text>
<line x1="455.00" y1="55" x2="455.00" y2="550" stroke="#ddd"/>
<text x="455.00" y="572" text-anchor="middle" font-family="Arial" font-size="12">80</text>
<line x1="80" y1="302.50" x2="830" y2="302.50" stroke="#ddd"/>
<text x="70" y="306.50" text-anchor="end" font-family="Arial" font-size="12">1.86e-09</text>
<line x1="642.50" y1="55" x2="642.50" y2="550" stroke="#ddd"/>
<text x="642.50" y="572" text-anchor="middle" font-family="Arial" font-size="12">120</text>
<line x1="80" y1="178.75" x2="830" y2="178.75" stroke="#ddd"/>
<text x="70" y="182.75" text-anchor="end" font-family="Arial" font-size="12">8.09e-09</text>
<line x1="830.00" y1="55" x2="830.00" y2="550" stroke="#ddd"/>
<text x="830.00" y="572" text-anchor="middle" font-family="Arial" font-size="12">160</text>
<line x1="80" y1="55.00" x2="830" y2="55.00" stroke="#ddd"/>
<text x="70" y="59.00" text-anchor="end" font-family="Arial" font-size="12">1.43e-08</text>
<polyline points="80.00,339.33 80.94,134.64 81.88,89.14 82.81,108.66 83.75,148.55 84.69,189.26 85.62,223.52 86.56,249.68 87.50,268.41 88.44,281.15 89.38,289.36 90.31,294.33 91.25,297.05 92.19,298.26 93.12,298.50 94.06,298.15 95.00,297.45 95.94,296.60 96.88,295.70 97.81,294.83 98.75,294.06 99.69,293.40 100.62,292.88 101.56,292.53 102.50,292.33 103.44,292.31 104.38,292.46 105.31,292.79 106.25,293.29 107.19,293.97 108.12,294.82 109.06,295.84 110.00,297.03 110.94,298.39 111.88,299.91 112.81,301.59 113.75,303.43 114.69,305.42 115.62,307.56 116.56,309.84 117.50,312.27 118.44,314.83 119.38,317.52 120.31,320.35 121.25,323.29 122.19,326.35 123.12,329.53 124.06,332.81 125.00,336.20 125.94,339.68 126.88,343.25 127.81,346.90 128.75,350.64 129.69,354.45 130.62,358.32 131.56,362.26 132.50,366.25 133.44,370.29 134.38,374.38 135.31,378.50 136.25,382.65 137.19,386.83 138.12,391.03 139.06,395.24 140.00,399.46 140.94,403.68 141.88,407.89 142.81,412.10 143.75,416.28 144.69,420.45 145.62,424.59 146.56,428.69 147.50,432.75 148.44,436.77 149.38,440.74 150.31,444.65 151.25,448.50 152.19,452.29 153.12,456.00 154.06,459.64 155.00,463.20 155.94,466.68 156.88,470.06 157.81,473.35 158.75,476.55 159.69,479.64 160.62,482.63 161.56,485.50 162.50,488.27 163.44,490.92 164.38,493.45 165.31,495.85 166.25,498.13 167.19,500.28 168.12,502.31 169.06,504.19 170.00,505.95 170.94,507.56 171.88,509.04 172.81,510.38 173.75,511.57 174.69,512.62 175.62,513.52 176.56,514.28 177.50,514.89 178.44,515.36 179.38,515.67 180.31,515.84 181.25,515.86 182.19,515.73 183.12,515.46 184.06,515.03 185.00,514.46 185.94,513.75 186.88,512.89 187.81,511.88 188.75,510.73 189.69,509.44 190.62,508.01 191.56,506.44 192.50,504.73 193.44,502.89 194.38,500.91 195.31,498.81 196.25,496.57 197.19,494.21 198.12,491.73 199.06,489.12 200.00,486.40 200.94,483.56 201.88,480.62 202.81,477.56 203.75,474.40 204.69,471.13 205.62,467.77 206.56,464.31 207.50,460.75 208.44,457.11 209.38,453.39 210.31,449.59 211.25,445.71 212.19,441.75 213.12,437.73 214.06,433.64 215.00,429.49 215.94,425.29 216.88,421.03 217.81,416.72 218.75,412.37 219.69,407.98 220.62,403.55 221.56,399.09 222.50,394.61 223.44,390.10 224.38,385.57 225.31,381.02 226.25,376.47 227.19,371.91 228.12,367.35 229.06,362.79 230.00,358.23 230.94,353.69 231.88,349.15 232.81,344.64 233.75,340.15 234.69,335.69 235.62,331.25 236.56,326.85 237.50,322.49 238.44,318.16 239.38,313.89 240.31,309.66 241.25,305.48 242.19,301.36 243.13,297.29 244.06,293.29 245.00,289.35 245.94,285.48 246.88,281.68 247.81,277.96 248.75,274.31 249.69,270.74 250.62,267.26 251.56,263.86 252.50,260.54 253.44,257.32 254.38,254.19 255.31,251.15 256.25,248.21 257.19,245.36 258.12,242.62 259.06,239.98 260.00,237.44 260.94,235.00 261.88,232.67 262.81,230.45 263.75,228.34 264.69,226.34 265.62,224.44 266.56,222.66 267.50,220.99 268.44,219.44 269.38,217.99 270.31,216.67 271.25,215.45 272.19,214.35 273.12,213.36 274.06,212.49 275.00,211.74 275.94,211.09 276.88,210.56 277.81,210.15 278.75,209.84 279.69,209.65 280.62,209.57 281.56,209.61 282.50,209.75 283.44,210.00 284.38,210.36 285.31,210.82 286.25,211.39 287.19,212.07 288.12,212.84 289.06,213.72 290.00,214.70 290.94,215.78 291.88,216.95 292.81,218.21 293.75,219.57 294.69,221.02 295.62,222.56 296.56,224.19 297.50,225.90 298.44,227.69 299.38,229.56 300.31,231.51 301.25,233.54 302.19,235.64 303.12,237.81 304.06,240.05 305.00,242.35 305.94,244.72 306.88,247.14 307.81,249.63 308.75,252.17 309.69,254.77 310.62,257.41 311.56,260.10 312.50,262.84 313.44,265.62 314.38,268.44 315.31,271.29 316.25,274.18 317.19,277.10 318.12,280.05 319.06,283.02 320.00,286.02 320.94,289.04 321.88,292.07 322.81,295.12 323.75,298.18 324.69,301.25 325.62,304.33 326.56,307.41 327.50,310.49 328.44,313.57 329.38,316.65 330.31,319.72 331.25,322.79 332.19,325.84 333.12,328.87 334.06,331.89 335.00,334.90 335.94,337.88 336.88,340.83 337.81,343.77 338.75,346.67 339.69,349.54 340.62,352.39 341.56,355.19 342.50,357.97 343.44,360.70 344.38,363.39 345.31,366.05 346.25,368.65 347.19,371.22 348.13,373.73 349.06,376.20 350.00,378.62 350.94,380.98 351.88,383.29 352.81,385.55 353.75,387.75 354.69,389.89 355.63,391.98 356.56,394.00 357.50,395.97 358.44,397.87 359.38,399.71 360.31,401.48 361.25,403.20 362.19,404.84 363.12,406.42 364.06,407.94 365.00,409.38 365.94,410.76 366.88,412.07 367.81,413.32 368.75,414.49 369.69,415.59 370.62,416.63 371.56,417.59 372.50,418.49 373.44,419.32 374.38,420.08 375.31,420.76 376.25,421.38 377.19,421.93 378.12,422.41 379.06,422.83 380.00,423.17 380.94,423.45 381.88,423.66 382.81,423.80 383.75,423.88 384.69,423.90 385.62,423.84 386.56,423.73 387.50,423.55 388.44,423.31 389.38,423.01 390.31,422.65 391.25,422.23 392.19,421.75 393.12,421.21 394.06,420.62 395.00,419.97 395.94,419.27 396.88,418.51 397.81,417.70 398.75,416.85 399.69,415.94 400.63,414.99 401.56,413.99 402.50,412.94 403.44,411.85 404.38,410.72 405.31,409.55 406.25,408.33 407.19,407.08 408.12,405.80 409.06,404.48 410.00,403.12 410.94,401.73 411.88,400.31 412.81,398.87 413.75,397.39 414.69,395.89 415.63,394.37 416.56,392.82 417.50,391.25 418.44,389.66 419.38,388.05 420.31,386.43 421.25,384.79 422.19,383.14 423.12,381.47 424.06,379.80 425.00,378.11 425.94,376.42 426.88,374.73 427.81,373.02 428.75,371.32 429.69,369.61 430.62,367.90 431.56,366.20 432.50,364.49 433.44,362.79 434.38,361.10 435.31,359.41 436.25,357.73 437.19,356.06 438.12,354.40 439.06,352.76 440.00,351.12 440.94,349.50 441.88,347.90 442.81,346.31 443.75,344.74 444.69,343.19 445.62,341.65 446.56,340.14 447.50,338.65 448.44,337.19 449.38,335.75 450.31,334.33 451.25,332.94 452.19,331.57 453.13,330.24 454.06,328.93 455.00,327.65 455.94,326.39 456.88,325.17 457.81,323.98 458.75,322.82 459.69,321.70 460.63,320.60 461.56,319.54 462.50,318.52 463.44,317.52 464.37,316.57 465.31,315.64 466.25,314.75 467.19,313.90 468.12,313.09 469.06,312.30 470.00,311.56 470.94,310.85 471.88,310.18 472.81,309.55 473.75,308.95 474.69,308.39 475.63,307.86 476.56,307.37 477.50,306.92 478.44,306.51 479.38,306.13 480.31,305.79 481.25,305.49 482.19,305.22 483.12,304.99 484.06,304.79 485.00,304.63 485.94,304.50 486.88,304.41 487.81,304.35 488.75,304.33 489.69,304.34 490.63,304.38 491.56,304.45 492.50,304.56 493.44,304.70 494.38,304.87 495.31,305.08 496.25,305.31 497.19,305.57 498.12,305.86 499.06,306.18 500.00,306.52 500.94,306.90 501.88,307.30 502.81,307.72 503.75,308.18 504.69,308.65 505.62,309.15 506.56,309.67 507.50,310.22 508.44,310.78 509.38,311.37 510.31,311.98 511.25,312.61 512.19,313.25 513.12,313.91 514.06,314.59 515.00,315.29 515.94,316.00 516.88,316.73 517.81,317.47 518.75,318.22 519.69,318.99 520.62,319.76 521.56,320.55 522.50,321.35 523.44,322.16 524.38,322.97 525.31,323.80 526.25,324.63 527.19,325.46 528.12,326.30 529.06,327.15 530.00,328.00 530.94,328.85 531.88,329.71 532.81,330.56 533.75,331.42 534.69,332.28 535.62,333.13 536.56,333.99 537.50,334.84 538.44,335.69 539.38,336.54 540.31,337.38 541.25,338.22 542.19,339.05 543.12,339.88 544.06,340.70 545.00,341.51 545.94,342.31 546.88,343.11 547.81,343.90 548.75,344.68 549.69,345.44 550.62,346.20 551.56,346.95 552.50,347.69 553.44,348.41 554.38,349.12 555.31,349.82 556.25,350.51 557.19,351.18 558.12,351.84 559.06,352.48 560.00,353.11 560.94,353.72 561.88,354.32 562.81,354.91 563.75,355.47 564.69,356.03 565.62,356.56 566.56,357.08 567.50,357.58 568.44,358.06 569.38,358.53 570.31,358.98 571.25,359.41 572.19,359.83 573.12,360.23 574.06,360.61 575.00,360.97 575.94,361.31 576.88,361.64 577.81,361.94 578.75,362.23 579.69,362.50 580.62,362.76 581.56,362.99 582.50,363.21 583.44,363.41 584.38,363.59 585.31,363.75 586.25,363.90 587.19,364.03 588.12,364.14 589.06,364.23 590.00,364.31 590.94,364.37 591.88,364.41 592.81,364.44 593.75,364.45 594.69,364.44 595.62,364.42 596.56,364.38 597.50,364.33 598.44,364.26 599.38,364.18 600.31,364.08 601.25,363.96 602.19,363.84 603.12,363.70 604.06,363.54 605.00,363.37 605.94,363.19 606.88,363.00 607.81,362.79 608.75,362.58 609.69,362.35 610.62,362.11 611.56,361.86 612.50,361.59 613.44,361.32 614.38,361.04 615.31,360.75 616.25,360.45 617.19,360.14 618.12,359.82 619.06,359.50 620.00,359.16 620.94,358.82 621.88,358.48 622.81,358.12 623.75,357.76 624.69,357.40 625.62,357.03 626.56,356.65 627.50,356.27 628.44,355.89 629.38,355.50 630.31,355.11 631.25,354.71 632.19,354.32 633.12,353.92 634.06,353.52 635.00,353.11 635.94,352.71 636.88,352.30 637.81,351.90 638.75,351.49 639.69,351.09 640.62,350.68 641.56,350.28 642.50,349.87 643.44,349.47 644.38,349.07 645.31,348.67 646.25,348.28 647.19,347.88 648.12,347.49 649.06,347.11 650.00,346.72 650.94,346.34 651.88,345.97 652.81,345.60 653.75,345.23 654.69,344.87 655.62,344.51 656.56,344.16 657.50,343.82 658.44,343.48 659.38,343.14 660.31,342.81 661.25,342.49 662.19,342.17 663.13,341.87 664.06,341.56 665.00,341.27 665.94,340.98 666.88,340.70 667.81,340.43 668.75,340.16 669.69,339.90 670.62,339.65 671.56,339.41 672.50,339.17 673.44,338.95 674.38,338.73 675.31,338.52 676.25,338.32 677.19,338.12 678.13,337.94 679.06,337.76 680.00,337.59 680.94,337.43 681.88,337.28 682.81,337.13 683.75,337.00 684.69,336.87 685.62,336.75 686.56,336.64 687.50,336.54 688.44,336.45 689.38,336.36 690.31,336.29 691.25,336.22 692.19,336.16 693.13,336.11 694.06,336.06 695.00,336.03 695.94,336.00 696.88,335.98 697.81,335.96 698.75,335.96 699.69,335.96 700.62,335.97 701.56,335.99 702.50,336.01 703.44,336.04 704.37,336.08 705.31,336.13 706.25,336.18 707.19,336.23 708.12,336.30 709.06,336.37 710.00,336.45 710.94,336.53 711.88,336.62 712.81,336.71 713.75,336.81 714.69,336.92 715.62,337.03 716.56,337.14 717.50,337.26 718.44,337.39 719.38,337.51 720.31,337.65 721.25,337.79 722.19,337.93 723.13,338.07 724.06,338.22 725.00,338.37 725.94,338.53 726.88,338.69 727.81,338.85 728.75,339.01 729.69,339.18 730.62,339.35 731.56,339.52 732.50,339.70 733.44,339.87 734.38,340.05 735.31,340.23 736.25,340.41 737.19,340.59 738.12,340.77 739.06,340.95 740.00,341.14 740.94,341.32 741.88,341.51 742.81,341.69 743.75,341.88 744.69,342.06 745.62,342.25 746.56,342.43 747.50,342.62 748.44,342.80 749.38,342.98 750.31,343.16 751.25,343.34 752.19,343.52 753.12,343.70 754.06,343.88 755.00,344.05 755.94,344.22 756.88,344.39 757.81,344.56 758.75,344.73 759.69,344.89 760.63,345.06 761.56,345.22 762.50,345.37 763.44,345.53 764.38,345.68 765.31,345.83 766.25,345.98 767.19,346.12 768.13,346.26 769.06,346.40 770.00,346.53 770.94,346.66 771.88,346.79 772.81,346.91 773.75,347.03 774.69,347.15 775.62,347.27 776.56,347.38 777.50,347.48 778.44,347.59 779.38,347.69 780.31,347.78 781.25,347.87 782.19,347.96 783.12,348.05 784.06,348.13 785.00,348.20 785.94,348.28 786.88,348.35 787.81,348.41 788.75,348.47 789.69,348.53 790.62,348.58 791.56,348.63 792.50,348.68 793.44,348.72 794.38,348.76 795.31,348.80 796.25,348.83 797.19,348.86 798.13,348.88 799.06,348.90 800.00,348.92 800.94,348.93 801.88,348.94 802.81,348.95 803.75,348.95 804.69,348.95 805.62,348.95 806.56,348.94 807.50,348.93 808.44,348.92 809.37,348.90 810.31,348.88 811.25,348.86 812.19,348.83 813.12,348.81 814.06,348.77 815.00,348.74 815.94,348.70 816.88,348.67 817.81,348.62 818.75,348.58 819.69,348.53 820.62,348.48 821.56,348.43 822.50,348.38 823.44,348.33 824.38,348.27 825.31,348.21 826.25,348.15 827.19,348.09 828.12,348.02 829.06,347.96 830.00,347.89" fill="none" stroke="#1f77b4" stroke-width="2"/>
<line x1="855" y1="55" x2="885" y2="55" stroke="#1f77b4" stroke-width="3"/>
<text x="892" y="60" font-family="Arial" font-size="13">T1 error</text>
<polyline points="80.00,339.33 80.94,139.83 81.88,99.17 82.81,123.19 83.75,167.23 84.69,211.75 85.62,249.46 86.56,278.71 87.50,300.19 88.44,315.30 89.38,325.55 90.31,332.19 91.25,336.23 92.19,338.42 93.12,339.29 94.06,339.21 95.00,338.46 95.94,337.21 96.88,335.59 97.81,333.67 98.75,331.53 99.69,329.18 100.62,326.68 101.56,324.03 102.50,321.25 103.44,318.36 104.38,315.36 105.31,312.27 106.25,309.10 107.19,305.85 108.12,302.53 109.06,299.15 110.00,295.72 110.94,292.24 111.88,288.73 112.81,285.19 113.75,281.62 114.69,278.03 115.62,274.44 116.56,270.85 117.50,267.26 118.44,263.68 119.38,260.12 120.31,256.59 121.25,253.09 122.19,249.63 123.12,246.22 124.06,242.86 125.00,239.55 125.94,236.31 126.88,233.13 127.81,230.04 128.75,227.02 129.69,224.09 130.62,221.24 131.56,218.50 132.50,215.85 133.44,213.31 134.38,210.88 135.31,208.56 136.25,206.36 137.19,204.27 138.12,202.32 139.06,200.49 140.00,198.79 140.94,197.23 141.88,195.80 142.81,194.51 143.75,193.37 144.69,192.36 145.62,191.51 146.56,190.80 147.50,190.24 148.44,189.82 149.38,189.56 150.31,189.45 151.25,189.49 152.19,189.69 153.12,190.04 154.06,190.54 155.00,191.19 155.94,192.00 156.88,192.95 157.81,194.06 158.75,195.32 159.69,196.72 160.62,198.28 161.56,199.97 162.50,201.82 163.44,203.80 164.38,205.92 165.31,208.19 166.25,210.58 167.19,213.11 168.12,215.77 169.06,218.56 170.00,221.47 170.94,224.51 171.88,227.66 172.81,230.92 173.75,234.30 174.69,237.78 175.62,241.37 176.56,245.06 177.50,248.84 178.44,252.72 179.38,256.68 180.31,260.73 181.25,264.86 182.19,269.06 183.12,273.33 184.06,277.67 185.00,282.07 185.94,286.53 186.88,291.04 187.81,295.60 188.75,300.20 189.69,304.85 190.62,309.52 191.56,314.23 192.50,318.96 193.44,323.71 194.38,328.47 195.31,333.25 196.25,338.03 197.19,342.81 198.12,347.59 199.06,352.36 200.00,357.12 200.94,361.86 201.88,366.58 202.81,371.27 203.75,375.94 204.69,380.56 205.62,385.15 206.56,389.69 207.50,394.19 208.44,398.63 209.38,403.02 210.31,407.35 211.25,411.61 212.19,415.81 213.12,419.93 214.06,423.98 215.00,427.96 215.94,431.85 216.88,435.65 217.81,439.37 218.75,443.00 219.69,446.53 220.62,449.96 221.56,453.30 222.50,456.53 223.44,459.66 224.38,462.68 225.31,465.59 226.25,468.39 227.19,471.08 228.12,473.65 229.06,476.10 230.00,478.43 230.94,480.64 231.88,482.73 232.81,484.70 233.75,486.55 234.69,488.26 235.62,489.85 236.56,491.32 237.50,492.66 238.44,493.87 239.38,494.95 240.31,495.90 241.25,496.72 242.19,497.41 243.13,497.98 244.06,498.42 245.00,498.72 245.94,498.91 246.88,498.96 247.81,498.89 248.75,498.69 249.69,498.37 250.62,497.92 251.56,497.35 252.50,496.66 253.44,495.85 254.38,494.93 255.31,493.88 256.25,492.73 257.19,491.45 258.12,490.07 259.06,488.58 260.00,486.98 260.94,485.27 261.88,483.47 262.81,481.56 263.75,479.55 264.69,477.45 265.62,475.25 266.56,472.96 267.50,470.59 268.44,468.13 269.38,465.58 270.31,462.96 271.25,460.26 272.19,457.48 273.12,454.64 274.06,451.72 275.00,448.74 275.94,445.70 276.88,442.60 277.81,439.44 278.75,436.23 279.69,432.97 280.62,429.66 281.56,426.31 282.50,422.92 283.44,419.50 284.38,416.04 285.31,412.54 286.25,409.02 287.19,405.48 288.12,401.92 289.06,398.34 290.00,394.74 290.94,391.14 291.88,387.52 292.81,383.90 293.75,380.28 294.69,376.66 295.62,373.05 296.56,369.44 297.50,365.84 298.44,362.26 299.38,358.69 300.31,355.14 301.25,351.61 302.19,348.11 303.12,344.64 304.06,341.19 305.00,337.78 305.94,334.41 306.88,331.07 307.81,327.78 308.75,324.52 309.69,321.32 310.62,318.16 311.56,315.05 312.50,311.99 313.44,308.99 314.38,306.04 315.31,303.15 316.25,300.33 317.19,297.56 318.12,294.86 319.06,292.22 320.00,289.66 320.94,287.16 321.88,284.73 322.81,282.37 323.75,280.08 324.69,277.87 325.62,275.73 326.56,273.68 327.50,271.69 328.44,269.79 329.38,267.97 330.31,266.22 331.25,264.56 332.19,262.98 333.12,261.48 334.06,260.06 335.00,258.72 335.94,257.47 336.88,256.30 337.81,255.22 338.75,254.22 339.69,253.30 340.62,252.47 341.56,251.72 342.50,251.05 343.44,250.46 344.38,249.96 345.31,249.54 346.25,249.21 347.19,248.95 348.13,248.78 349.06,248.68 350.00,248.66 350.94,248.73 351.88,248.87 352.81,249.08 353.75,249.38 354.69,249.74 355.63,250.19 356.56,250.70 357.50,251.28 358.44,251.94 359.38,252.66 360.31,253.46 361.25,254.32 362.19,255.24 363.12,256.23 364.06,257.27 365.00,258.38 365.94,259.55 366.88,260.78 367.81,262.06 368.75,263.39 369.69,264.78 370.62,266.22 371.56,267.70 372.50,269.24 373.44,270.82 374.38,272.44 375.31,274.11 376.25,275.81 377.19,277.55 378.12,279.33 379.06,281.14 380.00,282.99 380.94,284.86 381.88,286.77 382.81,288.70 383.75,290.66 384.69,292.64 385.62,294.64 386.56,296.66 387.50,298.69 388.44,300.74 389.38,302.81 390.31,304.89 391.25,306.97 392.19,309.07 393.12,311.17 394.06,313.27 395.00,315.38 395.94,317.49 396.88,319.60 397.81,321.70 398.75,323.80 399.69,325.90 400.63,327.98 401.56,330.06 402.50,332.12 403.44,334.18 404.38,336.22 405.31,338.24 406.25,340.24 407.19,342.23 408.12,344.19 409.06,346.14 410.00,348.06 410.94,349.96 411.88,351.83 412.81,353.67 413.75,355.49 414.69,357.27 415.63,359.03 416.56,360.75 417.50,362.45 418.44,364.10 419.38,365.73 420.31,367.31 421.25,368.86 422.19,370.38 423.12,371.85 424.06,373.29 425.00,374.68 425.94,376.04 426.88,377.35 427.81,378.63 428.75,379.86 429.69,381.05 430.62,382.19 431.56,383.29 432.50,384.35 433.44,385.36 434.38,386.32 435.31,387.24 436.25,388.12 437.19,388.95 438.12,389.74 439.06,390.47 440.00,391.17 440.94,391.81 441.88,392.41 442.81,392.97 443.75,393.48 444.69,393.94 445.62,394.36 446.56,394.73 447.50,395.06 448.44,395.34 449.38,395.58 450.31,395.77 451.25,395.92 452.19,396.02 453.13,396.09 454.06,396.11 455.00,396.09 455.94,396.02 456.88,395.92 457.81,395.77 458.75,395.59 459.69,395.36 460.63,395.10 461.56,394.80 462.50,394.46 463.44,394.09 464.37,393.68 465.31,393.23 466.25,392.76 467.19,392.24 468.12,391.70 469.06,391.12 470.00,390.52 470.94,389.88 471.88,389.21 472.81,388.52 473.75,387.80 474.69,387.05 475.63,386.28 476.56,385.48 477.50,384.66 478.44,383.82 479.38,382.95 480.31,382.07 481.25,381.16 482.19,380.24 483.12,379.30 484.06,378.34 485.00,377.37 485.94,376.38 486.88,375.38 487.81,374.37 488.75,373.35 489.69,372.31 490.63,371.27 491.56,370.21 492.50,369.15 493.44,368.09 494.38,367.01 495.31,365.94 496.25,364.86 497.19,363.77 498.12,362.69 499.06,361.60 500.00,360.51 500.94,359.43 501.88,358.34 502.81,357.26 503.75,356.18 504.69,355.11 505.62,354.04 506.56,352.98 507.50,351.92 508.44,350.88 509.38,349.84 510.31,348.81 511.25,347.79 512.19,346.78 513.12,345.78 514.06,344.79 515.00,343.82 515.94,342.86 516.88,341.91 517.81,340.98 518.75,340.06 519.69,339.16 520.62,338.28 521.56,337.41 522.50,336.56 523.44,335.72 524.38,334.91 525.31,334.11 526.25,333.34 527.19,332.58 528.12,331.84 529.06,331.12 530.00,330.43 530.94,329.75 531.88,329.10 532.81,328.46 533.75,327.85 534.69,327.26 535.62,326.69 536.56,326.15 537.50,325.63 538.44,325.13 539.38,324.65 540.31,324.19 541.25,323.76 542.19,323.35 543.12,322.97 544.06,322.61 545.00,322.27 545.94,321.95 546.88,321.66 547.81,321.39 548.75,321.14 549.69,320.91 550.62,320.71 551.56,320.53 552.50,320.37 553.44,320.24 554.38,320.13 555.31,320.04 556.25,319.97 557.19,319.92 558.12,319.89 559.06,319.89 560.00,319.90 560.94,319.94 561.88,319.99 562.81,320.07 563.75,320.16 564.69,320.28 565.62,320.41 566.56,320.56 567.50,320.73 568.44,320.91 569.38,321.12 570.31,321.34 571.25,321.58 572.19,321.83 573.12,322.10 574.06,322.38 575.00,322.68 575.94,323.00 576.88,323.32 577.81,323.67 578.75,324.02 579.69,324.39 580.62,324.76 581.56,325.15 582.50,325.55 583.44,325.97 584.38,326.39 585.31,326.82 586.25,327.26 587.19,327.71 588.12,328.17 589.06,328.63 590.00,329.11 590.94,329.58 591.88,330.07 592.81,330.56 593.75,331.06 594.69,331.56 595.62,332.06 596.56,332.57 597.50,333.09 598.44,333.60 599.38,334.12 600.31,334.64 601.25,335.16 602.19,335.68 603.12,336.21 604.06,336.73 605.00,337.25 605.94,337.78 606.88,338.30 607.81,338.82 608.75,339.33 609.69,339.85 610.62,340.36 611.56,340.87 612.50,341.38 613.44,341.88 614.38,342.38 615.31,342.87 616.25,343.36 617.19,343.84 618.12,344.32 619.06,344.79 620.00,345.25 620.94,345.71 621.88,346.16 622.81,346.61 623.75,347.05 624.69,347.48 625.62,347.90 626.56,348.31 627.50,348.72 628.44,349.11 629.38,349.50 630.31,349.88 631.25,350.25 632.19,350.61 633.12,350.96 634.06,351.30 635.00,351.63 635.94,351.95 636.88,352.26 637.81,352.56 638.75,352.85 639.69,353.13 640.62,353.40 641.56,353.65 642.50,353.90 643.44,354.14 644.38,354.36 645.31,354.58 646.25,354.78 647.19,354.98 648.12,355.16 649.06,355.33 650.00,355.49 650.94,355.64 651.88,355.78 652.81,355.90 653.75,356.02 654.69,356.13 655.62,356.22 656.56,356.31 657.50,356.38 658.44,356.44 659.38,356.50 660.31,356.54 661.25,356.57 662.19,356.60 663.13,356.61 664.06,356.61 665.00,356.61 665.94,356.59 666.88,356.56 667.81,356.53 668.75,356.49 669.69,356.43 670.62,356.37 671.56,356.30 672.50,356.22 673.44,356.14 674.38,356.04 675.31,355.94 676.25,355.83 677.19,355.71 678.13,355.59 679.06,355.45 680.00,355.32 680.94,355.17 681.88,355.02 682.81,354.86 683.75,354.70 684.69,354.53 685.62,354.35 686.56,354.17 687.50,353.98 688.44,353.79 689.38,353.60 690.31,353.40 691.25,353.19 692.19,352.98 693.13,352.77 694.06,352.56 695.00,352.34 695.94,352.12 696.88,351.89 697.81,351.67 698.75,351.44 699.69,351.20 700.62,350.97 701.56,350.74 702.50,350.50 703.44,350.26 704.37,350.02 705.31,349.78 706.25,349.54 707.19,349.30 708.12,349.06 709.06,348.82 710.00,348.58 710.94,348.33 711.88,348.09 712.81,347.86 713.75,347.62 714.69,347.38 715.62,347.14 716.56,346.91 717.50,346.68 718.44,346.45 719.38,346.22 720.31,345.99 721.25,345.76 722.19,345.54 723.13,345.32 724.06,345.11 725.00,344.89 725.94,344.68 726.88,344.48 727.81,344.27 728.75,344.07 729.69,343.87 730.62,343.68 731.56,343.49 732.50,343.30 733.44,343.12 734.38,342.94 735.31,342.77 736.25,342.60 737.19,342.44 738.12,342.28 739.06,342.12 740.00,341.97 740.94,341.82 741.88,341.68 742.81,341.54 743.75,341.41 744.69,341.28 745.62,341.16 746.56,341.04 747.50,340.93 748.44,340.82 749.38,340.71 750.31,340.62 751.25,340.52 752.19,340.43 753.12,340.35 754.06,340.27 755.00,340.20 755.94,340.13 756.88,340.06 757.81,340.01 758.75,339.95 759.69,339.90 760.63,339.86 761.56,339.82 762.50,339.79 763.44,339.76 764.38,339.73 765.31,339.71 766.25,339.69 767.19,339.68 768.13,339.68 769.06,339.67 770.00,339.68 770.94,339.68 771.88,339.69 772.81,339.71 773.75,339.73 774.69,339.75 775.62,339.78 776.56,339.81 777.50,339.84 778.44,339.88 779.38,339.93 780.31,339.97 781.25,340.02 782.19,340.07 783.12,340.13 784.06,340.19 785.00,340.25 785.94,340.31 786.88,340.38 787.81,340.45 788.75,340.53 789.69,340.60 790.62,340.68 791.56,340.76 792.50,340.85 793.44,340.93 794.38,341.02 795.31,341.11 796.25,341.20 797.19,341.29 798.13,341.39 799.06,341.48 800.00,341.58 800.94,341.68 801.88,341.78 802.81,341.88 803.75,341.99 804.69,342.09 805.62,342.19 806.56,342.30 807.50,342.41 808.44,342.51 809.37,342.62 810.31,342.73 811.25,342.83 812.19,342.94 813.12,343.05 814.06,343.16 815.00,343.27 815.94,343.37 816.88,343.48 817.81,343.59 818.75,343.70 819.69,343.80 820.62,343.91 821.56,344.01 822.50,344.12 823.44,344.22 824.38,344.32 825.31,344.42 826.25,344.52 827.19,344.62 828.12,344.72 829.06,344.82 830.00,344.91" fill="none" stroke="#d62728" stroke-width="2"/>
<line x1="855" y1="79" x2="885" y2="79" stroke="#d62728" stroke-width="3"/>
<text x="892" y="84" font-family="Arial" font-size="13">T2 error</text>
<polyline points="80.00,339.33 80.94,141.11 81.88,102.10 82.81,128.09 83.75,174.43 84.69,221.56 85.62,262.18 86.56,294.63 87.50,319.56 88.44,338.40 89.38,352.60 90.31,363.44 91.25,371.88 92.19,378.67 93.12,384.32 94.06,389.21 95.00,393.57 95.94,397.57 96.88,401.32 97.81,404.90 98.75,408.33 99.69,411.66 100.62,414.89 101.56,418.03 102.50,421.09 103.44,424.06 104.38,426.93 105.31,429.72 106.25,432.40 107.19,434.98 108.12,437.45 109.06,439.82 110.00,442.06 110.94,444.18 111.88,446.18 112.81,448.04 113.75,449.77 114.69,451.37 115.62,452.82 116.56,454.13 117.50,455.29 118.44,456.30 119.38,457.17 120.31,457.88 121.25,458.43 122.19,458.83 123.12,459.07 124.06,459.15 125.00,459.07 125.94,458.83 126.88,458.43 127.81,457.88 128.75,457.16 129.69,456.29 130.62,455.25 131.56,454.06 132.50,452.72 133.44,451.22 134.38,449.56 135.31,447.76 136.25,445.81 137.19,443.71 138.12,441.47 139.06,439.08 140.00,436.56 140.94,433.91 141.88,431.12 142.81,428.20 143.75,425.16 144.69,422.00 145.62,418.72 146.56,415.33 147.50,411.83 148.44,408.22 149.38,404.52 150.31,400.71 151.25,396.82 152.19,392.84 153.12,388.77 154.06,384.63 155.00,380.42 155.94,376.14 156.88,371.80 157.81,367.40 158.75,362.95 159.69,358.45 160.62,353.91 161.56,349.34 162.50,344.73 163.44,340.10 164.38,335.45 165.31,330.78 166.25,326.10 167.19,321.42 168.12,316.74 169.06,312.06 170.00,307.40 170.94,302.75 171.88,298.12 172.81,293.52 173.75,288.95 174.69,284.42 175.62,279.92 176.56,275.48 177.50,271.08 178.44,266.74 179.38,262.46 180.31,258.25 181.25,254.10 182.19,250.02 183.12,246.03 184.06,242.11 185.00,238.28 185.94,234.54 186.88,230.89 187.81,227.33 188.75,223.88 189.69,220.53 190.62,217.29 191.56,214.15 192.50,211.13 193.44,208.22 194.38,205.43 195.31,202.76 196.25,200.21 197.19,197.79 198.12,195.50 199.06,193.33 200.00,191.29 200.94,189.39 201.88,187.62 202.81,185.98 203.75,184.49 204.69,183.12 205.62,181.90 206.56,180.82 207.50,179.87 208.44,179.07 209.38,178.40 210.31,177.88 211.25,177.50 212.19,177.26 213.12,177.15 214.06,177.19 215.00,177.37 215.94,177.68 216.88,178.14 217.81,178.72 218.75,179.45 219.69,180.31 220.62,181.30 221.56,182.42 222.50,183.68 223.44,185.06 224.38,186.57 225.31,188.20 226.25,189.96 227.19,191.83 228.12,193.82 229.06,195.93 230.00,198.15 230.94,200.49 231.88,202.93 232.81,205.47 233.75,208.12 234.69,210.87 235.62,213.71 236.56,216.65 237.50,219.67 238.44,222.79 239.38,225.98 240.31,229.26 241.25,232.62 242.19,236.05 243.13,239.55 244.06,243.11 245.00,246.74 245.94,250.43 246.88,254.17 247.81,257.97 248.75,261.81 249.69,265.70 250.62,269.64 251.56,273.61 252.50,277.61 253.44,281.64 254.38,285.70 255.31,289.78 256.25,293.88 257.19,298.00 258.12,302.12 259.06,306.26 260.00,310.40 260.94,314.54 261.88,318.68 262.81,322.81 263.75,326.93 264.69,331.03 265.62,335.12 266.56,339.19 267.50,343.23 268.44,347.25 269.38,351.24 270.31,355.19 271.25,359.11 272.19,362.98 273.12,366.81 274.06,370.60 275.00,374.34 275.94,378.02 276.88,381.65 277.81,385.23 278.75,388.74 279.69,392.19 280.62,395.58 281.56,398.90 282.50,402.15 283.44,405.32 284.38,408.42 285.31,411.45 286.25,414.40 287.19,417.27 288.12,420.05 289.06,422.76 290.00,425.37 290.94,427.90 291.88,430.35 292.81,432.70 293.75,434.96 294.69,437.13 295.62,439.21 296.56,441.19 297.50,443.08 298.44,444.87 299.38,446.57 300.31,448.16 301.25,449.66 302.19,451.07 303.12,452.37 304.06,453.58 305.00,454.68 305.94,455.69 306.88,456.60 307.81,457.41 308.75,458.12 309.69,458.73 310.62,459.25 311.56,459.66 312.50,459.98 313.44,460.21 314.38,460.34 315.31,460.37 316.25,460.31 317.19,460.15 318.12,459.91 319.06,459.57 320.00,459.14 320.94,458.62 321.88,458.02 322.81,457.33 323.75,456.55 324.69,455.69 325.62,454.75 326.56,453.73 327.50,452.63 328.44,451.45 329.38,450.20 330.31,448.87 331.25,447.47 332.19,446.00 333.12,444.47 334.06,442.86 335.00,441.20 335.94,439.47 336.88,437.68 337.81,435.83 338.75,433.93 339.69,431.97 340.62,429.96 341.56,427.90 342.50,425.80 343.44,423.65 344.38,421.46 345.31,419.23 346.25,416.95 347.19,414.65 348.13,412.31 349.06,409.94 350.00,407.54 350.94,405.11 351.88,402.66 352.81,400.18 353.75,397.69 354.69,395.18 355.63,392.65 356.56,390.11 357.50,387.56 358.44,385.01 359.38,382.44 360.31,379.87 361.25,377.30 362.19,374.73 363.12,372.17 364.06,369.60 365.00,367.05 365.94,364.50 366.88,361.97 367.81,359.44 368.75,356.93 369.69,354.44 370.62,351.97 371.56,349.52 372.50,347.09 373.44,344.68 374.38,342.30 375.31,339.95 376.25,337.62 377.19,335.33 378.12,333.07 379.06,330.85 380.00,328.65 380.94,326.50 381.88,324.39 382.81,322.31 383.75,320.28 384.69,318.28 385.62,316.33 386.56,314.43 387.50,312.57 388.44,310.76 389.38,309.00 390.31,307.28 391.25,305.62 392.19,304.00 393.12,302.44 394.06,300.92 395.00,299.47 395.94,298.06 396.88,296.71 397.81,295.41 398.75,294.17 399.69,292.98 400.63,291.85 401.56,290.77 402.50,289.75 403.44,288.79 404.38,287.88 405.31,287.03 406.25,286.24 407.19,285.50 408.12,284.82 409.06,284.20 410.00,283.64 410.94,283.13 411.88,282.67 412.81,282.28 413.75,281.94 414.69,281.65 415.63,281.42 416.56,281.24 417.50,281.12 418.44,281.05 419.38,281.04 420.31,281.07 421.25,281.16 422.19,281.30 423.12,281.49 424.06,281.73 425.00,282.02 425.94,282.35 426.88,282.74 427.81,283.17 428.75,283.64 429.69,284.16 430.62,284.72 431.56,285.33 432.50,285.98 433.44,286.67 434.38,287.39 435.31,288.16 436.25,288.96 437.19,289.80 438.12,290.68 439.06,291.59 440.00,292.53 440.94,293.50 441.88,294.51 442.81,295.54 443.75,296.60 444.69,297.69 445.62,298.80 446.56,299.94 447.50,301.10 448.44,302.29 449.38,303.49 450.31,304.72 451.25,305.96 452.19,307.22 453.13,308.49 454.06,309.78 455.00,311.08 455.94,312.40 456.88,313.72 457.81,315.06 458.75,316.40 459.69,317.75 460.63,319.11 461.56,320.47 462.50,321.84 463.44,323.20 464.37,324.57 465.31,325.94 466.25,327.31 467.19,328.67 468.12,330.03 469.06,331.39 470.00,332.74 470.94,334.09 471.88,335.42 472.81,336.75 473.75,338.07 474.69,339.38 475.63,340.68 476.56,341.96 477.50,343.23 478.44,344.49 479.38,345.73 480.31,346.96 481.25,348.17 482.19,349.36 483.12,350.53 484.06,351.68 485.00,352.82 485.94,353.93 486.88,355.02 487.81,356.09 488.75,357.14 489.69,358.17 490.63,359.17 491.56,360.15 492.50,361.10 493.44,362.03 494.38,362.93 495.31,363.80 496.25,364.65 497.19,365.48 498.12,366.27 499.06,367.04 500.00,367.78 500.94,368.49 501.88,369.18 502.81,369.83 503.75,370.46 504.69,371.05 505.62,371.62 506.56,372.16 507.50,372.67 508.44,373.16 509.38,373.61 510.31,374.03 511.25,374.42 512.19,374.79 513.12,375.12 514.06,375.43 515.00,375.71 515.94,375.96 516.88,376.18 517.81,376.37 518.75,376.53 519.69,376.67 520.62,376.77 521.56,376.85 522.50,376.91 523.44,376.93 524.38,376.93 525.31,376.91 526.25,376.85 527.19,376.77 528.12,376.67 529.06,376.54 530.00,376.39 530.94,376.21 531.88,376.01 532.81,375.79 533.75,375.55 534.69,375.28 535.62,374.99 536.56,374.68 537.50,374.35 538.44,374.00 539.38,373.63 540.31,373.24 541.25,372.84 542.19,372.41 543.12,371.97 544.06,371.52 545.00,371.04 545.94,370.55 546.88,370.05 547.81,369.53 548.75,369.00 549.69,368.46 550.62,367.90 551.56,367.33 552.50,366.76 553.44,366.17 554.38,365.57 555.31,364.96 556.25,364.34 557.19,363.72 558.12,363.09 559.06,362.45 560.00,361.81 560.94,361.16 561.88,360.50 562.81,359.84 563.75,359.18 564.69,358.52 565.62,357.85 566.56,357.18 567.50,356.51 568.44,355.84 569.38,355.16 570.31,354.49 571.25,353.82 572.19,353.16 573.12,352.49 574.06,351.83 575.00,351.16 575.94,350.51 576.88,349.85 577.81,349.21 578.75,348.56 579.69,347.93 580.62,347.29 581.56,346.67 582.50,346.05 583.44,345.44 584.38,344.84 585.31,344.24 586.25,343.65 587.19,343.08 588.12,342.51 589.06,341.95 590.00,341.40 590.94,340.86 591.88,340.33 592.81,339.82 593.75,339.31 594.69,338.81 595.62,338.33 596.56,337.86 597.50,337.40 598.44,336.95 599.38,336.52 600.31,336.10 601.25,335.69 602.19,335.29 603.12,334.91 604.06,334.54 605.00,334.19 605.94,333.85 606.88,333.52 607.81,333.20 608.75,332.90 609.69,332.62 610.62,332.35 611.56,332.09 612.50,331.84 613.44,331.61 614.38,331.40 615.31,331.20 616.25,331.01 617.19,330.83 618.12,330.68 619.06,330.53 620.00,330.40 620.94,330.28 621.88,330.17 622.81,330.08 623.75,330.01 624.69,329.94 625.62,329.89 626.56,329.85 627.50,329.83 628.44,329.82 629.38,329.82 630.31,329.83 631.25,329.86 632.19,329.89 633.12,329.94 634.06,330.00 635.00,330.08 635.94,330.16 636.88,330.25 637.81,330.36 638.75,330.48 639.69,330.60 640.62,330.74 641.56,330.89 642.50,331.04 643.44,331.21 644.38,331.38 645.31,331.56 646.25,331.76 647.19,331.96 648.12,332.16 649.06,332.38 650.00,332.60 650.94,332.83 651.88,333.07 652.81,333.31 653.75,333.56 654.69,333.82 655.62,334.08 656.56,334.35 657.50,334.62 658.44,334.90 659.38,335.18 660.31,335.46 661.25,335.75 662.19,336.04 663.13,336.34 664.06,336.64 665.00,336.94 665.94,337.24 666.88,337.55 667.81,337.86 668.75,338.17 669.69,338.48 670.62,338.79 671.56,339.10 672.50,339.42 673.44,339.73 674.38,340.05 675.31,340.36 676.25,340.67 677.19,340.98 678.13,341.29 679.06,341.60 680.00,341.91 680.94,342.22 681.88,342.52 682.81,342.82 683.75,343.12 684.69,343.42 685.62,343.71 686.56,344.00 687.50,344.29 688.44,344.58 689.38,344.86 690.31,345.13 691.25,345.40 692.19,345.67 693.13,345.94 694.06,346.20 695.00,346.45 695.94,346.70 696.88,346.95 697.81,347.19 698.75,347.42 699.69,347.65 700.62,347.87 701.56,348.09 702.50,348.31 703.44,348.51 704.37,348.71 705.31,348.91 706.25,349.10 707.19,349.28 708.12,349.46 709.06,349.63 710.00,349.79 710.94,349.95 711.88,350.10 712.81,350.25 713.75,350.39 714.69,350.52 715.62,350.65 716.56,350.77 717.50,350.88 718.44,350.98 719.38,351.08 720.31,351.18 721.25,351.27 722.19,351.35 723.13,351.42 724.06,351.49 725.00,351.55 725.94,351.60 726.88,351.65 727.81,351.70 728.75,351.73 729.69,351.76 730.62,351.79 731.56,351.80 732.50,351.82 733.44,351.82 734.38,351.82 735.31,351.82 736.25,351.81 737.19,351.79 738.12,351.77 739.06,351.74 740.00,351.71 740.94,351.67 741.88,351.63 742.81,351.58 743.75,351.53 744.69,351.47 745.62,351.41 746.56,351.35 747.50,351.27 748.44,351.20 749.38,351.12 750.31,351.04 751.25,350.95 752.19,350.86 753.12,350.77 754.06,350.67 755.00,350.57 755.94,350.46 756.88,350.36 757.81,350.25 758.75,350.13 759.69,350.02 760.63,349.90 761.56,349.78 762.50,349.66 763.44,349.53 764.38,349.40 765.31,349.28 766.25,349.15 767.19,349.01 768.13,348.88 769.06,348.74 770.00,348.61 770.94,348.47 771.88,348.33 772.81,348.19 773.75,348.05 774.69,347.91 775.62,347.77 776.56,347.63 777.50,347.49 778.44,347.35 779.38,347.20 780.31,347.06 781.25,346.92 782.19,346.78 783.12,346.64 784.06,346.50 785.00,346.36 785.94,346.22 786.88,346.09 787.81,345.95 788.75,345.82 789.69,345.68 790.62,345.55 791.56,345.42 792.50,345.29 793.44,345.16 794.38,345.03 795.31,344.91 796.25,344.79 797.19,344.67 798.13,344.55 799.06,344.43 800.00,344.31 800.94,344.20 801.88,344.09 802.81,343.98 803.75,343.88 804.69,343.77 805.62,343.67 806.56,343.57 807.50,343.48 808.44,343.39 809.37,343.29 810.31,343.21 811.25,343.12 812.19,343.04 813.12,342.96 814.06,342.88 815.00,342.81 815.94,342.74 816.88,342.67 817.81,342.60 818.75,342.54 819.69,342.48 820.62,342.42 821.56,342.37 822.50,342.32 823.44,342.27 824.38,342.22 825.31,342.18 826.25,342.14 827.19,342.11 828.12,342.07 829.06,342.04 830.00,342.01" fill="none" stroke="#2ca02c" stroke-width="2"/>
<line x1="855" y1="103" x2="885" y2="103" stroke="#2ca02c" stroke-width="3"/>
<text x="892" y="108" font-family="Arial" font-size="13">T3 error</text>
</svg>